/* XPM */
static char *exit_closed_door1708595490[] = {
/* columns rows colors chars-per-pixel */
"55 128 116 2 ",
"   c #413016",
".  c #45341C",
"X  c #5F472A",
"o  c #7C5933",
"O  c #6D5D4C",
"+  c #786757",
"@  c #7E6D5E",
"#  c #875D2F",
"$  c #855E35",
"%  c #885E31",
"&  c #8C6233",
"*  c #8B6438",
"=  c #936635",
"-  c #966937",
";  c #986937",
":  c #9C6E3C",
">  c #9F723F",
",  c #92714E",
"<  c #8E765B",
"1  c #957552",
"2  c #99795A",
"3  c #847465",
"4  c #80776E",
"5  c #8D7D6E",
"6  c #807875",
"7  c #8D8176",
"8  c #9C8772",
"9  c #958A7F",
"0  c #A38E79",
"q  c #A6927D",
"w  c #8D8683",
"e  c #8F8A88",
"r  c #948B84",
"t  c #968F8B",
"y  c #998F88",
"u  c #97908A",
"i  c #9C938D",
"p  c #9E9691",
"a  c #9F9994",
"s  c #A1968E",
"d  c #A2988F",
"f  c #AE9A88",
"g  c #A09691",
"h  c #A39A94",
"j  c #A69E99",
"k  c #A99F9B",
"l  c #AAA097",
"z  c #A7A19B",
"x  c #ACA29C",
"c  c #B5A493",
"v  c #BAA697",
"b  c #B1A69F",
"n  c #BCAB9C",
"m  c #A79FA1",
"M  c #A7A1A1",
"N  c #ADA4A1",
"B  c #AEA8A6",
"V  c #AEA9A8",
"C  c #B1A7A2",
"Z  c #B4AAA4",
"A  c #B8ADA7",
"S  c #B5ACAA",
"D  c #B9AFAA",
"F  c #B5B2AE",
"G  c #BCB3AD",
"H  c #B5B0B0",
"J  c #BEB5B2",
"K  c #BFB9B7",
"L  c #C0B6AE",
"P  c #C2B8AF",
"I  c #C1B7B2",
"U  c #C3BAB4",
"Y  c #CCBEB3",
"T  c #C5BCBA",
"R  c #C8BFBC",
"E  c #C7C0B6",
"W  c #C9C0B7",
"Q  c #C7C0BB",
"!  c #CBC2BD",
"~  c #CEC8BF",
"^  c #D0C7BE",
"/  c #C9BFC0",
"(  c #C7C2C0",
")  c #CDC5C3",
"_  c #CEC8C4",
"`  c #CAC7C8",
"'  c #CECAC8",
"]  c #D0C7C4",
"[  c #D2CAC6",
"{  c #D5CDCA",
"}  c #D8CFCC",
"|  c #D6D0CC",
" . c #DAD2CE",
".. c #CECAD0",
"X. c #D5CFD1",
"o. c #D8CFD0",
"O. c #D7D1D2",
"+. c #DCD5D3",
"@. c #DED9D6",
"#. c #D7D6DC",
"$. c #D9D6DC",
"%. c #D7D8DE",
"&. c #DDDADA",
"*. c #E0D7D4",
"=. c #E0DBD6",
"-. c #E2DEDA",
";. c #E5E1DD",
":. c #E8E2DE",
">. c #DCDBE2",
",. c #E1DFE5",
"<. c #E4E2E5",
"1. c #E9E5E3",
"2. c #ECEAE6",
"3. c #E5E5EA",
"4. c #E9E6EA",
"5. c #EAE9EC",
/* pixels */
"....#.$.$.#.$.#.#.#.#.O.O.#.$.#.$.#.$.>.>.%.#.>.>.#.%.%.%.$.%.#.%.%.%.%.%.O.%.%.%.%.%.-.%.&.%.%.%.%.%.%.%.+.O.",
"$.$.#.>.>.$.>.$.#.>.#.#.#.#.#.#.#.#.#.#.#.#.#.#.#.#.#.%.#.%.#.%.%.%.%.%.%.%.%.@.%.%.%.%.%.%.%.%.%.>.%.%.&.%.%.",
"-.>.N ! +.=.*.=.=.=.$.-.@.=.=.=.=.=.=.-.=.-.-.$.=.-.-.-.-.=.-.;.-.-.-.-.-.-.-.-.;.;.;.;.;.-.-.@.-.@.+.E a +.+.",
">.>.A s x D R [ } } +.+.O.+.+.+.@.@.+.@.+.=.=.=.=.=.&.-.=.-.-.-.-.;.-.-.-.;.;.;.;.;.;.;.;.;.-.@.| ~ B a d %.%.",
",.>.Z x Z T [ +.$.=.-.*.-.-.-.,.-.-.-.-.-.-.-.-.-.-.;.&.-.-.-.-.-.-.-.-.-.;.-.-.-.-.;.;.-.-.%.@.| Q N p a %.-.",
"<.>.C x C I ) } +.@.*.@.$.*.+.*.@.@.@.@.@.$.@.@.@.@.@.&.@.&.@.&.@.@.&.-.&.-.@.=.=.=.&.&.@.%.@.| ' K x i a >.>.",
"<.>.C x N J ) { o.+.+.+.+.+.+.+.@.O.@.+.@.@.@.@.+.+.+.&.+.$.@.@.@.@.@.@.@.@.@.%.@.@.&.&.@.@.%.| ' K M p a >.,.",
"3.>.Z k N I / { o.+.+.*.$.+.+.+.@.@.#.+.O.@.O.@.+.&.+.+.+.@.@.@.%.@.@.@.@.%.@.@.&.@.@.@.@.@.| | ` K M u a >.,.",
"3.3.V k m I / { o.o.+.+.+.@.+.+.+.+.+.+.@.@.@.&.+.+.+.+.+.@.@.@.@.@.@.@.@.@.@.@.@.@.%.@.@.@.O.| ` K m i a >.>.",
",.,.C k C J ) { o.+.+.+.+.O.#.+.#.+.+.#.O.O.@.+.+.&.+.O.&.&.@.O.%.@.@.@.@.@.@.@.@.@.=.@.@.%.O.| ) J k y a >.3.",
"<.,.Z k N J ) { o.o.+.$.O.@.+.O.+.@.+.+.@.@.+.+.&.+.&.@.@.@.@.@.@.@.@.=.@.%.@.=.@.%.=.@.@.%.+.| ` I k i a >.,.",
",.,.C x N J ) { o.o.] { { [ ..' ` [ ' ` ` ) _ ` O.+.+.&.O.@.' ( ` ( ~ ~ ( ` ( ` ' ~ ` ~ ` | %.| [ I m t m >.,.",
"<.,.Z x Z I ) o.o.) } -.*.,.-.-.*.-.@.&.=.@. .+.| +.@.@.+.+.K +.@.=.-.=.=.-.-.-.-.-.=.| O.| +.| ` I k y h ,.3.",
"<.$.Z k V I / o.o.) =.I  .*.=.=.*.=.&.*.+._ E @.O.&.+.+.&.+.U 1.P | @.=.=.-.-.-.-.=.| F O.| +.| ` T m i h ,.3.",
"<.,.C x Z I ` o.O.) =.D { @.@.*.$.@.@.@.+.` E +.| @.&.@.&.@.E <.E | @.%.-.-.=.-.&.@.~ F O.| @.O...T m y h >.3.",
",.,.Z b C I ] o.+.) -.D { +.@.$.@.@.@.+.O.( T @.O.@.&.&.+.+.U 1.E ' @.@.=.@.&.=.&.@.' P @.' @.O.[ I m i j ,.3.",
",.,.Z k Z I / o.o.] -.D o.+.$.*.@.@.+.$. .) T @.| @.=.@.@.$.T 1.E ' %.@.-.@.=.&.@.@.` F | | @.O...I m i a 3.3.",
",.,.Z N C T [ o.*./ -.D { +.*.*.*.@.*.+.O.) T @.O.&.&.&.@.@.T 2.( | @.@.%.-.&.&.&.@.~ L @.' @.| [ T m p m 3.3.",
"4.,.Z N S I ] o.o.] =.D o.+.+.$.-.*.@.+.O.! Q =.} =.$.=.&.@.T 1.E | @.&.=.&.=.-.@.@.' F @.| @.O.[ T m p a 3.3.",
"4.,.C N V T { o.o.] -.S o.+.@.@.$.$.*.@.+.) Q &.O.=.-.=.&.=.T 1.E | @.@.-.-.-.&.-.@.' P @.| @.+.` T m p a 3.3.",
"4.,.A C C / / o.*.` -.D { @.@.@.*.=.@.@.O.) Q &.+.-.-.&.-.@.! 1.E | &.&.-.-.-.%.&.@.' L @.| @.O...T N y j 3.3.",
",.4.Z b C T ..o.+.] =.L o.=.*.-.=.$.-.@.O.) ! &. .&.&.&.&.@.Q 2.( | @.-.%.-.-.-.-.@.' P @.| @.+.[ T m g j 3.3.",
",.4.Z C S T { o.*.] -.L } *.-.=.=.-.@.=.+.) R -.+.&.&.-.-.&.Q 2.E | %.@.-.-.&.-.-.%.~ P @.| @.+.{ T C g a 3.5.",
"5.,.C C Z T { o.+.] -.D o.$.*.$.-.@.$.=.+.[ ! &.+.&.-.&.-.&.Q 1.E | @.-.-.-.-.-.-.@.' E @.| &.+.{ T m g j 3.5.",
"4.4.Z b Z T / *.*.] ,.L o.*.-.-.&.&.&.@.+._ ! =.+.&.-.&.-.-.Q 2.E O.@.-.-.&.-.;.-.-.' P &. .&.+.{ T N g j 3.3.",
",.4.A x S T o.o.+.` -.L o.*.=.$.&.-.&.@.+._ ! -.+.-.=.&.-.&.~ 1.~ | -.-.-.-.;.>.-.-.' U =.| &.+.{ T N p h 3.3.",
"4.,.L C V T { o.*.[ -.L o.*.-.*.&.=.-.@.+._ ! -.+.&.-.;.-.-.Q 2.Q O.&.-.-.-.-.-.-.=.' P @. .&.+...T N g m 3.5.",
"4.4.A C S T { *.*.[ -.L O.-.*.,.&.;.&.@.+._ ! -.+.&.;.&.&.-.! 2.~ | -.-.;.-.;.-.;.=.' U @. .-.+.{ T N g j 3.3.",
"4.4.A k S T / *.*.[ ,.L +.-.-.-.=.-.&.&.@._ ! -.+.-.>.-.-.-.~ 1.~ | =.-.;.-.;.;.;.-.' P @. .&.+.{ T N g j 3.3.",
"4.,.D C S R o.*.*.[ -.U +.$.-.&.;.=.-.=.@._ ~ -.+.;.-.-.-.-.( 2.~ O.-.-.-.;.-.-.>.-.' E @.+.&.&.{ T C s m 3.3.",
"1.,.A C Z / / *.*.[ -.I O.=.-.-.-.-.-.&.@._ ~ -.#.-.;.-.-.-._ 2.~ O.&.-.>.;.;.;.-.;.| E &.+.-.+.O.T B g j <.,.",
"4.4.A b S T o.*.*.[ ,.I +.=.-.-.-.=.-.=.@.' Q ;.+.-.-.-.-.@.~ 2.~ O.-.;.;.;.-.;.;.-.' U &.+.-.&.{ T B p j 3.3.",
"1.4.L k A T { *.*.] ,.P *.=.-.-.-.-.&.&.@.[ ! -.+.;.-.-.-.-.~ 2.!  .-.-.;.-.;.;.-.-.| E @. .;.@.{ T B g k 3.<.",
"1.4.L b S R { o.*.{ -.L  .-.,.-.;.&.-.-.@.[ ) -.@.-.;.-.-.-._ 2.~ +.-.;.;.-.,.-.;.-.' K @. .-.@.O.Q N h z <.<.",
"4.4.A x A R o.*.*.[ ,.U *.-.-.-.&.;.&.-.+.[ ! -.+.-.-.-.-.-._ 2.~ +.-.;.;.;.;.-.;.-.' E -.+.-.@.{ Q C i z <.3.",
":.,.L b S R ] *.$.{ -.U o.-.-.-.;.-.;.-.@.[ ~ -.+.;.&.;.-.;.~ 2.~ +.&.;.;.;.;.;.;.-.| E @.| -.@.| T Z s z <.<.",
"1.4.L x A T { o.-.[ -.P +.-.-.,.;.-.-.&.@._ ! -.@.;.-.;.;.-._ 2.~ +.-.;.;.;.,.;.;.-.' E @.+.=.@.| T B h l 3.;.",
",.4.L C A R o.*.*.} -.I +.=.-.-.-.;.-.-.@.[ ~ ;.+.;.;.-.;.;._ 2.~ +.&.;.;.;.;.;.;.-.| E -.+.=.@.| T Z h z <.<.",
"1.4.L C L T / *.=.{ -.Y *.-.-.,.-.-.-.=.@.[ ! ;.+.-.;.-.-.;._ 2.~ +.-.;.;.;.;.;.;.;.| E @.@.-.@.| ! Z d l 3.<.",
"1.4.L C Z R o.*.=.[ ,.U *.-.-.-.;.-.;.-.=.[ ~ -.+.;.-.;.;.-._ 2.~ O.-.;.;.;.;.;.;.;.| E @.@.=.@.| ! N a l 3.<.",
"2.4.L b D R { +.=.[ :.Y o.-.-.-.-.-.-.-.@.[ ~ -.+.;.&.;.;.-.] 2.~ @.;.%.;.;.;.2.<.;.| E %.@.=.@.{ ( B h k <.<.",
"1.4.L Z D R } *.=.[ -.P *.-.-.-.-.;.-.-.@.[ ~ ;.+.;.;.-.;.;.~ 2.~ @.;.;.;.;.;.;.;.-.| E -.@.-.@.| T C h x 3.<.",
"1.4.G C D R o.+.=.] ,.U *.-.,.-.;.-.;.&.@.[ ~ ;.@.;.;.;.;.;.] 2.~ @.-.;.-.-.;.;.;.;.| E =.@.-.@.{ ) C h z 3.<.",
"1.4.I C D R } +.-.o.-.U *.-.-.-.-.;.;.-.&.[ _ ;.+.;.;.;.-.;.) 2.~ | -.;.;.;.;.;.;.;.| E =.@.;.&. .R C h x <.;.",
",.1.I Z D R } *.-.[ -.U *.-.-.,.;.;.-.;.=.[ ~ ;.&.;.;.;.;.;._ 2.~ @.-.;.;.;.2.;.;.;.| E =.@.@.@.| ! C h z 3.<.",
"-.5.L n D R } *.=.[ :.P *.-.-.-.;.;.;.-.&.[ ~ ;.&.;.;.;.;.-.~ 2.~ @.-.;.;.<.;.;.;.;.| E ;.@.;.@.| ! B h x 3.<.",
"-.1.I C L R { *.-.[ :.T *.-.:.:.;.=.;.-.=.{ _ ;.@.;.;.;.;.;._ 2.~ | -.;.;.;.<.;.;.;.| E @.@.;.@.| Q N h z 3.<.",
"1.1.L C D R { *.-.{ -.U *.-.:.-.;.;.;.;.;.[ ~ ;.&.;.;.;.;.;.~ 2.~ @.;.;.;.;.;.;.;.>.| E @.@.;.@.| Q Z p x 2.3.",
"-.1.P C L R { *.=.{ -.U +.-.1.-.;.;.;.-.-.[ ) <.@.;.;.;.:.;._ 2.~ @.-.;.;.;.;.;.;.;.| E -.@.;.@.| E B d z 2.;.",
",.-.P Z L T } o.=.[ 1.U *.-.-.-.-.<.;.-.=.} ~ ;.=.;.;.;.;.;._ 2.~ @.-.;.;.;.;.;.;.;.| E @.@.-.@.| E B a b 2.2.",
":.:.L C I R } *.=.{ :.P *.-.:.;.:.:.-.;.=.[ ~ ;.@.;.;.;.;.;._ 2.~ @.-.;.;.;.;.;.;.;.| E -.@.-.@.| E B z z 3.<.",
":.-.P n D R } *.=.[ :.U +.-.-.:.-.:.;.-.=.[ ] ;.@.;.;.;.;.;.~ 2.~ @.-.;.;.;.;.2.;.;.| E -.@.-.@.| ( B a M 2.3.",
";.:.G n L / } *.-.[ :.P =.-.:.-.;.;.;.;.-.[ ] ;.@.;.;.;.;.;.~ 2.~ | ;.;.;.;.;.;.;.-.~ E ;.| =.@.| E Z a B <.3.",
":.1.J Z D / } *.-.[ :.U *.-.;.;.;.;.;.-.=.} [ :.@.;.;.;.;.;.~ 2.~ %.-.;.;.;.;.;.;.;.| E =.@.;.@.| E b a B 2.3.",
";.1.I Z G !  .*.-.[ :.L +.-.:.;.;.;.;.;.=.{ _ ;.@.;.;.;.;.;.~ 2.~ @.;.;.;.;.;.;.;.;.~ E =.@.;.=.| E b d V 3.3.",
"-.:.I A G ) } *.=.[ :.U *.-.-.;.;.;.;.;.=.[ ] ;.@.;.;.;.;.;.~ 2.~ | ;.;.;.;.;.;.;.;.| E =.@.=.=.| ~ B a V 5.3.",
":.1.L Z G / { *.=.[ 1.P +.-.;.;.-.;.;.-.-.[ ] ;.=.;.;.;.;.=.~ 2.~ | ;.;.;.;.;.;.;.;.~ E ;. .;.=.| E B d V 5.3.",
"1.1.L Z G ) } =.=.{ :.L *.-.;.;.;.;.;.;.-.[ ~ ;.=.;.;.;.;.;.~ :.~ @.-.;.;.;.;.;.;.;.| E =. .=.=.' E B d V 3.3.",
":.1.I Z G ! } =.-.[ -.U *.-.;.;.;.;.;.-.=.[ ~ ;.@.;.;.;.;.;.~ 2.~ @.-.;.;.;.;.;.;.;.| E =.@.-.=.| E Z d M 5.3.",
"-.1.L A G ! } @.=.[ -.U *.-.-.;.;.;.;.-.-.[ ~ ;.=.;.;.;.;.;.~ 2.~ | -.;.;.;.;.;.;.;.~ E -. .-.=.| E b l V 5.5.",
"-.1.U Z L R | *.-.{ :.P *.-.-.:.;.;.;.-.-.[ ~ :.@.;.;.;.=.;.~ :.~ | ;.;.;.;.;.;.;.;.~ E ;.@.-. .| Q C d N 5.5.",
"-.4.P A G ^ } *.=.[ :.P *.-.:.:.;.;.;.-.=.} ~ ;.@.;.;.;.;.;.~ 2.~  .=.;.=.;.;.;.;.;.~ E -. .-.=.| Q C d B 5.5.",
"-.:.P Z D R } *.=.[ :.U *.-.:.-.;.:.;.-.=.[ ~ ;.@.;.;.;.;.;.W 2.~  .;.;.;.;.;.;.;.-.~ E =. .;.-.| E b h V 5.5.",
",.-.Y Z L R } *.=.} -.P  .-.-.:.;.;.;.-.=.[ ] ;.=.;.;.;.=.;.~ :.~ | =.;.;.;.;.;.-.-.| E =. .=.=.{ E C l V 5.5.",
":.=.P D L / } *.=.} -.[ =.=.=.-.=.=.=.=.=.=.~ ;.=.;.;.;.;.;.~ 2.~ =.=.=.=.=.=.=.=.=.=.~ =. .=.^ 2 , 1 9 x 3.3.",
":.-.P D D R } *.-.[ -.*.*.=.*.*.@.=.=.=.=. .=.=.=.;.;.;.;.=.~ =.@.@. . . . .=. .=. . . .=.=.=.n = ; > 8 x 3.<.",
":.-.L D D ! { *.-.-.-.1.-.:.:.,.;.;.;.;.=.;.;.=.;.=.;.=.;.=.;.=.;.;.;.;.;.;.;.;.;.;.;.;.;.=.=.v - * > 7 l 3.<.",
":.-.I D G R { *.*.-.-.-.:.-.-.:.;.=.;.;.;.;.;.;.=.;.;.;.=.;.;.-.;.;.;.;.;.;.;.;.;.;.;.;.:.=.=.v , < , @ l ;.&.",
"-.-.P L D R { *.*.-.-.-.-.:.-.-.;.;.;.;.;.;.;.;.;.;.;.;.;.=.;.-.;.;.;.;.;.;.-.;.;.;.;.=.=.:.*.v # o > < l <.-.",
"-.-.L v L R { o.-.-.-.-.:.-.-.:.;.;.=.;.;.;.;.=.=.;.;.=.;.;.-.;.=.=.;.=.-.;.-.-.=.=.;.=.=.:.=.v - ; : 5 l <.-.",
"*.-.L b D R } *.-.-.-.-.:.-.:.-.;.;.;.;.;.=.;.;.=.;.=.;.;.=.;.=.;.=.=.;.=.=.=.=.=.=.=.=. . . .c = & - 3 d <.=.",
"=.-.L Z L R { *.*.-.-.-.-.-.-.-.=.;.=.;.;.;.=.=.;.;.=.;.;.=.;.=.=.;.=.=.=. .|  .~ ~ *   .   .   X . - O 7 ;.*.",
"-.-.P n D R { *.=.-.-.-.-.-.-.-.;.;.;.=.;.;.=.;.=.;.=.=.;.=.=.;.;.=.=.=.=.=.| ~ ~ } q q q 0 8 1 & $ = O 3 =.=.",
"*.-.P Z D R } o.*.=.-.-.-.-.-.-.=.;.;.;.;.=.:.=.=.;.;.;.;.;.;.;.=.;.;.=.=. . .| { }  . .^ ^ ^ v & = & + 9 =.+.",
"-.:.L b L R {  .=.=.-.=.-.-.-.-.;.=.;.;.;.=.;.=.;.=.;.=.=.;.=.=.=.;.=.;.=.=. . .*. . . .=.=.*.W & % & 3 d -.+.",
"-.*.L v A R { +.*.^ [ [ { { } {  .| | ~ ~  .~ =. .;.=.;.=.;.~  .~ | ~ ~ ~ ~ ~ ~ ~ ^ { ^ *.^ =.*.[ U b s h =.*.",
"*.-.L C A R [  .*.^ =.b E W W ~ ~ W E ~ E P P =.=.=.=.=.=.=.~ :.n E E E ~ E ~ E W W P L *. .=. .{ T b h h =.=.",
"-.*.L C L U {  . .~ :.L  .@.;.=.=.;.=.=.=. .E =. .=.;.=.=.=.~ :.E ~ =.=.=.=.=.=.=.*.~ W @. .=.@.[ T Z f l ;.=.",
"-.*.D b L R [ *.*.^ ;.L | =.;.=.;.=.;.=.=.~ E =. .;.;.=.=.=.~ :.~ | =.=.=.;.;.=.=.*.^ E +. .=. .[ Y b h j ;.;.",
"*.-.L v C R [ } *.W ;.G  .@.=.=.=.;.=.=.=.~ E =. .=.=.=.=.=.~ :.E | =.=.=.=.=.=.;.=.{ E  . .=. .] U b d j -.-.",
"*.*.P b C T / *.*.Y *.P } *.-.*.-.-.-.-.+.[ T *. .;.=.=.=.=.~ :.E  . .=.=.=.=.=.;.=.~ E =.| =. .] U b d l -.=.",
"*.,.P b L T } o.*./ *.P } *.-.-.=.=.=.=.+.[ E +. .=.=.=.+.=.~ :.~  .=.=.=.=.=.=.=.=.~ P =.| =. .] T b d j -.-.",
"*.*.L b Z T [ } *.R *.P } *.*.*.=.=.=.=.*.[ T @. .=.=.=.+.=.^ :.~  .=.=.=.=.=.=.=.=.~ P =.| =. .] U b d h -.=.",
"*.o.L b L Y [ *.*.R *.P } *.*.-.*.=.=.=.+.] T *. .=.=.=.=.=.^ :.E ~ =.=.=.=.=.=.=.=.~ E  . . . .] U x d h -.*.",
"*.*.L k A U [ } +.^ +.L } *.*.=.=.=.@.=.@.] E *. .=.=.=.+.=.E :.E  .=.=.=.=.=.=.=.=.~ E  . .=.| ) U x d l =.@.",
"-.*.L k L U [ }  .W *.L { *.=.*.=.*.*.+. .~ U +.} *.=.=.+.=.^ :.~ ~  .=.=.=.=.=.=.=.~ P  . . . .) L x d h &.@.",
"-.-.L b C U / } +.Y *.G } +.*.*.*.*.=.=.+.] T *.} =.*.=.=.=.W :.E  . .=.=.=.=.=.=. .~ E =. . . ._ U z d j &.@.",
"-.*.D b Z U [ }  .R *.L [ *.*.*.*.*.*.*. .^ T  . .*.@.*.=. .^ :.E  .=.=. .=.=.=.=.=.~ P  .~ =. .) U x d h &.&.",
"-.*.L b A R [ {  .R *.L [  .*.*.*.*.+. . .^ T  .^ =. .=.*.*.^ :.^ ^ =. .+.=.*.=.=. .~ P +.|  . .) I x h h +.-.",
"*.*.A k Z Y / }  .R  .L { +.*.*.+.*.+.*.+.^ T *. .=.=.=.*.*.W =.^ ~  .=.=.*.=.=.=. .~ E | |  .| ! I x s j +.@.",
"*.*.D b A I ] }  .R *.L [ +.*.+.*.*.+.*. .^ U  . .=.=. . .=.^ ;.E ~ +.=. .=.=.+.=. .~ P  .|  . .~ I x s a &.@.",
"*.,.A k A U / } } R *.L [ +. .+. .*. .+. .^ I +.~ =.=. .=. .W ;.~ ~  . .=.+.=.=.+. .~ E  .{  .| ~ G x h a &.&.",
"*.*.S m S I / { } R  .L [ +.+.+.*. .+.+.| ~ P  . .=.=.=.=. .^ =.W } *. .=.=.*. .+.+.~ P | |  .| ~ J z s h &.&.",
"*.*.S b Z I [ } } R  .A {  .+. . .+.+. .| ~ U *.^ =.*. . . .W ;.E ~  .*. .+. .=.+. .~ P  .~  .{ ! J k s a @.&.",
"*.*.A k Z U / { } Y *.L ]  .+. .+.+.+. .} ! P  .^  . . .*. .W ;.W ^  . . .+. .@.+. .~ G  .|  .[ ! J z a a &.@.",
"*.*.A k A U / { } T  .L ]  . .*.+. .+. .} ! E  . .=. .=. .*.W ;.W ~  . .+.+.@.+.@. .~ P | ~  .[ ! G j p a +.@.",
"*.*.A k S I / { o.U o.A /  . . . .*. . .} ! U  .[  . .+. . .W ;.U [  . . . .+. .+. .~ P  .[  .[ W J z p a +.+.",
"$.+.Z k Z I / { { T +.L ]  .*. .*.}  . .} Q I  .[ *.*. .+. .W =.E ^ }  . .=. .@.+. .~ G | [ | [ W J z i a +.+.",
"*.+.S k A I R { { Y } A ] }  . . .}  . .} R U } [ *. .*. . .E *.U ] |  . . .*. . . .W G | ] | [ ! G k i a #.&.",
"*.+.Z k C U / [ { R  .A ] }  . . .*. .} } R I } {  . . .+. .Y =.U ~  . .+. . .+. . .~ G { _ | [ Q J k i a @.+.",
"*.*.Z k C I / [ { R } A ^ }  .} } *.} } { Y I } [  . . . . .E @.U ~ |  . . . . . . .W J | ~ | ] Q F l i a @.@.",
"*.o.A k Z I / / [ R } A / } } } } } } } { R J } [  . . . . .T @.J ^ |  . . . . . . .~ G { ~ | [ Q F z p a O.O.",
"o.o.A k C I / } { I } b ] } } } } } } { { Y L o.^  .}  . .| U +.L )  . . . . . . .| E J { ~ [ ] R G j u a +.O.",
"o.*.C k C I R [ { U o.L R { } } { } { } [ R G { [  .|  .|  .U +.J ~ |  . . . .|  .| W G [ ~ } ] R A l u a O.O.",
"*.o.A k C I T / o.R o.A / } } } { } { { [ T J { ] { } } } { U +.J ~ [ | | |  .} } } R F [ ! [ ] T D j i p O.O.",
"$.o.C k C I T / / R o.C / } } } { { { { [ T D { [ } } } } } U  .G ) } | | |  .} } } Q G [ ! { ) T D h y p O.O.",
"o.o.Z k C L / / { I o.Z / } o.[ { [ o.[ ] U G { ^ } } } { } U  .G ! [ } | | |  .| [ T G [ ! [ ) T D j y p O.O.",
"o.o.C k C I / / / I o.Z / / [ o.[ { [ [ ] U D } ^ } } { { { U +.J ! [ | | { } { } } ! A [ R [ ) T S h t p o.} ",
"o.o.C k N L R / { I o.C / ] { { { } [ [ ] U S [ ) { } { } { J  .G ! { } [ | { } } [ R F [ R ) ! T S h y g X.X.",
"o.o.C k N S / / / I o.C / { [ { [ { } [ ] U S { ) { { } [ { U O.G ! ' [ | { { | [ [ T A ] R [ ) I D g y p X.X.",
"o./ Z k m S T / { I #.N / [ [ { [ } [ [ ) I S [ ! { } [ [ { J  .G Q ] { { [ [ { [ ] T Z ) T ) ) U S h y p { o.",
"o.{ Z k C L T / / I o.N / [ [ { [ } / [ ] I S [ ! [ [ { { } G | G Q [ | [ | | [ } ] T Z ! T ) ! I S g y p o.{ ",
"o.{ b g m D T / / J [ b / ] [ [ [ } / } ) I S ) R { { [ ..[ L { F R ] [ [ { [ [ } [ T B ) T ) ) I S g r i ..{ ",
"o.{ C g N S T / ] G [ b / [ [ [ o./ / [ ) I S ) / [ [ [ [ ] G { F R [ } [ } { { [ _ T C T U ) / I S h r g { o.",
"{ / C g m D / / / J [ k R [ { { { } *.[ ] L S ) ) ' [ ' [ ' H ..B T ' { { | { | } [ T x ( T ) Q I V p r y o.o.",
"o.o.N k k D I / / J ] { o.+.+.+.o.o.*.*.+.+.) / T ' ' [ ' ' H ) X.>.>.>.>.>.>.>.%.%.@.Q / K ) / I S g r p { { ",
"/ o.C h k S I / / H m m m m m m N m m m m m m V / [ [ [ [ [ G V S V H S V S S F H S S V V I ) T K Z g r g [ [ ",
"o./ b g k S I / / ] ) ' ) ] ] ` ] ] ] ` [ [ ] ] ` ] ` ) ` ] ` ] ) [ ' ) ' ) [ ] [ [ ' [ ) ' ) / J V g r i [ [ ",
"/ o.C i k S K / / ) / [ ) ` ) ` ` / ` ) ) ` ) ` ) ) ) ) ) ) ] ` ) _ ) ' [ ) ] ] ) ) [ [ [ ) ) T I C g r y ..X.",
"o./ x i m V K / / / ) ) ) ] / ` ] ) ] ) / ] ) ) ` ) ` ) ) ) ) ) ) ' ) ) _ ) _ ) _ [ ) ' ) ) / T J V g r i [ ` ",
"o./ C i m S I / / ) ) ) ) ) ) ) ) ) ) ) ) ) ) ) ] ) ) ) ` ) ) ) ! ` _ _ ) _ _ ) [ ) ) ) ) ) / T J N i r i { / ",
"o./ v g k Z J / T ) / ) ) / ` / ) ) ( ) ) ) ) ) ) ) ) ) [ ) [ ) _ _ _ _ ) ~ ] ] ) ) ] ) ) ) / T J C i r i / { ",
"/ / C g m S I / / ( / ) / / ` ) / ) ) ) ) ) ) ) ) / ) ) ) ) ) ) _ ! ( _ ) _ ) _ [ ) ) ) Q / / T H C i r i { ] ",
"/ [ C g m V I I / ( / ) ) ) ) ) ) ` ) ) ) ) ) ) ) ) ) ' ) ) ) ) _ _ _ _ ) ) ] ] ] ) ! ) ! ) T T H b i r i / ] ",
"/ / k g m S I / / ( ) ) ) ) ) ) ) ) / ` ) ) ) ! ) ) ) _ ) ) ) ) _ ~ _ ( _ ~ _ ] ] [ ) ) ! ! Q T G N g r t / ..",
"/ R k g k S I T T / / ( ( ( ( ) ) ) ) ) _ ~ ` _ _ _ _ _ ' ) ) _ _ ' _ _ _ _ _ _ [ ) ) ! _ ) Q T H C y r e / ] ",
"R / m i k S I / ` ) ) ` ` ` ` ` ' ' ` ` ' ' ' ' _ ' ' ` ' _ ' ' ' ' ' ' _ _ ' ' ' ' _ _ ` ( ( T H N t 6 w R / ",
"T P y 5 i k k m N C B N N x x N N C C C B N B N Z Z Z Z N C x B x x x N x x z z x N N x M M M j p y w 4 6 R R "
};
