/* XPM */
static char *arabic231709524307[] = {
/* columns rows colors chars-per-pixel */
"128 128 31 1 ",
"  c None",
". c #BF4F0F",
"X c #BD500E",
"o c #BF4E15",
"O c #BE4F19",
"+ c #BD5014",
"@ c #BC521C",
"# c #BC581E",
"$ c #BB5523",
"% c #BB5925",
"& c #B4572A",
"* c #BB5729",
"= c #B55A2C",
"- c #BB5A2B",
"; c #B75E34",
": c #BA5D32",
"> c #BC612E",
", c #B76137",
"< c #BB6134",
"1 c #B86836",
"2 c #B7623B",
"3 c #BB633A",
"4 c #C14E0E",
"5 c #C04E13",
"6 c #C04D19",
"7 c #C05012",
"8 c #C0501C",
"9 c #C0581F",
"0 c #C05423",
"q c #C05529",
"w c #C15730",
/* pixels */
"                                                                                                                                ",
"                                                                                                                                ",
"                                                                                                                                ",
"                                                                                                                                ",
"                                                                                                                                ",
"                                                                                                                                ",
"                                                                                                                                ",
"                                                                                                                                ",
"                                                                                                                                ",
"                                                                                                                                ",
"                                                                                                                                ",
"                                                                                                                                ",
"                                                                                                                                ",
"                                                                                                                                ",
"                                                                                                                                ",
"                                                                                                                                ",
"                                                                                    $$-                                         ",
"                                                                                   :o+.-                                        ",
"                                                                                   $o5o-                                        ",
"                                                                                  -o45o-                                        ",
"                                                                                  O.+.5$                                        ",
"                                                                                 *6.o+5o-                                       ",
"                                                                                 @5ooo5o@$                                      ",
"                                                                                -o45o5oo.+@-                                    ",
"                                                                                @o.5o5oooo5oo$                                  ",
"                                                                               ;o4o.O5ooo5oooo+%;                               ",
"                                                                               %4+o.oo5Ooooo5oo5o@=                             ",
"                                                                               55oo.ooooooooooo6o4+%                            ",
"                                                                              -o655ooooooooooO56o.o#                            ",
"                                                                              @o55O5ooo5oooooo5oooo@                            ",
"                                                                              O5ooooooooo5Ooooooooo-                            ",
"                                                                             -oooooooo5Oooo5ooO5oo+2                            ",
"                                                                             #o5o55O5Oooooooo5oooo@                             ",
"                                                                             9.oOo5ooooo5oooooooo.%                             ",
"                                                                             ,@o4oOoooo5Oo5ooooooo:                             ",
"                                                                               =o5O55oO5o5ooooooo@                              ",
"                                                                                 85o5ooooO5oO55.o-                              ",
"                                                                                 %@+Oooooooo55+5@                               ",
"                                                                                 >.oooooooooo55+-                               ",
"                                                                                  +oooooo5o5555@                                ",
"                                                                                  @oooooo.o4@O5-                                ",
"                                                                                  %5oooo5X+O2 :                                 ",
"                                                                                  -oo5ooo4oo;                                   ",
"                                                                                   @ooO5+ooo*                                   ",
"                                                                                   $ooooooOo$                                   ",
"                                                                                   *ooO5oooo@                                   ",
"                                                                                   :ooooooooo>                                  ",
"                                                                                    O5o5ooooo-                                  ",
"                                                                                    $5+5oooo+-                                  ",
"                                                                                    @O55o5ooo@                                  ",
"                                                                                    #+555oooo+                                  ",
"                                                                                    :75+oO5oo+-                                 ",
"                                                                                     @5o5ooo5o-                                 ",
"                                                                                     @5Ooooooo$                                 ",
"                                                                                     %55oooooo+                                 ",
"                                                                                     ;oooooo5o+;                                ",
"                                                                                      @5ooooooo*                                ",
"                                                                                      @5ooooo54$                                ",
"                                                                                      %5ooooo54@                                ",
"                                                                                      -@oo5oooo@                                ",
"                                                                                       Ooooo5+5o-                               ",
"                                                                                       Ooo5o5+55@                               ",
"                                                                                       *Oooo544+@                               ",
"                                                                                       :oooo55++7                               ",
"                                                                                       <+oooooooo-                              ",
"                                            -@*                                         @oooooooo%                              ",
"                                           :@5X@-                                       $45oooooo@                              ",
"                                           O55oo62                                      %o.4ooOoo@                              ",
"                                          $5.oo.:                                       :@.ooooooo<                             ",
"                                         *O5oo5@                                         @oooooooo-                             ",
"                                        -.5o.o#                                          %oooooooo%                             ",
"                                       -oooX5$                                           *o5ooooo5+                             ",
"                                       @oooo5-                                           -55oo5ooo+                             ",
"                                      $+ooX+%                                             O55oooooo:                            ",
"                                     -+55o5@                                              @o5ooo55o*                            ",
"                                     @+XO5+;                                              @55oooo+5@                            ",
"                                    $55+oo%                                               -.ooooo64@                            ",
"                                   %o5@o.@                                                :+oooooo5+<                           ",
"                                   +Xoo5o;                                                 @55oooOo5=                           ",
"                                  $o5oo4@                                                  @5Oooo5+4-                           ",
"                                  @5o.Xo%                                                  #5o5oooo5>                           ",
"                                 %75oX4@                                                   #5ooOo5o5-                           ",
"                                <@+oo+5&                                                   $65o5oo75%                           ",
"                                %o+oooO<                                                   %oooooo75>                           ",
"                                @ooooo@                                                    05Oooooooq                           ",
"                               <Oooooo%                                                    %oooooooo-                           ",
"                               $o5oooo$                                                    *ooo5ooooq                           ",
"                               +oooooo-                                                    qoooooooo-                           ",
"                              ,ooooOo+=                                                    %5ooooooo-                           ",
"                              %5oo55o@3                                                    #o5oooooo%                           ",
"                              055oooo+                                                     @oooooo.oq                           ",
"                              $+5oo55@1                                                   *ooooooo.o-                           ",
"                              @XOooooo=                                                   +o+oooo5ooq                           ",
"                              @X5oooo4%                                                  @o.ooooooo+>                           ",
"                              O.ooo5o5$                                                 %ooooooooo47-                           ",
"                             3Ooo5oOo++-                                               $ooooooooo545-                           ",
"                             3++6oooo54@                                              @55oooooo5oOo5-                           ",
"                             -5o5oooooo5#                                           *oOo5ooooooo55++-                           ",
"                             =+5ooOooo5oO#                                        -@oooooo5oooooO5o+;                           ",
"                             &+5oo555oooooO:                                   -0@o5oooooooOo5oo55o+                            ",
"                             :+5ooooo6Ooo.oO@%                               *664X.5oo6o5O5oooooo57-                            ",
"                             3+5ooooo5ooooo.oo@@-                       --$@oooo5oo5ooooooooo4ooo++                             ",
"                              @5o5ooooO5ooooooo.4+@@$-&=       :&--%@@@ooo5o6oooooooooOooOoooooo5+%                             ",
"                              @oooooooooooooooooO5Xo+77+O5@@6O6O5Xo5o..o.5o5oooooooooo55o5ooooo5o#                              ",
"                              $ooooooo5ooooooooO55+o55oooooooooooo5o+o5oo5ooooooooO5ooooooooooo+$;                              ",
"                              %oO5ooOooOo5Ooooooo5oooooooooo5ooooooooooooooo6oo5ooooooO5oo5oooO7:                               ",
"                               75ooo5oo55Ooo5O5ooooooooooo5ooooo5oooooooo6oooooooOooOoo5ooooo.6q                                ",
"                               -oooooooo5ooo5ooOooooo5O5ooooo5Oooooooo5oO5ooooooo55o5oooooooo@-                                 ",
"                                OO6oOoooooooooo5o5Ooo5Ooo55oooooOo5ooo5oooooooO5ooooooo5oo5+@3                                  ",
"                                -@oX565ooo5Oo5oooo5ooo5oooooOo5o5oooooooo5O5o5ooooooooOooo+$                                    ",
"                                 @.Ooooo5ooooOoOOoooOooooooO5ooOooooo6oooooooooooooooo5o4o-                                     ",
"                                  $ooooooO5ooo555ooo5oooooo5ooo5ooooooooO5oo5O5O5ooooooO*                                       ",
"                                   #oo.oo.oooooo6oooooo5oooooooooOooo5oooooo5oo5565o+5@;                                        ",
"                                    %o4oOooooooooooo5ooOOoo5ooo5o5o5oooooooooooo555O@%                                          ",
"                                     :@o65ooo5oooo5oOooo5oOoO5Oooooooooo5ooo5Oo54+$:                                            ",
"                                       -O.ooo+o5ooOoo5oooo5ooooooooO55o+Oo5ooo5@*;                                              ",
"                                         %++555o55ooo5Oo55oooooooO575+oo4oooO%-                                                 ",
"                                           -$@o5oo5oooo5Ooooooooo545ooo+o#%-                                                    ",
"                                               -%$oOooOoooooOooOoo+++$$>                                                        ",
"                                                    <:&*-w-:-&&-<                                                               ",
"                                                                                                                                ",
"                                                                                                                                ",
"                                                                                                                                ",
"                                                                                                                                ",
"                                                                                                                                ",
"                                                                                                                                ",
"                                                                                                                                ",
"                                                                                                                                "
};
