/* XPM */
static char *arabic61709524309[] = {
/* columns rows colors chars-per-pixel */
"128 128 17 1 ",
"  c None",
". c #4F1647",
"X c #4F1847",
"o c #4F164A",
"O c #4F1A49",
"+ c #511547",
"@ c #511946",
"# c #51154A",
"$ c #521C4B",
"% c #561E51",
"& c #54234D",
"* c #59254F",
"= c #56294E",
"- c #562551",
"; c #5A2553",
": c #562A51",
"> c #5A2A53",
/* pixels */
"                                                                                                                                ",
"                                                                                                                                ",
"                                                                                                                                ",
"                                                                                                                                ",
"                                                                                                                                ",
"                                                                                                                                ",
"                                                                                                                                ",
"                                                                                                                                ",
"                                                                                                                                ",
"                                                                                                                                ",
"                                                                                                                                ",
"                                                                                                                                ",
"                                                                                                                                ",
"                                                                                                                                ",
"                                                                                                                                ",
"                                                                                                                                ",
"                                       &>%%#%%;;-$                                                                              ",
"                                  &$$###########O####$$#$%$;;$>                                                                 ",
"                               &$#oo##+##########o+#########+oOo%###o%%$$$--%O&>>>>-                                            ",
"                             $+#####################################+#######+#############$##$$                                 ",
"                           %+##############################################################+++$                                 ",
"                         &o##o###########################################################o#oo+=                                 ",
"                        &###################################################$#################                                  ",
"                       &.##########################################################$########+$                                  ",
"                      %##o############$+#############$############$##########################&                                  ",
"                     &###o####################$#############$###############################+                                   ",
"                    :o####################################################$#################$                                   ",
"                    o################################################################$######&                                   ",
"                   &#############$#################$#######################################o-                                   ",
"                   o+############################################################$##########                                    ",
"                  %o#######################$###############$###############################$                                    ",
"                  O+######+##########################################$#########$###########-                                    ",
"                 -#####################o##################################################$                                     ",
"                 o###oo#o#####+#o######$#########$#######################################o$                                     ",
"                :o##############$$$:>      >##################################++###+#####$-                                     ",
"                %#####o###o#O&-           &##+#############$###################+##$$&;                                          ",
"                %#####++##&             >%#########################o#######$%&*                                                 ",
"                #####+$%               -####################o##o#o####$-;                                                       ",
"               ;###$$:                $+########################+$$-                                                            ",
"               &#$&                 *+#######################O%-                                                                ",
"               :                   $###########+########+$$-                                                                    ",
"                                  $###############o###$$-                                                                       ",
"                                :$#################++&                                                                          ",
"                               -+########+######oO-                                                                             ",
"                              -+###########+###%:                                                                               ",
"                             :o#++#######+####                                                                                  ",
"                            -o############+$:                                                                                   ",
"                           :##o#########o%&                                                                                     ",
"                          >+##+#########-                                                                                       ",
"                          $###########%                                                                                         ",
"                         $####+######&                                                                                          ",
"                        %##########$-                                                                                           ",
"                        #########+$                                                                                             ",
"                       $#o#####+##                                                                                              ",
"                      -+########$                                                                                               ",
"                      $+o#####o#                                                                                                ",
"                     &#####o##O>                                                                                                ",
"                     ######+##-                                                                                                 ",
"                    $########$                                                                                                  ",
"                    ########+:                                                                                                  ",
"                   :+o######$                                                                                                   ",
"                   $#o######:                                                                                                   ",
"                   +o######$                                                                                                    ",
"                  :+#######-                                                                                                    ",
"                  ######oo#                                                                                                     ",
"                  #######o%                                                                                                     ",
"                  #######o$                                                                                                     ",
"                 >########;                                                                                                     ",
"                 -########$                                                                                                     ",
"                 $########$                                                                                                     ",
"                 $####o##o-                                                                                                     ",
"                 o#####+#o$                                                                                                     ",
"                 +########%                                                                                                     ",
"                 ######o##%                                                                                                     ",
"                $#########&                                                                                                     ",
"                ;o##+##o#oO                                                                                                     ",
"                >###+#o####                                                                                                     ",
"                ;o##+######&                                                                                                    ",
"                >#########$$                                                                                                    ",
"                %#########o+>                                                                                                   ",
"                -#+#########O                                                                                                   ",
"                 #o########o#>                                                                                                  ",
"                 ##########o#%                                                                                                  ",
"                 $############&                                                                                                 ",
"                 $#############-                                                                                                ",
"                 $#############$;                                                                                               ",
"                 -##############+;                                                                                              ",
"                 >##############+#&                                                                                             ",
"                  $#######$#####oo#$                                                                                            ",
"                  $#################$-                                                                                          ",
"                  -+###################                                                                                         ",
"                   o###############+oo##&                                                                                       ",
"                   $#+##################oo$;                                                                                    ",
"                   -#+###################o##$&                                                                                  ",
"                    $#########################+$&                                                                               ",
"                    -o#######$#####################$&                                                                           ",
"                     O+################################$$*                                                                      ",
"                     :######################$#############+$$$$+;-:                      $->>$+$%-$$*$&                         ",
"                      &#####################################.#o#oo####$O$oo+$$%#O$#$$###+###++o#####o##&                        ",
"                       O########$#####################################+oo+############+######+#####o##o$                        ",
"                        ################################$################+o####+##################++#o$                         ",
"                        -##.##################################################$#################o##$$                           ",
"                         -o###########################$###########################################$                             ",
"                          ;##############$##############################################+o#####$$                               ",
"                            $+o+##############################################################$                                 ",
"                             $##############################################################%                                   ",
"                              &o####$########################$########################o##$O>                                    ",
"                                $##+###############$##############################o##o##$                                       ",
"                                  $##o################################################$                                         ",
"                                   >#######$########################################$                                           ",
"                                      &$#o###########################$####+#######%                                             ",
"                                        --Oo############$#################o#####$;                                              ",
"                                            -%######oo####o#############+##o##$                                                 ",
"                                                -$$$####################oo#+$                                                   ",
"                                                      -%%$$$$o#oo###+####+$:                                                    ",
"                                                               &->>-$o$%%-                                                      ",
"                                                                                                                                ",
"                                                                                                                                ",
"                                                                                                                                ",
"                                                                                                                                ",
"                                                                                                                                ",
"                                                                                                                                ",
"                                                                                                                                ",
"                                                                                                                                ",
"                                                                                                                                ",
"                                                                                                                                ",
"                                                                                                                                ",
"                                                                                                                                "
};
