/* XPM */
static char *arabic251709524308[] = {
/* columns rows colors chars-per-pixel */
"128 128 27 1 ",
"  c None",
". c #BF4F0F",
"X c #BD500E",
"o c #BF4E15",
"O c #BE4F19",
"+ c #BD5014",
"@ c #BC521C",
"# c #BC581F",
"$ c #BC5523",
"% c #B75C25",
"& c #BB5925",
"* c #B7572C",
"= c #BC562A",
"- c #B75C2D",
"; c #BB5B2C",
": c #B75D33",
"> c #BB5E32",
", c #B56037",
"< c #BB6133",
"1 c #B5633B",
"2 c #B96139",
"3 c #C14E0F",
"4 c #C04E14",
"5 c #C04E19",
"6 c #C0531E",
"7 c #C0562B",
"8 c #B76A47",
/* pixels */
"                                                                                                                                ",
"                                                                                                                                ",
"                                                                                                                                ",
"                                                                                                                                ",
"                                                                                                                                ",
"                                                                                                                                ",
"                                                                                                                                ",
"                                                                                                                                ",
"                                                                                                                                ",
"                                                                                                                                ",
"                                                                                                                                ",
"                                                                                                                                ",
"                                                                                                                                ",
"                                                                                                                                ",
"                                                         =O;                                                                    ",
"                                                        >ooo+=                                                                  ",
"                                                        o34oo4o@;                                                               ",
"                                                       =o4++44.4+6;                                                             ",
"                                                      &+o.o4oo4444o$=                                                           ",
"                                                      @oooooooOoooo44@=                                                         ",
"                                                     &ooooo44oooooo+ooX++>                                                      ",
"                                                    >ooooooOOoooooo44444o+@;                                                    ",
"                                                    @Oooooo4ooO4o4oooo44oooo$;                                                  ",
"                                                   &O4o4Oooo4ooooooooooooooo.$                                                  ",
"                                                  <o3+ooo4ooO4ooooooooooOoo.@                                                   ",
"                                                  @oo.oooOooooooooo4ooooooo+>                                                   ",
"                                                 ;ooo4ooo4oooo5o4oooooooo.o=                                                    ",
"                                                 @ooooooooooooooOoooooooo.@                                                     ",
"                                                @4ooooooooo4oOoooooooooo4o;                                                     ",
"                                               >4+o4oooooooo4o4oo4ooooooo&                                                      ",
"                                                $+X3oooo4oooooooo4ooooo.@                                                       ",
"                                                  -+o4344ooooooooOo4oOo.-                                                       ",
"                                                    ;$@ooooo45o4ooo.+44$                                                        ",
"                                                      >=oooo44@4ooo.o4+                                                         ",
"                                                         $@o4++4oooo3o-                                                         ",
"                                                           -++45oooo4#                                                          ",
"                                                             >@5ooo4@<                                                          ",
"                                                                =+oo;                            8                              ",
"                                                                  &*                             %-                             ",
"                                                                                                 o@                             ",
"                                                                                                %44=                            ",
"                                                                                                +4X+;                           ",
"                                                                                               ;+o44@                           ",
"                                                                                               @4+4oo;                          ",
"                                                                                               @o.44o+                          ",
"                                                                                              ;Oooo43+$                         ",
"                                                                                              @ooooo4+4<                        ",
"                                                                                             ;ooooo4+Xo@                        ",
"                                 >@>                                                         $oooo44+45o>                       ",
"                                 @4o@2                                                       @ooo4OooooO$                       ",
"                                @4o4oo=                                                     &4ooooooooo+5<                      ",
"                               =+oX444%                                                     @.ooo5oooooo5$                      ",
"                              ;.o44+.@                                                     <+o4oooooooo4o@                      ",
"                              @XoO45@>                                                     #oooooooooo444@2                     ",
"                             $oooo4+&                                                      ++X4oOo4Ooo+54+-                     ",
"                            =4o44o4@                                                      &o+3ooo4ooo44543@                     ",
"                           ,o4oX43@                                                       #oo+4o4ooo4oOo4o@                     ",
"                           @34o3++;                                                       %+4oooooO4oooo4.O                     ",
"                          =++o443$                                                         @ooooo4oooooo+oO                     ",
"                         ;o++344@                                                          ;oooooOooooo4oo4<                    ",
"                         @3.4+++;                                                           $.ooO4ooo4oooo+-                    ",
"                        @o43ooX@                                                             @oooooooO4oo4o;                    ",
"                       ;@.o+@3o2                                                             ;ooo4oooooo44+&                    ",
"                       +44.4o4*                                                               @4oO4ooooO44+7                    ",
"                      =oooo.+@                                                                <o3oooooooooo=                    ",
"                     >+oooo44>                                                                 $o3oooooooo.$                    ",
"                     @oooo44@                                                                   @o+oooooooo$                    ",
"                    &+oooo@+;                                                                   =o.oooooooX$                    ",
"                    @3ooooo$                                                                     +.oooooooo$                    ",
"                   <oooo4oo>                                                                     =ooooooooo#                    ",
"                   +o4oooo@                                                                       oooooooo+$                    ",
"                  <+oOoo.o;                                                                       #oooooo4.$                    ",
"                  $4oo..45                                                                        ;@ooooooo$                    ",
"                 <44oo.346                                                                         @ooooooo#                    ",
"                 $4O44ooo@                                                                         $oooooo.$                    ",
"                 @oooo4+4>                                                                         7o+44oo.$                    ",
"                >+ooo44oO                                                                           @444ooo#                    ",
"                =oooooo.5                                                                           @+44oo.$                    ",
"                #ooooooo@                                                                           @454ooo$                    ",
"                O4oooooo@                                                                           @++4ooo#                    ",
"               >o.ooooooO                                                                           $oX4o44$                    ",
"               $3oooooooO                                                                           @oo4o4X$                    ",
"               $34Oo4oo4@                                                                           @oX4oo+$                    ",
"               $4oooooO4+>                                                                         <ooo4oo4$                    ",
"               @44OoooO4X$                                                                         =33oo+oo;                    ",
"               +4ooooo4O4@                                                                         +ooOo4oo;                    ",
"              <ooo4oooo44@&                                                                       $4ooooooO&                    ",
"              >4oooooo5oX4O>                                                                     ;34ooo+4oO-                    ",
"              :5ooooooooo44O                                                                    &ooooooo4+o<                    ",
"              ;ooooooooo4oo.$                                                                  =5.4oooo5ooo                     ",
"              ;.4Oooooooooooo@:                                                               @ooooooooO+o@                     ",
"              -ooooooooooooo4.@&                                                            7@oooooooo4ooo@                     ",
"              ;ooooooooooo44Xooo@>                                                        ;$oo4o4Oooooo4oo#                     ",
"              -X3oooo4Ooooooooo4oo%;                                                    >$44+o4oooooO4oo4o&                     ",
"               +4ooooo4o4ooOoooooooo@;                                                =@4ooooooooo4ooooo4O<                     ",
"               @4oooO4ooOoo4ooo+oooooo6$>                                          $@@4X.4o4oooo4oooooo4o@                      ",
"               %oooooooooooO4oo55ooo4..4OO@=                                   =@OO4oo5554ooo4ooOoo5oooo+#                      ",
"               ;4o+ooooOoooooooooooooooooooooO@$><                        ;$$@55oooo444OoooooOo44ooooooo+<                      ",
"                44ooooooo4O44ooooooooooooooooo..ooo@@@$$=%=$;&;;;&%@7@@$5@o.ooooooooooo4oooooooooO4oO4o4@                       ",
"                =4oooooooooooO4oo5ooooooooooooooooooooo44ooo4o4444o4.4o..3ooooo5oooooooooo5oooO4oooooooO;                       ",
"                 +ooo.ooOoooooO45oooooooooooOooooo4oo4ooooo.o.oo4+o4oooooooooooooooo5oooooO4oO4ooo4ooooO                        ",
"                 &ooo.oo5oooooooooooo5ooooooooooooooooooo5oooooo4ooo5oooo4oooooooooooooooooooooooooo4oO>                        ",
"                  @4ooooooO4ooooooo5oooooooooooooo4Oooo4ooooooooo4oooo4O4oooo5oooooooo4O4oooooooooo4oo$                         ",
"                  1@3ooooooo4O4ooooooooooo4ooo4oooooooooooooooooooooooooooO4oooooooOooooooO4oooo4o4o+=                          ",
"                   <@Oooooooooooooo4ooo5oooOooOoooooooooooo5oooooooooOoo4ooooOO5oooo4O4oo4oooooo4oo+@                           ",
"                    -+4o54oooo4o4ooOooooo4o4oo44oooo4oO4oooooo5ooo4Oo4o4Ooooo4ooooO4ooooOooo4Ooo45o#                            ",
"                     ;@33oo.ooooOoo4ooooO4ooooooOoooOooo4ooooooooooooooOooO4oOooooooooooooooo4oo4+$                             ",
"                       =oooo4ooo4ooO5ooooooo4OO44oo44oo4Ooooo5oo4oooooo44oooo4o4O4ooo4Oooooooooo+;                              ",
"                        ;5oo45O4ooooO4ooooO4oooooooo4OoOooO4oooooooOoooooO4oO4oooooo4oooo44o4X@&                                ",
"                          $@443oooooooooooooooooooooooooo4oo4oo5oo4oo5ooooooooooooooO44o.3oo+$                                  ",
"                            #@o4ooo4o4O4oo4oo4ooo5oo4O4oooooO4oOoOo4ooooooo4o4oooOooooooo@@;                                    ",
"                              =OOooOooooo4oOooo4ooooooooO4ooooooo4oo54Oo4OoOoooooooooooo$;                                      ",
"                                >$@+o+344ooo+oo44ooo4ooo4oooO4o4o4Oo3oo.oo4o44oo+Oo@@77                                         ",
"                                    %$@@oooo444+.oooOoooOooooooOoo4o.oooo.+oo+++@$;                                             ",
"                                        ;=$@@ooooooooo4ooo5oo444oooo44o++@@@%;                                                  ",
"                                              <;$@$$$@@$@@5@@@@@$@$@$;;>                                                        ",
"                                                                                                                                ",
"                                                                                                                                ",
"                                                                                                                                ",
"                                                                                                                                ",
"                                                                                                                                ",
"                                                                                                                                ",
"                                                                                                                                ",
"                                                                                                                                ",
"                                                                                                                                ",
"                                                                                                                                ",
"                                                                                                                                ",
"                                                                                                                                "
};
