/* XPM */
static char *arabic161709524306[] = {
/* columns rows colors chars-per-pixel */
"128 128 23 1 ",
"  c None",
". c #771F6F",
"X c #781F6E",
"o c #771F71",
"O c #791E70",
"+ c #76226D",
"@ c #78206E",
"# c #762A6D",
"$ c #792B6E",
"% c #76326E",
"& c #7A336E",
"* c #76396B",
"= c #762170",
"- c #792470",
"; c #772B70",
": c #792C71",
"> c #763670",
", c #7B3372",
"< c #7C3C74",
"1 c #7F3579",
"2 c #7F4276",
"3 c #803778",
"4 c #833B7C",
/* pixels */
"                                                                                                                                ",
"                                                                                                                                ",
"                                                                                                                                ",
"                                                                                                                                ",
"                                                                                                                                ",
"                                                                                                                                ",
"                                                                                                                                ",
"                                                                                                                                ",
"                                                                                                                                ",
"                                                                                                                                ",
"                                                                                                                                ",
"                                                                                                                                ",
"                                                                                                                                ",
"                                            *                                                                                   ",
"                                            +@#                                                                                 ",
"                                           $@=+%                                                                                ",
"                                           @+X@<                                                                                ",
"                                          :@@oX#                                                                                ",
"                                          +@oX@X:                                                                               ",
"                                         :@XXX@XX#                                                                              ",
"                                         +XX@@@@@o@:                                                                            ",
"                                        ,=O+X@@XXX@@@$                                                                          ",
"                                        +@@@@@@XXX@+XX+#,                                                                       ",
"                                        ++@@@@@@+XX@+@@X@$$                                                                     ",
"                                       ,oX@XX@@@XX@@@@@@@@@+#%                                                                  ",
"                                       :oXXX@@@@X+X@@@@XXX+oXo,                                                                 ",
"                                       +XXX@@@X@+@@@@@@@XX@X.=                                                                  ",
"                                      ,@+@@@@@@@XX@@X@@@@@@@X+                                                                  ",
"                                      #XX@@@@@@@@@@X@@@@@@@@=$                                                                  ",
"                                      +XX@@@X@@@@X@+@@X@@X@@@$                                                                  ",
"                                      @X@@X@@@@@@@@@@@@@@@X+@1                                                                  ",
"                                     %XX@@@@@@@X@@@X@@@@XXX+@                                                                   ",
"                                     -o@@@@@@@@X@@@X@@@@XX@X+                                                                   ",
"                                     ,+@@@@X@@@@@@@@@@@@XXoX%                                                                   ",
"                                       :+@@@@X@@X@@@@@X@X+X+                                                                    ",
"                                         #X@@@@@@@@@@@@@XXX#                                                                    ",
"                                         1XX@@@@@@@@@@@@XOX,                                                                    ",
"                                          +O@@@X@@@X@X@XXO#                                                                     ",
"                                          #X@@@@@@@@@@XXO@&                                                                     ",
"                                          ,@X@@@X@@XX@@@X+                                                                      ",
"                                           ++@@@X@@@+X++O$                                                                      ",
"                                           +@@@@@@@@XX1,#                                                                       ",
"                                           :@@@@@@@XX@&                                                                         ",
"                                           <X@X@@@@@XX$                                                                         ",
"                                            +XXX@@@@@=+                                                                         ",
"                                            #XXXX@@@@@@                                                                         ",
"                                            $XXX@@@@XX@,                                                                        ",
"                                             +X+@@@XX@@:                                                                        ",
"                                             #XX+X@@XXX+                                                                        ",
"                                             ;+X+X@@@O@+                                                                        ",
"                                             1+XX@X@@=@@3                                                                       ",
"                                              +X@@@@@@@@$                                                                       ",
"                                              #X@@@@@@@@$                                                                       ",
"                                              ;@@@X@@@@@@                                                                       ",
"                                              ,@@@@@X@@@@                                                                       ",
"                                               @X@@@@@@@@&                                                                      ",
"                                               +X@@@@@@@X$                                                                      ",
"                                               ;X@@@@@@Xo$                        ,:+@==@+@+$&&                                 ",
"                                               :X@@@@@@@=+                      %+@X=@@@@@@XXX@+:                               ",
"                                               :@X@@@@@@@@                   ,;@XXX@@@@@@@@@@X@XX=;,                            ",
"                                               :@@@@@@@@@+                 1-@XXXOX@@@@@@@@@@X@oXX@=;                           ",
"                                               <@@@@@@@@=-                #@-XXXXXXX@@@@@@@@@@@@XX@X@#                          ",
"                                                +@@@@@@@@=              :@X@@@@@@@@@@@@@@@@@@@X@X@@@@o-                         ",
"                                                +@@@@@@@@@            %@X+@@@X@@@@@@@@@@@@@@@@@@@@XXo@X#                        ",
"                                                @XXX@@@@@=          %#XX+X@@X@@@@@@@@@@@@X@@@@@@X@@XXXXX$                       ",
"                                                ;X@XX@@@@+         #@X+XXX@@@@@@X@@@@X@@@@@@@@@@@@@@XX@@+,                      ",
"                                                ;XXX@@X@@+       $@XXX@@X@X@@@@X@@@X@@@X@@@@@X@@@@@@@@@XX+                      ",
"                                                #XXX+@@@@-      #XX=+X@@X@@@@@@@@@@@@@@@@X@@@@@@@@X@@@@@X@<                     ",
"                                                $XXX@@@@@+    :@X@X@+XX@@@@@@@@@@@@@@@@@@@@@@@@X@@@@@@@@XX;                     ",
"                                                :XXX@@@@@#  &#@O@@XXXX@@@@@@@X@@@X@@@@X@@@X@@@@@@@@@@X@@@O+                     ",
"                                                1+XX@@@@@: #XX@@X@@@XX+@X@@X@@@@@@@@@@@@@@@@@@@@X@@X@@@@@X+                     ",
"                                                :XXX@@@@@;+@o@@@@@@@+XX@@@@@@@@X@@@@X@@@X@@@@X@@@@@@@@X@X@+                     ",
"                                                :+XXX+XX@XXX@X@@@@@@@@@@@@@@@@@@XX+X+X@@@@@@@@X@@@@X@@X@X@X1                    ",
"                                                #+.XXXX+XXXXX@@X@@@@@XXXXXX@XX+@XXXXXXXX@@XX@@@@@@@@@@@@X@X#                    ",
"                                                #XXXX@+X@@@X@@@@X@@X@@@=@@X+++@++#$@+XX@Xo@@@@@@@X@@@@@@+XX+                    ",
"                                                +XXXX@@X@@@@@@@@@@@@@@@OX@+:,        &$$@XX@@X@@@@@@@X@@XX++                    ",
"                                                +XXXX@@@@@@@@X@X@X@@XX@+%                ,:-@X@@@@X@@@@@@X++                    ",
"                                                +X+@@@@@@X@@@@XXXX@@@#,                     ,-XX@XXX@X@@@X++                    ",
"                                               -@@@@@@X@@@@@Xo@+XX=-&                         ,+XXXX@@@X@XX+                    ",
"                                             ,#X@@X@@@@@@@@@X@@@X$                              #X+X@@@@@XX+                    ",
"                                            ;OXX@@@@@@X@@@@@@XX+>                                XXX@@X++X++                    ",
"                                          >+=@@@@@X@@@@@XX+X@@,                                  $+X@@XXXX++                    ",
"                                         :@@@@@@@@@@@@@@@@o@$                                    @XX@@X+XX++                    ",
"                                       ,+=@@@@@@@X@X@X@@=@#                                     &=XX@XX++X@+                    ",
"                                      $X@XX@@@@@X@@+@X@@@,                                      +@@@XX+XXXX+                    ",
"                                    ,+XXX@@@X@@@+XXX@X@&                                      ,+@@@@X+X++X++                    ",
"                                  1+=O@X@@X@@@@XX@=OX+3                                     :-XX@@@@+XX+..X+                    ",
"                                 ;+X@=XX@@@@@@@@@O@+%                                   &:-@X@XO@@@@X+XX+.++                    ",
"                               #+X..+XX@@X@@@@@@@X@3                           3:,,$$+@@@XX@@XXX@@@@@@@XXXX+                    ",
"                   4--@@+$++++@+X@@@X@@@@@@@@X@@@@@@++@-@-+$++++++$+++-@$++@@@+@@@XX@X=@@@@@@XX@@@X@@@@@+.X+                    ",
"                   4O@@@-@@@=@@@@@@@@@@@@@@@@@@@@@X@@@@@@@@@@@@@@@@@@@@@@@@@@@@@X@X@@@@XX@@@@@@@X@@@X@@@..++                    ",
"                   4O@@@@@@@@@@@@@@X@@@@@@@X@@X@@@@@@@@@@@@@@@@X@@@@@X@@@@@@X@@@@@@@@@@@@@@@@@@X@@@@@@@@+.++                    ",
"                   4X@@@@@@@@@X@@@@@@@@@@@@X@@X@@@@@@@@@@@@@@@@@@X@@@@@@@@@@@@@@@@@@X@@@@@@X@@@@@@@@@@@@@XX+                    ",
"                   4OX@@@@X@@@@@@X@@@X@X@@@@@@@@@@@@@@@@@@@@@@@@@@@@@X@@@@@@@@@@@@@@@@@@@@@@@@@@@X@@@@X@@XX+                    ",
"                   4O@@@@@@@@@@@@@@@X+@@@@@@@@@@@@@@@@@@@@@@@X@@@@@@@@@X@@@@@@@@@X@@@@X@@@@@@@X@@@@@@@@@XX#+                    ",
"                   4X@@X@@@@@X@@@@X@@@@@@X@@@X@@@@@@@@@@@@@@@@@@@@@X@@@@@@@@@@@@@@@@@@@@@X@@@@@@@@@@X@@@@XX+                    ",
"                   4OXXXXXX+XX+X@@@@@@@@X@@@@@@@@@X@@@@@@@@@@@X@@@@@@@@@@@@@@@X@@@@@X@@@@@X@@@@@@X@@@@@@+XX+                    ",
"                   4OXXXXXXX+X@@@@@X@@@@@@@@@@X@@@@@@@X@@@X@@@@@@@@X@@@@@X@@@@@@X@@@@@@@@@@@@@@X@@@@@X@@.XX+                    ",
"                   43X@XXXXX@@X@X@@@@X@@@@X@@@@@@@@@@@@@@@@@@@@@@X@@X@@X@@@@@@@@@@X@@@@@@@@@@X@@@@@@@@@@+.++                    ",
"                   4X@@@XXXX@@@@@@@@@@@@@@@@@X@@X@@@X@@@@X@@@X@@@@@@@@@@@@@@X@@@@@@@@@X@@X@@@@@@@@X@@@X@.+++                    ",
"                   4-@@@@@@@@@@@@@@@@@@@@X@@@@@@@X@@@@@@@@X@X@@@@@@@X@@@X@@@@@@@@@X@@@@@@@@@@@X@@@@X@X@@@XX+                    ",
"                   4O@@@X@@@X@@@@@X@@@@@@@@@@X@@@@@@@@@@@@@@@@@@@@@X@@@@@@@@@@@X@@@@@X@@@@X@@@@@@@@@@@@@@XX+                    ",
"                   4O@@@+XX@@@@@@@@@X@@@@@@@@@@X@@@@@@X@@@@@@@X@X@@@@@X@@@@X@@@@@@@@@@@@@@@@@@@@@X@@@@@@@X@+                    ",
"                   4O@@@@@@@@@@X@X@@@@@@@@@X@@@@@@X@@@@@@@X@@@@@@@@@@@@@@@@@@@@@@X@@@@@X@@@@@@@@@@@@@X@@XX++                    ",
"                   4OXX@XX@XX@XX@XX@XXXXX@XXX@X@XXXXXXXXXXXX@XXXXXX@XXXXXXXXXXXXXXXXXXX@@XXXXXXXXXXXXXXXOX@+                    ",
"                   4o@@@XXO@@OXX@=XOo@@=XOX=XO@=X...X@oX@o.X=@X=XXo@Xo@X=@XoXX=@XXX=XoXXO@@oXX=@XX@XX=oX@@.+                    ",
"                   2@@-@@@+-@-=@=@-+@@-@@=+-=@-@-+@=@--@@-=@=@-+@=+-+==@@-@-=@-@@=+-@-=@+-=@=@-@@-@@+-@-@@+#                    ",
"                                                                                                                                ",
"                                                                                                                                ",
"                                                                                                                                ",
"                                                                                                                                ",
"                                                                                                                                ",
"                                                                                                                                ",
"                                                                                                                                ",
"                                                                                                                                ",
"                                                                                                                                ",
"                                                                                                                                ",
"                                                                                                                                ",
"                                                                                                                                ",
"                                                                                                                                ",
"                                                                                                                                ",
"                                                                                                                                ",
"                                                                                                                                ",
"                                                                                                                                ",
"                                                                                                                                ",
"                                                                                                                                ",
"                                                                                                                                ",
"                                                                                                                                "
};
