/* XPM */
static char *arabic141709524306[] = {
/* columns rows colors chars-per-pixel */
"128 128 28 1 ",
"  c None",
". c #06779E",
"X c #09769E",
"o c #04789C",
"O c #0D789D",
"+ c #12769D",
"@ c #1A769C",
"# c #13789D",
"$ c #1C799C",
"% c #23779B",
"& c #237A9D",
"* c #2B7B9C",
"= c #337D9C",
"- c #397F9D",
"; c #0577A0",
": c #0A76A0",
"> c #1077A0",
", c #1279A1",
"< c #1C7BA1",
"1 c #237CA0",
"2 c #2A7EA0",
"3 c #327EA0",
"4 c #2E809F",
"5 c #33819D",
"6 c #2380A0",
"7 c #2C80A1",
"8 c #3480A0",
"9 c #3880A3",
/* pixels */
"                                                                                                                                ",
"                                                                                                                                ",
"                                                                                                                                ",
"                                                                                                                                ",
"                                                                                                                                ",
"                                                                                                                                ",
"                                                                                                                                ",
"                                                                                                                                ",
"                                                                                                                                ",
"                                                                                                                                ",
"                                                                                                                                ",
"                                                                                                                                ",
"                                                                                                                                ",
"                                                                                                                                ",
"                                                                                                                                ",
"                                                                                                                                ",
"                                                                                                                                ",
"                                                                                                                                ",
"                                                                                                                                ",
"                                                                                                                                ",
"                                                                                                                                ",
"                                                                                                      ***=                      ",
"                                                                                                   &@@OX++@&-                   ",
"                                                                                                  &#oXXXXX.X+*                  ",
"                                                                                                =+XXXX...;.X;X%                 ",
"                                                                                               &:+XXXXXX.XXXO+X*                ",
"                                                                                              &X..XXXXXXXXX.XO.X=               ",
"                                                                                             &X..XXX.XXXXXXX::X.$               ",
"                                                                                            $:XXXXXXXXXXXXXXX;.:>2              ",
"                                                        =                                  %X;XXXX.XXX.X.XXXXX.X;#              ",
"                                                        &&                                &X;.XXXXXXXXXXXXXXXXX.O+              ",
"                                                        #$                               @;;;;XXXXXX.XXXXXXXXXX.X;1             ",
"                                                        O+                              @X;X;X.XXXXXX.XXXXXX.XX.OX@             ",
"                                                       &+;*                            @X.+XXX.X.XXXXXXXX.XXXXX.XO+             ",
"                                                       $X;&                           @XXXXXXXXXXXX.XXXXXXXXXX.XXXX             ",
"                                                       +::+                          @XXXXXXXX.XXXXXXX.XXXXXXXXXXXX*            ",
"                                                       X.X.&                        @XXXXXX.XXXXXXXXX.XXXXXXXXXXXX.$            ",
"                                                      1XX:X#                       #;+XXXXXX.XXXXXXXXXXXXXXX.XXXXXO#            ",
"                                                      <XX:XX                      @.X+.XXXXXXX:XOO...OOOXX:XXX:XXX.+            ",
"                    $#                                #.XXXX&                    #>..XXXXX:..X:O+>,@<>O+XX+X.XXXXXX+            ",
"                    +:#                               >;XXXX#                   ,;>XXX.XXXXXX:,&       3<>XXXXXXXX.+            ",
"                   &+XX                              *:OXXX:O                  +XO+::XXX.XX:+=            &++XXXXXXX            ",
"                   OXX$                              &X:XXX;X                 +OO+.:X.XXXX+&               3+XXX.XXO            ",
"                  &o::*                              @XXXXX.O&               @O..:XXX+X..+=                 =+XXXXXO            ",
"                  +O+,                               +X.XXX.X&              +XXXXXXX;:X.@8                   &.:X.XX            ",
"                 *;XO@                              2>X.XXX.:&             +..XXXXXXX;.+                      +X:XXX            ",
"                 @X;:                               *XXXXXXXX@            ++XXXXXXXX+O%                       %X.XXX            ",
"                *XX.1                                +XX+XXXX,          =@OO.XXXX.XXO*                        ,:XXX+            ",
"                <.OO3                                @.OXXX.X+         =#+O.XXXXXXXX&                        %>XXXXX            ",
"                O:;+                                 &;:XXX.X+        5#XXXXXXXX;@+&                         %>XXXXX            ",
"               #O:.$                                  +;.XX.X+       3#XXXXXXXX..+2                         *XXXXXXX            ",
"               OO:O                                   &OXXX..X      *OX.O#XX.XXX+*                         $X;X.XXXO            ",
"              &XO.#                                   1XXXX.X+     &O+XXOXXXXX.+*                       =$+XXO..XXXX            ",
"              $XXX1                                    +.X+.X>-  2#XXXXXX.X..X.$                   *4*$OXX:XXXXXXXXX            ",
"              +..X                                     @:XXX+;++@XXXXXXXXXXX;OO+&#@#@@@+@@@#@#@@++#X;X..OXXX.XXXXXXO            ",
"             1..;@                                     2XXXoX:X.X..XXXXXXXXXXX+XXXXXXOX.XXOXO:+XX:;;;o;;XXXXXXXX.XXX            ",
"             #XXX*                                      @X...X+X:XXXXXXXXXXXXX.:;;X;:::::;;;;:;;::+XXO..XXXXXX.XXXXX            ",
"             XXX+                                       <OXX;...XXXX.XXXX.XXX.;+X..X......X...X.XXX...XXXXX.XXXXXXX+            ",
"            1XXX<                                       1OXXX..XXXX;XXX.XXXXXXXXXXXX.XXXXXXXXXXXXXXXXXXXXX.XXXXXXXXX            ",
"            $OX.&                                        +XXXXXXXXXXXXXXXXX.XXXXXX.XXXXXXXXXXXXXXXXXXXXXXXXXX.XXXXXX            ",
"            +XXX=                                        #XXXXXXXXXXX.XXXXXXX.XXX.XXXXXXX.XXX.XXXXXXX.XX.XXX.XXXXXXX            ",
"           2OX++                                         &X.XXXXXXXXXXXX.XXXXXXXXXXX.XXXXXXXXXXX.XXXXXXXXXXXXXXXXXXO            ",
"           1OXX#                                         *X.XXXXXXXXXXXXXXX.XXXXXXXXXXX.XXXXXXXXXXX.XXXXXX.XXX.XXXXX            ",
"           $XXX@                                          +:XXXXXX.:XX.XXXXXXX.XXX.XXXXXXX.XXX.XXXXXXX.XXXXXXXXXXXXO            ",
"           O.X+@                                          @X.XXXXXXX.XXX.XXXXXXXXXX.XXX.XXXXXXXXXX.XXXXX.XXXXXXXXXXO            ",
"           O.;+<                                          @XXXXX.XXX:XXXXXXXXXXXXXXXXXXXXX.XXXX.XXXXXXX.XXXXX.XXX.XX            ",
"          &OX.X<                                          XXXX.XXXX.XXX.XX.XXXXXX.XXX.XXXXXX:.XXXXXX.XXXXX.XXXXXXXXO            ",
"          &XX:X+                                          +.XXXXXXXXXXXXXXXX;XXXXXXXXXXX.XXXXXX.X.XXXXXXXXXXXXX.XXXO            ",
"          $:XXX&                                          #:.XXXX.XXX.XXXXXXXXXXXXX.XXXXXXX.XXXX.XXXXXXX.XXXXXXX.XXX            ",
"          @OXXX@                                          @XXXXXXXXXXXXXXXXXXXXXXXXXXXXXXXXXXXXXXXXXXXX.XXXXXXXXXXX>            ",
"          #OXXO<                                          +XXXX.XXXXXXXXX;XXXX;XXXXXXXXXXXXXXXXXXXXXXXXXXXXXXXXXXXXX            ",
"          +;XX.@                                          >XXXX:XXXXXXXXXXXXXXXXXXXXXXXXXXXXXXXXXXXXXXXXXXXXXXXXXXXX            ",
"          +XX.X+                                         2OXXO&%$$$&$$$&@@$&@&$@$$%$$&$$$&$$%$$&@%$$&$$$%$$%$$&$@&@*            ",
"          @:XX.+                                         $X:X#                                                                  ",
"          +XX:.+&                                        O++.+                                                                  ",
"          X.XX.X+                                       $.X+.X                                                                  ",
"          XXXX.XO*                                      XXXXX$                                                                  ",
"          OXXXXX.+                                     $.XX+X,                                                                  ",
"          .XXXXXO.$                                   $OXXXX:@                                                                  ",
"          XXX.XXXX.$                                 %+.XXX.:&                                                                  ",
"          XXXXXXX.XX%                               $+XXXXXX.&                                                                  ",
"          +XXXXXXX:X:+=                           *#OO;XXXXXO1                                                                  ",
"          OX.XXXXX.XO++*                         *X..XX.XXXX+*                                                                  ",
"          #XXXXXXXXXX+;O@&                     &+.X>XXXXXXX:O                                                                   ",
"          $XXXXXXXX.X;XX:X@<&              -1$+:OO+X..XXXXX+#                                                                   ",
"          %XXXX.XXXXX+X.OX,X:+@$&6&11621$@+OXXO;O+X..XXXXXXX&                                                                   ",
"           OX.XXX.XXX;.X+;;XXX.:OXX....XOXXXX.XX..;.XXXX.;XX2                                                                   ",
"           +XXXXXXXX.X.XXX.XXXXXO.XXXX.XX:XXXXXXXX.XXXXXXXX#                                                                    ",
"           <,+XXXXXX.XXXX.XXX.XXX.XX.XXXXXXXXXXXXXXXX.XXX+:*                                                                    ",
"            OXXXXXXXXXXXXXXXXXXXXXXXXXXXX.XXX.XX.XXXXXX..o+                                                                     ",
"            &+:XXXXXXX.XXXXXXXXXXXXXXX.XXXXXXXXXXXX.XXX...%                                                                     ",
"             #XXX>XXXXXXXX.XXX.XXX.X:XXXXXX.XXX.XXXXXXX.X+                                                                      ",
"             *XXXXXXX;XXXXXXXXXXXXXX.XXX.XXXXXXXXXXX..+OO&                                                                      ",
"              $XX.XXXXXX.XXX.XXX.XXXXXXXXXXXX.XXXXXXoO.:@                                                                       ",
"               $>>XXXXXXXXX.XXX.XXX.XX.XXX.XXXXXXXXX.X;<                                                                        ",
"                @.XXXXXXXXXXXXXXXXXXXXXXXXXXXXX.XXXXXX@                                                                         ",
"                 $+X.O+X.+X;XXXXXXX.XXXXXXX.X.XXX.,::%                                                                          ",
"                  *+#Xo.X.X.XXXXXXXXXX.XXXXXX;;.X.o+1                                                                           ",
"                    &,.XO;..XXX.X.O.:XXXX.XXXXXXXO#                                                                             ",
"                     8&OOO..XXXXXX.O.XXXXXXXXXX#$5                                                                              ",
"                        *&@+XXXXOXX..O.XXXOX@&=                                                                                 ",
"                            =3%%1$++,$&$%*4                                                                                     ",
"                                                                                                                                ",
"                                                                                                                                ",
"                                                                                                                                ",
"                                                                                                                                ",
"                                                                                                                                ",
"                                                                                                                                ",
"                                                                                                                                ",
"                                                                                                                                ",
"                                                                                                                                ",
"                                                                                                                                ",
"                                                                                                                                ",
"                                                                                                                                ",
"                                                                                                                                ",
"                                                                                                                                ",
"                                                                                                                                ",
"                                                                                                                                ",
"                                                                                                                                ",
"                                                                                                                                ",
"                                                                                                                                ",
"                                                                                                                                ",
"                                                                                                                                ",
"                                                                                                                                ",
"                                                                                                                                ",
"                                                                                                                                ",
"                                                                                                                                ",
"                                                                                                                                "
};
