/* XPM */
static char *arabic201709524307[] = {
/* columns rows colors chars-per-pixel */
"128 128 30 1 ",
"  c None",
". c #BF4F0E",
"X c #BD500E",
"o c #BF4E15",
"O c #BE4F18",
"+ c #BD5014",
"@ c #B7561F",
"# c #BC521C",
"$ c #B9581E",
"% c #B55524",
"& c #BC5523",
"* c #B65A27",
"= c #BB5925",
"- c #B15629",
"; c #BB572A",
": c #B45A2C",
"> c #BB5A2B",
", c #B65C31",
"< c #BA5D33",
"1 c #B95D38",
"2 c #B9612B",
"3 c #BC6133",
"4 c #BC6239",
"5 c #C14E0D",
"6 c #C04E14",
"7 c #C14E19",
"8 c #C05015",
"9 c #C0521B",
"0 c #C15B25",
"q c #C2693E",
/* pixels */
"                                                                                                                                ",
"                                                                                                                                ",
"                                                                                                                                ",
"                                                                                                                                ",
"                                                                                                                                ",
"                                                                                                                                ",
"                                                                                                                                ",
"                                                                                                                                ",
"                                                                                                                                ",
"                                                                                                                                ",
"                                                                                                                                ",
"                                                                                                                                ",
"                                                                                                                                ",
"                                                                                                                                ",
"                                                                                                                                ",
"                                                                                                                                ",
"                                                                                                                                ",
"                                                                                                                                ",
"                                                                                                                                ",
"                                                                                                                                ",
"                                                                                                                                ",
"                                                                                                                                ",
"                                                                                                                                ",
"                                                                                                                                ",
"                                                                                                                                ",
"                                                                                                3                               ",
"                                                                                               $o&                              ",
"                                                                                              2+o++=                            ",
"                                                                                              &o+.oo#=                          ",
"                                                                                             <6ooO6ooo&<                        ",
"                                                                                             ;ooooooo6o#;                       ",
"                                                                                            1+5oooooo6.o6O=                     ",
"                                                                                            &+6ooooooo66ooo+=                   ",
"                                                                                           <+6+66ooooooo6oooo#3                 ",
"                                                                                           &6oooooooooooooooo+<                 ",
"                                                                                          >+6ooooooooooooooo6&                  ",
"                                                                                          @6oooooooooooo6ooo#                   ",
"                                                                                         256ooooo6oOoooooo6o&                   ",
"                                                                                         #o6oooooOo6ooooO6o#                    ",
"                                                                                        >7Ooooooo6ooooooo6.&                    ",
"                                                                                        :+66ooooooooooo66#O                     ",
"                                                                                          ;o+oo7oooooo6ooo&                     ",
"                                                                                           4@7o6oo++ooooo+                      ",
"                                                                                             >@66ooooooo.;                      ",
"                                                                                               =#.5+oooo9                       ",
"                                                                                                 >96oo6o;                       ",
"                                                                                                   &++6#                        ",
"                                                                                                     ;+;                        ",
"                                                                                                      2                         ",
"                                                                                                                                ",
"                                                                                                                                ",
"                                                                                                                                ",
"                                                                                                                                ",
"                                                                                                                                ",
"                                                                                                                                ",
"                                                                                                                                ",
"                                                                                                                                ",
"                                                                                                       1                        ",
"                                                                                                   =$#o+O#=                     ",
"                                                                                                 ,+o6oooo5o@1                   ",
"                                                                                                #.5o6ooooo5o+<                  ",
"                                                                                               #ooOo6ooo6o5o6+                  ",
"                                                                                              #.oooo6oo6oo+o+6@                 ",
"                                                                                             #o.oooooooOooOo66o1                ",
"                                                                                            %.6ooooooooooooOo65O                ",
"                         $#>                                                               ;o+66+oo6oooo6oooo6oo<               ",
"                         #oX#                                                              #oooooooooooooooo6ooo&               ",
"                        ;o66#                                                             $+.ooooooo6oO6O6ooooo68               ",
"                        #o5o=                                                            ,+ooooooooooO6o6oooooooO>              ",
"                       =o66+                                                             #5ooooooO6oooooOooooooo6=              ",
"                       @ooo#                                                            >Xo6oooo6o6oooooooo66Ooo6#              ",
"                       #o6O=                                                            #++6ooooooOooooooooooooo+9              ",
"                      =6O+#                                                            >ooooooooooooooooOoooooo6oO              ",
"                      #66+#                                                            #6oooooooooOooo6oo6oo6ooOoo<             ",
"                     3+766=                                                           3+oooooooooo6ooooooooooooooo=             ",
"                     &6o66                                                            &ooooo6Oo6o##Oo665OoooO6oooo&             ",
"                     &o.69                                                            #ooooooo5#>   :#66oooooooo5o#             ",
"                    <o.oo&                                                           >o.oooooX6>     <+66ooooooooo#             ",
"                    @...o>                                                           =6.6ooooo&       =+66oooooo6o8             ",
"                    #oo.#                                                            #6o6ooooO9        &6O6oO6oo6+o             ",
"                   <#6oo#                                                            #666ooo6o#        <oOoo6ooo8o+,            ",
"                   =oooo#                                                           <#.+ooooo6#<        O.O66oooooo3            ",
"                   #oooo#                                                           =ooooooooo5+        ;6ooooooooX;            ",
"                   #6ooo&                                                           &+56o6oo.o6o$<       O.oooooo65;            ",
"                  >+oooo#                                                           &oooO6oooo6O6+>      ;o.ooooo+.=            ",
"                  >o6ooo#                                                           &6oooooooooo66o#=    =7oooooooo=            ",
"                  ;o6ooo#                                                           &oooooo66Ooo67o.++$<  +Ooo6oooo#            ",
"                  #Oooooo>                                                          #6ooooooooooo6oo6656+&o+6ooo6o+@            ",
"                  #+6ooo8$                                                          &6.ooooooooooooo+o6oo6oo6ooo+oo;            ",
"                  #6oooo6+                                                          $+oooooo6oooooooooooO6oooooooo6&            ",
"                  +o6oooXO&                                                         &666OoooooooooooooooooOo6oooo+6#            ",
"                 *oooooo+6O<                                                        46+6oooooooooooooooooo6oooooXo6$            ",
"                 3ooooo6o5o#<                                                        &X+Ooooooooo6oOooooooooooooooo#            ",
"                 3+oooooooooo=                                                        &6ooooooooooo66ooooooo6oooooo#            ",
"                 *6ooooooooo+O#=                                                       =+oooooooooooooO6ooooOoooo66#            ",
"                 %oooooooooo56o589<                                                    q=oo6oooo6Ooooooo6Oo6ooo6O66#            ",
"                 @ooO6oooooO6OoooooOOO;>                    >31<-=;;&O#O&##O#OOOO##OOOOOOOo6o6oOoooooooooooooooo76oO            ",
"                 %oo6oooooooo6oooooooOooo#O#$&0&&##$&&##&O#oo7Oo7o6ooO7o6oOoOoo7oooooooo6oooooo6ooo7ooooooooo6ooo6OO            ",
"                 >oo6oooooooooooooooooooooo+....6666o+6+6.o.ooo666ooooO67oooooooooooooo6ooO6ooooooooooooooooooooo7OO            ",
"                 <o.oooo6Oo6oooooooooooo..56oooo6+o+6667o6666ooOooooooooooooooooooooooooooooooooooooO6ooo6oooooooOOO            ",
"                  o6oooooo6ooooOooo7o6oO6oooooooo66ooooooooooOoooOoooooooooooooooooooooOooooooOoo6oOooooooooooooO7OO            ",
"                  8.ooooOoooooo6ooooooo6ooooooooooooooooooooo6ooo66ooooooooooooooooo6Oo6ooo6oo6oooo66oooooooooo7o6oO            ",
"                  #5ooo66oOoooooooooooooooooooooooooooooooooo7oooooo6ooooooooooooooooooooooOooo6ooooOoooooooooooo7oO            ",
"                  ;ooooooo6ooooooooo7Oooooooooo66oooooo6ooooooooooooooO6oO6ooo7ooooooooooo6ooooooooo6oooo7ooooooo7oO            ",
"                  >+ooooooooo6Oooo6oo6ooooooo6oOOo6o6oooooooooo6oOo6ooooooooooooOooooooOo7ooooOooO6oooooooo7ooooo7oO            ",
"                   #+o.+ooooooooooOoooooooooooo6ooooOooooo7ooooOo6oooo6Ooooo7oooooooooo6ooooooo6ooooooooooooooooO6o&            ",
"                   =o+O5oooooo6oooooooOo7ooooOooOooooooooooooooOoooOoooooooooooooooooooooooooooooOoooooooooo6oooo66O            ",
"                    +5+oooooooooo6Oooo6oooooo6oo6oooo6oOoooo6oo6ooo6oooooo7ooooooooooO6oooooooooo6ooo7ooooooooooO6O#            ",
"                    ,++ooooooO6oooooooooooooooooooooooo6oooooooo7ooooOoooooooooooooo6oooooOoooooo6ooooooooooooooo66O            ",
"                     =+ooooooooo6ooooooooooo6Oooooo6Oooooo6oooooooooo66ooooo6oooo6oOooooo66oooooooooooooooooooooO6O#            ",
"                      #Xoo6.oooooooooOooooooooooo6Oo6ooooo6oooOoooooo6oo6oooOoooooo6oooooooooooooooo7oooooooooooO6OO            ",
"                       %+Xo66O6oO6ooo66oO6oooooooooooooooooOoo6ooooooOooOoo6oo6Ooooooo6OooooooooooO6oooo7ooo7oooo7OO            ",
"                        19666oooooooooooooo66oooooooooo6ooooo676ooooooooooo6oooooo6ooo6oooo666Oooo6+ooooooo6ooooo6oO            ",
"                          <#6oo7ooo66Oooo.Xo6666oooooooo66oo++66oooo6oooooo6o6ooo6oo+o666ooo6#ooooo7oOOoOoo#o#ooOoO#            ",
"                            =$7o6666666.6666o+6+oooooo66oo556666o6oo6oooo+7######&0=#@#$&=00040<,::::-:----:::::-::,            ",
"                               ,;&@#Ooooo+oo6666.oooO##&##&&$#@=;>>;--<q                                                        ",
"                                     3:*=;>>>*-:333                                                                             ",
"                                                                                                                                ",
"                                                                                                                                ",
"                                                                                                                                ",
"                                                                                                                                ",
"                                                                                                                                ",
"                                                                                                                                ",
"                                                                                                                                ",
"                                                                                                                                ",
"                                                                                                                                ",
"                                                                                                                                ",
"                                                                                                                                "
};
