/* XPM */
static char *arabic31709524308[] = {
/* columns rows colors chars-per-pixel */
"128 128 20 1 ",
"  c None",
". c #9E2E8F",
"X c #9C348F",
"o c #9E3B8F",
"O c #9F2C93",
"+ c #9E3392",
"@ c #9E3B93",
"# c #A02B94",
"$ c #A03393",
"% c #A13C94",
"& c #A23498",
"* c #A23D98",
"= c #9D428F",
"- c #994B8F",
"; c #9D4293",
": c #9F4994",
"> c #9C4198",
", c #A0418E",
"< c #A14295",
"1 c #A34298",
/* pixels */
"                                                                                                                                ",
"                                                                                                                                ",
"                                                                                                                                ",
"                                                                                                                                ",
"                                                                                                                                ",
"                                                                                                                                ",
"                                                                                                                                ",
"                                                                                                                                ",
"                                                                                                                                ",
"                                                                                                                                ",
"                                                                                                                                ",
"                                                                                                                                ",
"                                                                                                                                ",
"                                                                                                                                ",
"                                                                                                                                ",
"                                                                                                                                ",
"                                                                    @$                                                          ",
"                                                                    O&%                                                         ",
"                                                                   @OOO+:                                                       ",
"                                                                   @OOOO+o                                                      ",
"                                                                   OOOOO#OX                                                     ",
"                                                                  @OOOOOOOO+>                                                   ",
"                                                                  OOOOOO#OO##@                                                  ",
"                                                    :            %OOOOOO###O##+                                                 ",
"                                                    ++:          @OOOOOOOOO#OOO.;                                               ",
"                                                   %##O%         +OO#OOOOOOOOOO#O=                                              ",
"                                                   @OOOO@       @#O#OO#OOOOOOOOOO                                               ",
"                                                   #OOOO#O:     O#OOOOOOOOOOOOOO$                                               ",
"                                                  $#O#OOO#O@   >OOOOOOOOOOOO#O#O,                                               ",
"                                                  +OOOOOOOOO@  @#OOOOOOOO#OOOOO+                                                ",
"                                                 %OOOOO#OOOOOO@O#OOOOOOOOOOOOOO$                                                ",
"                                                 +#OOOOOOOOOO##OOOOO#OOOOOOOOOO                                                 ",
"                                                 O#OOOOOOO#OOO##OO#OOOOO#OOOOO@                                                 ",
"                                                XOOOOOOOOO#O#OO#O###OOOOOOO#OO<                                                 ",
"                                                O##OOOOOOOOO##O#OOO##OOOOOO#O#                                                  ",
"                                               *OOOOOOOOO#OOOOO##OOOOOOOOOOOO*                                                  ",
"                                               +OOOOOOOOOOOOOO#@+O#OOOOOOOOOO                                                   ",
"                                              <####OOOOOOOOO##O  @OOO#OO##OO@                                                   ",
"                                              @OOOOOOOOOOOOO#OO    @OOOOOO#O                                                    ",
"                                              OOOOOOO#O#OOO#OO@     @O##OO#O                                                    ",
"                                             @#OOOOOOOOOOOOO#$        @O##O%                                                    ",
"                                             ##OOOOOOOOOOOOOO@         @+#O                                                     ",
"                                             @O#OO##OOOOO#O#O            $@                                                     ",
"                                              @+#OOO##OOOOO#@                                                                   ",
"                                               1+##OO#OOOO##%                                                                   ",
"                                                 @##OOOOOO#X                                                                    ",
"                                                  ;O###OO#O@                                                                    ",
"                                                    OO#OO#O                                                                     ",
"                         :                           @OO#O+                                                                     ",
"                        @O>                           <OOO*                                       ;;                            ",
"                        O#O@                            ++                                        @+                            ",
"                       %#OOO@                            :                                        $O@                           ",
"                       +##OO@                                                                     ##@                           ",
"                      @O#OO#                                                                     @OOO%                          ",
"                      $#O#&+                                                                     #OOO@                          ",
"                     ;###OO                                                                      #OO#O                          ",
"                     @OO#OO                                                                     %OOO##X                         ",
"                     OOO#O@                                                                     @OO###+                         ",
"                    &OOO#O                                                                      OOO##.#>                        ",
"                    #OOOO+                                                                     @OOOO###@                        ",
"                   1OOOOO*                                                                     @OOO#O##.                        ",
"                   $##OOO                                                                      $OOOOO#OO%                       ",
"                   OO#O#+                                                                      OOOOOOOOO@                       ",
"                  1OOO##+                                                                     $O.OOOOOOO+                       ",
"                  +OOOOO@                                                                     @#OOOOOOO#&                       ",
"                  +OOOOO                                                                      O#OOOOOOO#O*                      ",
"                  OOOO#O                                                                     o##OOOOOOOOO&                      ",
"                 @OOOO#O                                                                     +O#OOOOOOOOOO                      ",
"                 $#OOO#@                                                                     &###OOOOO#OOO                      ",
"                 &#OOO#+                                                                     OO#OOOOOOOOO#                      ",
"                 OOOO##%                                                                     O#OOO#OOOOOO&                      ",
"                 OOOO##@                                                                     @OO#OOOOOOOOO@                     ",
"                @#OOOOO@                                                                      OOOOOOOOO##O+                     ",
"                %OOOOO#+                                                                      *##OOOOOOOO#@                     ",
"                $OOOO##@                                                                       @OOOOOOO###@                     ",
"                $#OOO##$                                                                       >OOOOOOOOO#@                     ",
"                O##OOO#O                                                                        OOOOOOOOO#+                     ",
"                +#OOOOOO                                                                        @O#O#OOO##+                     ",
"                OOOOOO#O%                                                                        @OO#OOO#O#                     ",
"                OOOOOO#O+                                                                        @#OOOOO#O#                     ",
"                OOOOOOOOO                                                                         OOOOOO#O&                     ",
"                OOOOOOOOO$                                                                        &OOOOOOOO                     ",
"                OOOOOOOOOO<                                                                       *OOOOOOO+                     ",
"                OOOOOOOOOO$                                                                        +OOOOOOO                     ",
"                O#OOOOOOO#O+                                                                       +OOOOOOO                     ",
"                O#OOOOOOOOOO@                                                                      >OOOOOOO                     ",
"                #OO#OOO#OOOOO+<                                                                     OOOOOO+                     ",
"                .OOOOOOOOOOO##.@1                                                                   OOO&OOO                     ",
"                #OOOOOOOOOOOOO###+@<                                                                @#OOOOO                     ",
"                OOOOOOOOOOOOO##O#OOOO++$@><<<1                                                      *##OOO+                     ",
"                +OOOOOOO#OOOOOOO#OOOOOOO#OOOOOO+O+OOOOOO+OOOO+OOOOO+OO+OOO+OOO+OOOO+OOOOOOO+OOOO+#+OOOOOOO+                     ",
"                o#OO#OOOOOOOO#OOOOOO#OOOOOOOOO######&#O####################&O&OO&###OOO&###&&OOO####OOOOOOO                     ",
"                @OOOOOOOOOOOOOOOOOOOOOOOOOOOOOOOOOOOOOOOOO+O.OOOOOOOOOO+OOOOOOOOOOOOOOOOOOOOOOOOOOOOOO#OOOO                     ",
"                <OOOO#OOOOOOOOOOOOOOOOOOOOO##O##OOOOOOOOOOOOOOOOO+OOOOOOOOOOOOOOOOOOOOOOOOOOOO&OOOOOOOOOOOO                     ",
"                 OOOOOOOOOOOO#OOOOO##OOOOOO####OO&OOOOOOOOOOOOOOOOOOOOOOOOOOOOOOOOOOOOOOOOOOOOOOOO#OOOOOOOO                     ",
"                 #OOOOOOOOO#OOOOOOOOOOOOOOOOOOOOOOOOOOOOOOOOOOOOOOOOOOOOOOOOOOOOOOOOOOOOOOOOOOOOOOOOOOOOOO+                     ",
"                 *OOOOOOO##OOOOOOOO.####O#OOOOOOOOOOOOOOO#OO#OOOOOOOOOOOOOOO#.OO#OOOOOOOOO#OOOOOOOOOOOOOOOO                     ",
"                  OOOOOOOOOOOOOO#OO#OO#.OOOOOOOOOOOOOOOOOOOOOO#OOOOOO#O#OOOO##.OOOOOOOOOOOOOO#OOOOOOOOOOOO+                     ",
"                  OOOOOOOOOOOOOOOOOO#O#O#O#.OOOOOOOOOOOO#OO###O.OOOOOOOO.#OO.##O.OOOO#OOOOOOOOOOOOOOOOOOOO+                     ",
"                  @O#OOOOOOOO#OOO#OOOOOO.O##O#OOOOOOOOOOOOOO.#O#OOOOOOO#OO####OOOOOOOOOOOOOOOOOOOOOOOOOOOOO                     ",
"                   O#OOOOOOOOOOO#OOOOOOO#OOOOOOOOOOOOOO#OOOOO#OOOOOOOOO#OOOOOOOO#OOOOOO#O#OO#OOOOOOOOO#OOOO                     ",
"                   @OOOOO#OOOOOOOOOOOOOOOOOOOOOOO#OOOOOOOOOOOOOOOOOOOO.#O#OO#O#OOOOOOOOOOOOOOOOOOOOOOOOOOOO                     ",
"                   <OOOOOOOOOOOOOOOO#OOOOO#OOOOOO.O##OOOO#OOOOOOOOOOOOOOOOOOOOOO#OOOOOO#OOOOOOOOOO#OOOOOOOO                     ",
"                    +OOO##OOOOO#OOOOOOOOOOOOO#OO.#OOOOO#OOOOOOOOOOOOOOOO#OOOO#OOOOOOOOOOOOOOOOOO#OOOOOOOOO+                     ",
"                     .OOOOOOOOOOOOOOO##OOOOOOOOO####OOOOOOO#OOOOO#O#OO#OOOOOOOOOOO#OO#OOOOO#OOOOOOOOOOOOOOO                     ",
"                     oO#OOOOOOOOOOOOOOOOOOOOOOOO#.O#OOOOOOOOOOOOOOOOOOOOOOOOOOOO#OOOOO#OOOOOOO#OOOOOOOOOOOO                     ",
"                      XO##OOOO#OOOOOOOOO#OOOOOOOOO#OO#OOOOOOOOOOOOOOOOO#OOOOOOOOOO##O#.#OOO#OOOOO#OO#OOOOOO                     ",
"                      <.OOOOOOOOOO#OOOOOOOOOO##OOOOOOOOOOOOOOOOOO#O#OOOOOOOOOOOOOO.#OOO#OOOOOOOOOOOOOOOOOO+                     ",
"                       %O##O#OOOOOOOOOOOOOOOOOOOOOOOOOOOOOOO#OO#OOOOOOOOOOOO#OOOOOOOOOO.OOOOOOOOOOOOOOOOOOO                     ",
"                        @OO##OOOOOOOO#OOOOOOOOOOOOO#OOOOO#OOOOOOOOOOOOOOOOOOOOOOOOOOO###OOOOOOOOOOOOOOOOOO+                     ",
"                         %#.#OOOOOOOOOOOOOOOOOOOO#OOOOOOOOOOOOOOOOOOOOOOO#OOOOOO#OOO.##OOOOOOOOOOOO#OO#OOOO                     ",
"                          %OOOOO#OOOOOOOOOO#OOOOO.OOOO#OOOOOOOO#OOOOOOOOOOOOOOOOOOOO#OOOOO#OOOOOOOOOOOOO#OO                     ",
"                            @+#OOOOOOOOOOOOO#OOOOOOOOOOOOOO#OOOOOOOOOOOOOOOOOOOOOOOOOOOOOOOOOOOOOOOOOOOOOO+                     ",
"                              %@+##O#O#OO##OOO########O&#########OO#####O##########O##############O##O####O                     ",
"                                 >@@++++O+OOO++#+#OOOOOOO+O++O+#OOOO+#OO+#O+O#O++#O#+#O+O#+OOO&+O+#$$#$##OO                     ",
"                                                                                                                                ",
"                                                                                                                                ",
"                                                                                                                                ",
"                                                                                                                                ",
"                                                                                                                                ",
"                                                                                                                                ",
"                                                                                                                                ",
"                                                                                                                                ",
"                                                                                                                                ",
"                                                                                                                                ",
"                                                                                                                                ",
"                                                                                                                                ",
"                                                                                                                                "
};
