/* XPM */
static char *arabic271709524308[] = {
/* columns rows colors chars-per-pixel */
"128 128 18 1 ",
"  c None",
". c #3ED556",
"X c #3ED559",
"o c #41D557",
"O c #44D45A",
"+ c #4AD35C",
"@ c #4DD361",
"# c #53D264",
"$ c #59D167",
"% c #55D369",
"& c #5BD26A",
"* c #61CF6F",
"= c #61D26E",
"- c #65CF70",
"; c #6BCF75",
": c #75CE7D",
"> c #65D271",
", c #6AD174",
/* pixels */
"                                                                                                                                ",
"                                                                                                                                ",
"                                                                                                                                ",
"                                                                                                                                ",
"                                                                                                                                ",
"                                                                                                                                ",
"                                                                                                                                ",
"                                                                                                                                ",
"                                                                                                                                ",
"                                                                                                                                ",
"                                                                                                                                ",
"                                                                                                                                ",
"                                                                                                                                ",
"                                                                                                                                ",
"                                                                                                                                ",
"                                                    =#&%#&&#&&>                                                                 ",
"                                                 =@+@OOOOOOOOOOO#&                                                              ",
"                                               &@OoOOOOOOOOOO+OoOO+@=                                                           ",
"                                             >@OOOOOOOOOOOOOOoOO+O+oo@=                                                         ",
"                                            =OX+OOOOoOOOOOOOOOOOoooOOOO&                                                        ",
"                                           $+OoOOOOOOOOOOOOOOOOOOOOOOOOoO-                                                      ",
"                                          $OoooOOOOOOOOOOOOOOOOOOOOOOOoX+O#                                                     ",
"                                         %X++OOOOOOOOOOOOOOOOOOOOOOOOO+XOOO$                                                    ",
"                                        &oOOoOOOOOOOOOOOOOOOOOOOOOOOOOOOOO+o$                                                   ",
"                                       &..@OOOOOOOOOOOOOXOOOOOOOOOOO@XXOOO.OO#                                                  ",
"                                      >OO+OoOOOOOOOOOOOOOOOOOOOOOOOOOOOOOOOOO++                                                 ",
"                                     ,@XOOXOOO@XOOOOOOOOOOOOOOOOOOOOOOOOOOOOOX+@                                                ",
"                                     #OoOOOOOOOOOOOOOOOOOOOOOOOOOOOOOOOOOOOOOOOO                                                ",
"                                    %OOOOOOOOOOOOOOOOOOOOOOOOOOOOOOOOOOOOOOOOoO&                                                ",
"                                   &oOOOOOOOOOOOOOOOOOOOOOOOOOOOOOOOOOOOOOOOoO%                                                 ",
"                                   @o+XoOOOOOOOOOOOOOOOOOOOOOOOOOOOOOOOOOOOOO@                                                  ",
"                                  #OOOOOOOOOOOOOOOOOOOOOOOOOOOOOOOOOOOOOOOoO@%                                                  ",
"                                 &O+OOOOOOOOOOOOOOOOOOOOOOOOOOOOOOOOOOOoOOoo%                                                   ",
"                                 ++OOOOOOOOOOOOOOOOOOOOOOOOOOOOOOOOOOOO+OOo#                                                    ",
"                                #oOOOOOOOOOOOooOOOOOOO@OOOOOOO+oOOOOOOOoOO+,                                                    ",
"                               ;o+OOOOOOOOOOoO++OO+OOO..XOOOOOOOOOOOOOOOoO&                                                     ",
"                               @o+oOOOOOOOOOo+OXoO@OO+OoOOOOOOOOOOOOOOO+o#                                                      ",
"                              $OOOoOOOOoOOOOOX+&&&   =$#+OOoOOOOOOOOOoO++,                                                      ",
"                             =+OOOoOOOO+Oo+OX@           &@@+ooOOoOOOO+O#                                                       ",
"                             #oOOOOOOOO++OOO&              %++o+OoOOOOO#                                                        ",
"                            =OOOOOoOOOOO++O$                 #OO+OOOOO@>                                                        ",
"                            ++OOOOOOOOOo+o+                   >+O+OOOO&                                                         ",
"                           &oOOOOOOOOOO+.O+                    >@XOoo#                                                          ",
"                           +O+OOOOOOOOO+.OO                      @o+O                                                           ",
"                          &oX+XOOOOOOOOOo+o&                      @+&                                                           ",
"                          ++.@XOOOOOOOOOoo++,                      =                                                            ",
"                         $+Oo+OOOOOOOOOOOOOo#                                                                                   ",
"                         #OOOOOOOOOOOOOOOOOO+O                                          %&#@@@+&                                ",
"                        &oOOOOOOOOOOOOOOOOOOXO#&                                  %@@@@O+OO+OO+                                 ",
"                        #o+OOOOOOOOOOOOOOOOOO@XO#                             #$@OOO@OOOOOOoo+#                                 ",
"                        +O+OOOOOOOOOOOOOOOOXOOXOO@=                        &@OOOXO@OOOoOOOO+++&                                 ",
"                        OoOOOOOOOOOOOOOOOOOOOOOO+oX#=                   &#+oOOOOOOOOOOOOOOOOOO                                  ",
"                       >OOOOOOOOOOOOOOOOXOOOOOOOOooOO#=              &@@oX.@@OOOOOOOOOOOOOOOO&                                  ",
"                       >O+OOOOOOOOOOOOOO@OOOOOOOOO+OO+o#>         >&+ooOOXOOooOOOOOOOOOOOOOOO>                                  ",
"                        ++oOOOOOOOOOOOOOOOOOOOOOOOOOOOOO+@&     &#+OOOOOOOOOOOOOOOOOOOOOOOOO#                                   ",
"                        @OoOOOOOOOOOOOOOOOOOOOOOOOOOOOOOOOo@&=%@oOoOOOOOOOOOOOOOOOOOOOOOOOOO&                                   ",
"                        &OOOOOOOOOO@OOOOOOOOXOOOOOOOOOOOoXOOOoOOOOOOOOOOOOOOOOOOOOOOOOOOOOO@                                    ",
"                         +.OOOOOOOOXOOOOOOOOOOOOOOOOOOOOOOO+X@OOOXOO@OOOOOOOOOOOOOOOOOOOOo+#                                    ",
"                         &O++oOOOOOOOOOOOOOOOOOOOOOOOOOOOOOOOOOOOOOOXOOOOOOOOOOOOOOOOOOOOO+,                                    ",
"                          $oO+oOOOXOOOOOOOOOOOOOOOOOOOOOOOOOOOOOOOOOOOOOOOOOOOOOOOOOOOOoOO+                                     ",
"                           +o+OOOOOOOOOOOOOOOOOOOOOOOOOOOOOOOOOOOOOOOOOOOOOOOOOOOOOOOOOO@o&                                     ",
"                           ,OoO+OOOOOOOO@OOOOOOOOOOOOOOOOOOOOOOOOOOOOOOOOOOOOOOOOOOOOOOOO@                                      ",
"                            =+OOOOOOOOOOXOOOOOOOOOOOOOOOOOOOOOOOOOOOOOOOOOOOOOOOOoOOOOOOo%                                      ",
"                             =+OXoOOOOOOOOOOOOOOOOOOOOOOOOOOOOOOOOOOOOOOOOOOOOOOOOOOOOOO+=                                      ",
"                              >#OOOOOOOOOOOOOOOOOOXXOOOOOOOOOOOOOOOOOOOOOOOOOOOOOOOOOOOo#                                       ",
"                               >@OooOOOOOOOOOOOOOOO@OOOOOOOOOOOOOOOOOOOOOOOOOOoOOOO+OoO+&                                       ",
"                                =@OOOOOOOOOOOOOOOOOOOOOOOOOOOOOOOOOOOOOOOO+++O++oo+O+@#&                                        ",
"                                 =@oOOOOOOOOOOOOOOOOOOOOOOOOOOOOOOOOOOOOOOOO.o+O+@#&                                            ",
"                                   @oOOOOOOOOOOOOOOOOOOOOOOOOOOOOOOOOOOoOOOO+#&&                                                ",
"                                    #O+oOOOOOOOOOOOOOOOOOOOOOOOOOOOOOOOoO+#&                                                    ",
"                                     @OOOXOOOOOOOOOOOOOOOOOOOOOOOOOO+OO#=                                                       ",
"                                      %XOX@OOOOOOOOOOOOOOOOOOOOOOOOO#=                                                          ",
"                                      &XOOOOOOOOOOOOO@XOOOOoO+oO+#=                                                             ",
"                                     >+OOOOOOOOOOOOOOXOOOOOOOO+#                                                                ",
"                                    >OOOOOOOOOOOOOOOOOOOOOoO#$                                                                  ",
"                                    OoOOOOOOOOOOOOOOOOOOOo@&                                                                    ",
"                                   @@OOOOOOOOOOOOOoOOOOO@&                                                                      ",
"                                  %OOOOOOOOOOoOOOOO+oOO%                                                                        ",
"                                 &OOOOOOOOOOOOOOO+o.O@                                                                          ",
"                                ,@OOOOOOOOOOOOOO++.@>                                                                           ",
"                                %XOOOOOOOOOOOOOO.O$                                                                             ",
"                               &.O+OOOOOOOOOOX+o+>                                                                              ",
"                              ,O.+OoOOOOOOOOOOO#                                                                                ",
"                              %+OOOOOOOOOOOOOX@                                                                                 ",
"                             #oOOoOOOOO+OOOOO=                                                                                  ",
"                             @oOOOOOOOOOoO+O>                                                                                   ",
"                            %OOOOOOOOOOO+.@                                                                                     ",
"                            @oOOOOOOOOOOO#                                                                                      ",
"                           &+OOOOOOo+O+O#                                                                                       ",
"                           $+OOOOOOO.oO%                                                                                        ",
"                           #OOoOOOo++.%                                                                                         ",
"                           OoOOOOOOoO$                                                                                          ",
"                          >O.O+oXoO+#                                                                                           ",
"                          &++OooO++%                                                                                            ",
"                          &.O+O+O+&                                                                                             ",
"                          :%+OOO+&                                                                                              ",
"                             >$@-                                                                                               ",
"                                                                                                                                ",
"                                                                                                                                ",
"                                                                                                                                ",
"                                                                                                                                ",
"                                                                                                                                ",
"                                                                                                                                ",
"                                                                                                                                ",
"                                                                                                                                ",
"                                                                                                                                ",
"                                                                                                                                ",
"                                                                                                                                ",
"                                                                                                                                ",
"                                                                                                                                ",
"                                                                                                                                ",
"                                                                                                                                ",
"                                                                                                                                ",
"                                                                                                                                ",
"                                                                                                                                ",
"                                                                                                                                ",
"                                                                                                                                ",
"                                                                                                                                ",
"                                                                                                                                ",
"                                                                                                                                ",
"                                                                                                                                ",
"                                                                                                                                ",
"                                                                                                                                ",
"                                                                                                                                ",
"                                                                                                                                ",
"                                                                                                                                ",
"                                                                                                                                ",
"                                                                                                                                "
};
