/* XPM */
static char *arabic71709524309[] = {
/* columns rows colors chars-per-pixel */
"128 128 19 1 ",
"  c None",
". c #4F1647",
"X c #4D1B47",
"o c #4F154A",
"O c #4E1A49",
"+ c #521547",
"@ c #51154A",
"# c #521B4B",
"$ c #561F50",
"% c #591F51",
"& c #54224D",
"* c #59254F",
"= c #56284F",
"- c #562551",
"; c #592552",
": c #562A51",
"> c #5A2B52",
", c #573153",
"< c #612E5A",
/* pixels */
"                                                                                                                                ",
"                                                                                                                                ",
"                                                                                                                                ",
"                                                                                                                                ",
"                                                                                                                                ",
"                                                                                                                                ",
"                                                                                                                                ",
"                                                                                                                                ",
"                                                                                                                                ",
"                                                                                                                                ",
"                                                                                                                                ",
"                                                                                                                                ",
"                                               :;                                                                               ",
"                                              :o@+#&                                                                            ",
"                                              o@@@@@+#-                                                                         ",
"                                             @@@@@@@@@@@#-                                                                      ",
"                                            #@@@@@@@@@@@@@@$-                                                                   ",
"                                           &@@@@@@@@@@@@@@@@@##-                                                                ",
"                                          =@@@@@@@@@@@@@@@@@@o@@:                                                               ",
"                                         -+@o@@@@@@@@@@@@@@@@@@&                                                                ",
"                                        >#@@@@@@@@@@@@@@@@@@@@#                                                                 ",
"                                        @@@@@@@@@@@@@@@@@@@@@#                                                                  ",
"                                       #+o@@@+@@@@@@@@@@@@@@#>                                                                  ",
"                                        -#o@@oo@@@@@@@@@@@@@:                                                                   ",
"                                           *##@@o@@@+@@@@@@-                                                                    ",
"                                              ##@@@@@@@@@@#                                                                     ",
"                                                 -#@@@@@@o                                                                      ",
"                                                    $#+@$                                                                       ",
"                                                       -                                                                        ",
"                                                                                                                                ",
"                                                                                                                                ",
"                                                                                                                                ",
"                                                                                                                                ",
"                                                                                                                                ",
"                                 --##$#@@@#@@@#$#@@-$#-;&-                                                                      ",
"                             -$##+@o@@o@@@@@@@@@@oo@@@@@o@@+@@@$@######-&;####;>>;:-OXXOO                                       ",
"                           ##+@@+o@@@@@#@@o@o@@@@@@@+@#@o@@@@@+@@@@@@@@@+@@@@@@@@@@@o#o@o&                                      ",
"                         -@@@@@@@@@@@@@@@@@@@@@@@@@@@o+@@@@@@@@@@@@@@@@@@@@@@@@@@@@@@@@o.>                                      ",
"                       -#oo@@@@@@@@@@@@@@@@@@@@@@@@@@@@@@@@@@@@@@@@@@@@#@@@@@@@@@@@@@@+o#                                       ",
"                      -oo@@@@@@@@@@@@@@@@@@@@@@@@@@@@@@@@@@@@@@@@@@@@@@@@@@@@@@#@@@@@@@+*                                       ",
"                     &@@o@@@@@@@@@@@@@@@@@@@@@@@@@@@#@@@@@@@+#@@@@@@@@@@#@@@@@@@@$@@@@@+                                        ",
"                    &+@@@@@@@@@@@@@@@@@@@@@@@@@@@@@@@@@@@@@@@@@@@@#@@@@@@@@@@@@@@o@@@@@#                                        ",
"                   -@oo@@@@@@#@@@@@@@@@@@@@@@@@@@@@@@@@@@@@@@@@@@@@@@@@@@@@@@@@@@@@@o+o>                                        ",
"                  >+@+@@@@@@@@@@@@@@@@@@@@@@@@@#@@@@@@@@@#@@@@@@@@@@@@@@@@@@@@@@@@@@@@#                                         ",
"                  #@@@@@@@@@@@@@@@@@@@@@@@@@@@@@#@@@@@@@@@@@@@@@@@@@@#@@@@@@@@@@@+o.@@#                                         ",
"                 ;oo@@@@@@@@@@@@@#@@@@@@@@@@@@@@@@@@@@@#@@@@@@@@@@@@@@@@@@@@@@@@+@oo@@,                                         ",
"                 #@o@@@@o@@@@@o+@#+####&--#@@@@@@@@@@@@@@@@@@@@@@@@@@@@@@@++@@@@o@@+@#                                          ",
"                :o@@@@@@@@@@o#-&         ;#@@@@@@@@@@@@@@@@@@@@@@@@@@@@@@@@@@@@@#$;&;                                           ",
"                &+@o@@@o#&&            -@@@@@@@@@@@@@@@@@@@@@@+@@o@@+#o&O--                                                     ",
"                Xo+o+#-              =#@@@@@@@@@@@@@@@@@@@@@@@@#$#$-                                                            ",
"               <O##=               >#o@@@@@@@@@@@@@@@@@@@@###;                                                                  ",
"                                  #+@@@o@@@@@@@@@@@o@@@$-                                                                       ",
"                                #@@@o@@@@@@@@@+@@#o$-                                                                           ",
"                               oo@@@@@@@@+o@@+@#$                                                                               ",
"                             -@@+o@@@@@@@@@@#&                                                                                  ",
"                            &+@@@+@@@@@@@+#:                                                                                    ",
"                           &@@@@@@@@@@@##                                                                                       ",
"                          #+@@@@@@@@@##                                                                                         ",
"                         #o@@o@@@@@o&                                                                                           ",
"                        #o++@@@@o+#                                                                                             ",
"                       #@o@@@@o@@-                                                                                              ",
"                      -@@@@@@@+#:                                                                                               ",
"                     >#@@@@@@@@                                                                                                 ",
"                     O@@@@@@++                                                                                                  ",
"                    -o@+@@oo+                                                                                                   ",
"                    @@@+@@@@:                                                                                                   ",
"                   -@@@@@@@#                                                                                                    ",
"                   o@@@@@@O                                                                                                     ",
"                  :o@@@@@@$                                                                                                     ",
"                  &+@@@@@@-                                                                                                     ",
"                  .oo@@@@+                                                                                                      ",
"                 :@@o#@@@#                                                                                                      ",
"                 &@@@@@@@#                                                                                                      ",
"                 #@oo@@@@-                                                                                                      ",
"                 #+o@@@@@$                                                                                                      ",
"                 #@o@@@@@#                                                                                                      ",
"                 +@o@@@@@o                                                                                                      ",
"                 @@o@@@@@o-                                                                                                     ",
"                 +@@@@@@@@#                                                                                                     ",
"                 +@@@@@@+o+>                                                                                                    ",
"                 +@@@@@@@@@#                                                                                                    ",
"                 #@@@@@@@@@@&                                                                                                   ",
"                 #oo+@@@@@@@+:                                                                                                  ",
"                 #@@@@@@@@@o@+;                                                                                                 ",
"                 -@@@@@@@@@@@@@-                                                                                                ",
"                 >@@+@@@@@@@@@@@&                                                                                               ",
"                  #o@@@@@@@@@@@@@o&                                                                                             ",
"                  -+@@@@@@@@@@@@@@o#&                                                                                           ",
"                  >#@@@@@@@@@@@@@@@@@@-                                                                                         ",
"                   #@@@@@#@@@@@@@@@@@@@oO-                                                                                      ",
"                   >+@@@@@@@@@#@@@@@@@@@+@@$-;                                                                                  ",
"                    -o@@@@@@@@@@@+@@o@@@+o@@@@@##&                                                                              ",
"                     $@@+@@@@@@@@@@@@#@@@@@@@@@@@@@+###--                                                                       ",
"                      @@o@@@@@@@@@@@@@@@@@@@@@@@@@@@@@o@@@@##o$##$;$##OO&--#O#%;%$@@$$o++##@###+#:                              ",
"                      >#@o@@@@@@@@@@@@@@@@@@@@@@@@@@oo@+@@@@@@@@o@@@+@@@@@@@@+o+@@@@o@@@@@@@@o@@o#                              ",
"                       >@@@@@o@@@@@@@@@@@@@@@@@@@@@o@@@@+@@@@@@@@@@@+#@@+o@@@@@@@@@@@@@@@o@@o@@@&                               ",
"                         #o@o@@@@@@@@@@@@@@@@@@@@@@@@@@@@@@@@@@@@@@@@@@@@@@@@@@@@@@@@@@@@oo+##*                                 ",
"                          &+@@@@@@@@@@@@@@@@@@@@@@@@@@@@@@@@@@@@@@@@@@@@@@@@@@@@@@@@@@@@@@#&                                    ",
"                           ;#@@@@@@@@@@@@@@@@@@@@@@@#@@@@@@@@@@@@@@@@@@@@@@@@@@@@@o@@+@@#                                       ",
"                             #@@@@oo@@@@@@@@@@@@@@@@@@@@@@@#@#@@@@@@@@@@@@@#@@@@@@@oo#-                                         ",
"                               &#o@@@@@@#@@@@@@@@@@@@@@@@@@@#@@@$@@@@@@@@@@@@@@@@o#$                                            ",
"                                 :$O@@@@o@@@@@@@@@@#@@@@@@@@@@@@oo@@@@@@@@+#o+@@$-                                              ",
"                                    -O#+@@@@@@@@@@@@@@@@@@@@@@@@@@@@@@@@@@oo@+-                                                 ",
"                                        -#@@@@@@@@@@@@@@@@@@@@@@@@@@@@@@@@@#=                                                   ",
"                                            ;#$$#@@@o@@@@@@@@@@@@@@@@o@o##                                                      ",
"                                                   >$-###@##@@@@@@@@@$#-                                                        ",
"                                                                                                                                ",
"                                                                                                                                ",
"                                                                                                                                ",
"                                                                                                                                ",
"                                                                                                                                ",
"                                                                                                                                ",
"                                                                                                                                ",
"                                                                                                                                ",
"                                                                                                                                ",
"                                                                                                                                ",
"                                                                                                                                ",
"                                                                                                                                ",
"                                                                                                                                ",
"                                                                                                                                ",
"                                                                                                                                ",
"                                                                                                                                ",
"                                                                                                                                ",
"                                                                                                                                ",
"                                                                                                                                ",
"                                                                                                                                ",
"                                                                                                                                ",
"                                                                                                                                "
};
