/* XPM */
static char *arabic41709524309[] = {
/* columns rows colors chars-per-pixel */
"128 128 14 1 ",
"  c None",
". c #9E2E8F",
"X c #9C348F",
"o c #9A3F8F",
"O c #9F2C93",
"+ c #9E3293",
"@ c #9D3B92",
"# c #A02B94",
"$ c #A13494",
"% c #A13B95",
"& c #9C418E",
"* c #9D4393",
"= c #A14195",
"- c #A14198",
/* pixels */
"                                                                                                                                ",
"                                                                                                                                ",
"                                                                                                                                ",
"                                                                                                                                ",
"                                                                                                                                ",
"                                                                                                                                ",
"                                                                                                                                ",
"                                                                                                                                ",
"                                                                                                                                ",
"                                                                                                                                ",
"                                                                                                                                ",
"                                                                                                                                ",
"                                                                                                                                ",
"                                                                                                                                ",
"                                                                                                                                ",
"                                                                                                                                ",
"                                                    *+@                                                                         ",
"                                                    +OO+@                                                                       ",
"                                                    +OOO#+@                                                                     ",
"                                                   $#OOO###+-                                                                   ",
"                                                   +OO###OO#O+-                                                                 ",
"                                                  @OOOO#OOOOO#O+*                                                               ",
"                                                  ###OOOO#OOOO###@                                                              ",
"                                                 @O#OOOOOOOO#OOOO+                                                              ",
"                                                 +OO#OOOOOOOOO##O*                                                              ",
"                                                @OOOOOOOOOOOOO#O+                                                               ",
"                                                OOOOOOOOO#OO#OOO@                                                               ",
"                                               @#OOOOOOOOOOO#O#+                                                                ",
"                                               +OOOOOOOOOOOO#O#@                                                                ",
"                                              @OOO##OOOOOOOOOO+                                                                 ",
"                                              @OOOOO#O#OOOOOOO@                                                                 ",
"                                               %O###OOOOOOOOOO                                                                  ",
"                                                 *+OOOOOO#OOO@                                                                  ",
"                                                   @OOOOO##OO      @*                                                           ",
"                                                     @OOOOOO@     *+O+%                                                         ",
"                                                       $O#OO*     +O#OO@                                                        ",
"                                                        *+O+      OOOOOO+@                                                      ",
"                                                          **     @##OOO#OO+*                                                    ",
"                                                                 O#O#OOOO##O@                                                   ",
"                                                                +#OO#OOO#OOO#+@                                                 ",
"                                                  @+@          *O#OOOOOOOOOO##OX                                                ",
"                                                 *OO#+@        +OOOOOOOOOO###O#$                                                ",
"                                                 +OOO##+*     *OOOOOOOOOOOOO#OO                                                 ",
"                                                *OO+#O###+-   +##OOOOOOOOOOO#O@                                                 ",
"                                                +#OO#OOO###@**+OOOOOOOOOOOOOO#                                                  ",
"                                               @O####O###OO#+#OO#OOOOOOOO#OOO@                                                  ",
"                                               +#OOOOO###OOOOOOOOO#OOOOOO#O#+                                                   ",
"                                              *OOOOOOOOOOOOO##OO#OOOOOOOO#+#@                                                   ",
"                                              $OOOOOOOOOOOOO#OOO#OOOOOOOO#O.                                                    ",
"                                             *OO#OOOOOOOOOOOOO++OO#OO#OOO#O@                                                    ",
"                                             +#OOOOOOO#O##OOO@  @+O#O#OOO##                                                     ",
"                                            *##O#OOOOOOOO###O     @O##OO#O%                                                     ",
"                                            +OO##OOOOOOOO##O@      %@##O#+                                                      ",
"                                           *OO##OOOOOOOOO##O         oO#O@                                                      ",
"                                            @+##O##OOOOOOO#@           @+                                                       ",
"                                              @+OOOOOOO#O#O                                                                     ",
"                                                $+##OOOO#O@                                                                     ",
"                                                  +OOOOOOO                                                                      ",
"                       &=                          *+O###+                                                                      ",
"                       O#@                           @OO#                                        @@                             ",
"                      @OOO+                            @@                                        #O                             ",
"                     *OOO#+                                                                     *OO@                            ",
"                     +O##O@                                                                     @##O%                           ",
"                    o##O#+                                                                      OOOO+                           ",
"                    O#OOO%                                                                     @OOOOO@                          ",
"                   @OOO#O                                                                      @#OOOO$                          ",
"                   OOOOO@                                                                      OOOOO#O@                         ",
"                  @OO#OO                                                                      @O#OOO##@                         ",
"                  +#OO#+                                                                      OO###OOOO                         ",
"                 @##OOO*                                                                     %#OOOOOO##@                        ",
"                 @O#OOO                                                                      @O#OOOOO###                        ",
"                 O##OO$                                                                      +OOOOOOOO#O*                       ",
"                @#O#OO@                                                                     @O#OOOOOOOO#@                       ",
"                $#OOOO*                                                                     OOOOOOOOOOOO$                       ",
"                OOOOO#                                                                     %OOOOOOOOOO#O+                       ",
"               %OOOO##                                                                     &OOO#OOOOOO#O#                       ",
"               @OOOOO+                                                                      @##OOOOOOO#OO@                      ",
"               @OOOOO+                                                                       @##OOO#OOOO#@                      ",
"               OO#OO#+                                                                        O#OOOOOOOOO+                      ",
"               OOOOOOO*                                                                       @##OOOOOOOO@                      ",
"              *OOOOO##@                                                                        @OOOOOOOOO%                      ",
"              @OOOOO##+                                                                         O#OOOOOOO$                      ",
"              %#OOO#OO.=                                                                        @OOOOOOOO+                      ",
"              %OOOOO#OOO                                                                         OO#OOOOO+                      ",
"              $OOOOOOOOO@                                                                        @OOOOOOO+                      ",
"              OOOOOOOO#O+=                                                                       -OO#OOOO+                      ",
"              OOOO.OOOOOO+*                                                                       +O#OOOO$                      ",
"              +OOO#OOOOOO#O@                                                                      %OOOOOO+                      ",
"              $#OOOOOOOOOOOO@%                                                                     +OOOOO+                      ",
"              *OOOOOOOOOOOO###+@@                                                                  +#OOO#+                      ",
"              @OO.#OOOOOOOOOOO##O+@O$$%=@@                                                         -OOOOO+                      ",
"               +OOOO#OOOOOOO#OOOO#####OOOO+O+O+OO+OOOO+#+O#+OOOO+O#+#+OO+#+O+OOOO#+#+OO+O#+#+OO+#+OOOOOOO$                      ",
"               +OOOOOOOOOOOOOOOOOOOOOOOOOOOOOOOOOOOOOOOO#OOOOOO#O#OOOOOOO#OOOOOOOOOOOOOOOOOOOOOOOOOOOOOOO+                      ",
"               +OOOOOOOOOO.#OOOOOOOOOOOOOOOOOOOOOOOOOOOOOOOOOOOOOOOO#OOOOOOO#OOOOOOOOO#OOOOOOO#OOOOOOOOO#+                      ",
"               @OOOOOOOO#OOOOOOOOOOOOOOOOOOOOOOOOOOOOOOOOOOOOOOOOOOOOOOOOOOOOOOOOOO#OOOOOOO#OOOOOOO#OOOOO+                      ",
"                OOO#OOOOOOOOOOOO#OOOOO#OOOO#OOOOOO#OOO#OOOOOOOOOOOOOOOOOOOOOOOOOOOOOOOOOOOOOOOOOOOOOOOOO#+                      ",
"                @#OO#OOOOOOOOOOOOO#OOO#OOOOOOOOOOOOOOOOOOOOOOOOOOO#OOOOOOOOOOO#OOOOOOOO#OOOOOOOOOOOOOOOOO$                      ",
"                @#OO#OOOOOOOOOOOOOOOOOOOOOOOOOOOOOOOOOOOOOOOOOO#OOOOOOO#O#OOOOOOOO#OOOOOOOOOOOOOOOOOOO#O#$                      ",
"                 +OOOOOOOO#OOOOOOOOOOOOOOOOOOOOOO#OOOOO#OOOOOOOOOOOOOOOOO.OOOOOOOOOOOOOOOOOOOOOOOOOOOOOOO$                      ",
"                 @OOOOOOOOOOOOO#OOOOOOOOOOOO#OOOOOOOOOOOOO#O#.OOOOOOOOOO#OOOOOOOOOOOOOOOOOOO#OOO#OOOOOOOO$                      ",
"                  +#OOO##OOOOOOO#OOOOOOO#OOOOOOOOOOOOOOOOOOOOOOOOOOOOOOOOOOOOOOOOOOOOOOOOOOOOO#OOOOOOOOOO+                      ",
"                  -O###OOOOOOOOOOOOOOOOOOOOOO#OOOOOOOOOOOOOOOOOOOOOOOOOOOOOOOOOOOOOOOOOO#OOOOOOO#OOOOOOO#+                      ",
"                   %O##OOOOOOOOOOOOOOOOOOOOOOOOOOO#OOOOOOOO#OOOOOO#OOO#OOOOOOOOOOOO#OOOOOOOOOOOOOOOOOOO#O+                      ",
"                    @O##OOOOO#OOOOOOOOOOOOOOOOOOOOOOO.#OOOOOOOOOOOOOOOOOOOOOO#OOOOOOOO#OOOOOOOOOOOOOOOOO#+                      ",
"                     +OO###OOOOOOOOOOOOOOO#OOOOOOOO#OOOO#OOOOOO#OOOOOOOOOOOOOOOOOOOOOOOOOOOOOOOOOOOOOOOOO+                      ",
"                      +##OOOOOOOOOOOOOOOOOOOOOOOOOOOOOOOOOOOOOOOOOOOOOOOOOOOO#OOOOOOOOOOO#OOOOOOOOOOOOOO#+                      ",
"                       @OOOOOOOOOOOOOOOOOOOOOOO#OOOOOOOOOOOOOOOOOOOOO.OOOOOOOOOOOOO#O#OOOOOOOOOOO#OOOOOOO+                      ",
"                        *+OOOOOOOOOOOOOOOOOOOOOOOOOOOOOOOOOOOOOOOOO#O#OOOOOOOOOOOOOOOOOOOOOOOOO#OOOOOOOOO$                      ",
"                          *+OOO#OOOOO####O##OOOOOOOOOO#OOOOOOOOOOOOOOO#OOOO#OOOOOOOOOOOOOOOOOOOOOO#OOOO#O#                      ",
"                             @$O+OOOO+##OOOOOOOOOOOOOOOOO#OOOOO#OOOOOOOOO#OOOOOO#OO#OOOOOOOO####OOOOOOOO#$                      ",
"                                -=+@@$%$$$$+$+$+.#+$O+$+O++$O+$+OO+$$+.O++$+OO+$O+++$+OO$O++O++$O+$+O+$++$                      ",
"                                                                                                                                ",
"                                                                                                                                ",
"                                                                                                                                ",
"                                                                                                                                ",
"                                                                                                                                ",
"                                                                                                                                ",
"                                                                                                                                ",
"                                                                                                                                ",
"                                                                                                                                ",
"                                                                                                                                ",
"                                                                                                                                ",
"                                                                                                                                ",
"                                                                                                                                ",
"                                                                                                                                ",
"                                                                                                                                ",
"                                                                                                                                ",
"                                                                                                                                "
};
