/* XPM */
static char *arabic21709524307[] = {
/* columns rows colors chars-per-pixel */
"128 128 17 1 ",
"  c None",
". c #9D358F",
"X c #9A3D8F",
"o c #9F2C93",
"O c #9D3392",
"+ c #9D3B93",
"@ c #A13E8F",
"# c #A02B94",
"$ c #A02A98",
"% c #A03394",
"& c #A23C96",
"* c #A23C98",
"= c #9E4A8F",
"- c #9D4393",
"; c #A14193",
": c #A4479B",
"> c #A4489A",
/* pixels */
"                                                                                                                                ",
"                                                                                                                                ",
"                                                                                                                                ",
"                                                                                                                                ",
"                                                                                                                                ",
"                                                                                                                                ",
"                                                                                                                                ",
"                                                                                                                                ",
"                                                                                                                                ",
"                                                                                                                                ",
"                                                                                                                                ",
"                                                                                                                                ",
"                                                                                                                                ",
"                                                                                                                                ",
"                                                                                                                                ",
"                                                                                                                                ",
"                                                                                                                                ",
"                                                                                                                                ",
"                                                                                                                                ",
"                                                                                                                                ",
"                                                                                                                                ",
"                                                                                                                                ",
"                                                                                                                                ",
"                                                                                                                                ",
"                                                                                                                                ",
"                                                                                                                                ",
"                                                                                                                                ",
"                            =                                                                                                   ",
"                           +o+                                                                       -                          ",
"                           .ooO                                                                     &o                          ",
"                          +#ooo-                                                                    %#O                         ",
"                          o#ooO                                                                     ooo-                        ",
"                         +o$#o+                                                                    +##oO                        ",
"                         o#$o#                                                                     O####-                       ",
"                        O#o#oO                                                                     o#oo#O                       ",
"                        o##$$;                                                                    +o####o-                      ",
"                       O#oooO                                                                     o#o####O                      ",
"                       Ooooo+                                                                    ;o##ooooo                      ",
"                      %o###O                                                                     %o##o####+                     ",
"                      O#oooO                                                                     Oooooooo#O                     ",
"                     &#oo##+                                                                    &oooooooooo;                    ",
"                     O#o##O                                                                     .#oooooooo#%                    ",
"                     O#oooO                                                                     oo#oo#oooo#.                    ",
"                    ;#oooo%                                                                    +o#ooooooo##O                    ",
"                    OoooooO                                                                    %##oooooooooo                    ",
"                    Oo$o#o&                                                                    +##ooo#oooo#o+                   ",
"                    o#oooo&                                                                    -o#oooooooo#o*                   ",
"                   ;o#oooo*                                                                     +##o#oo#o##oO                   ",
"                   +#ooo##+                                                                      O$ooooooo#o%                   ",
"                   +o#oo##O                                                                       o#oooooooo%                   ",
"                   %oooo##O                                                                       X#oooooo#oo                   ",
"                   Ooooo#o$                                                                        O#ooooo#$O                   ",
"                   Ooooooo#+                                                                       &oooooo##O                   ",
"                   Ooo#ooooo                                                                        Ooooo#o#O                   ",
"                   %oooooooo+                                                                       &#ooooo#o                   ",
"                   #oooooooo$-                                                                       O#o$oo#o                   ",
"                   oooooooo#oO                                                                       +o##oooo                   ",
"                   Ooooo#oooo#O-                                                                     -##oo#oo                   ",
"                   Oooooo#o#oo#O+                                                                     O#ooooo                   ",
"                   Oo#oooooo#oo#oO+                                                                   X#ooooo>                  ",
"                   %#ooooooooooooooOO%--                                                              =ooo#oo>                  ",
"                   Ooooooooooooooooo##oooOOOO&OOO+***********&;*****;****&&*****;******;****;*****&**&+ooo#oo>                  ",
"                   +o#ooooooo#oooooo##oooooo#o#o$######o##############################################$#oo#oo>                  ",
"                   +ooooooo#oooooooooooooooo########################o############$#######$###o#######$#o#o#oo>                  ",
"                    ooooo#oooooooooo#oo##oooooo#o#oooooooooooooo##oooo#oooooooo#oooooooooo#ooooooooooooo#o##o;                  ",
"                    Oooooooooooooooooooooo#ooooooooooo#ooooooo#o#Ooooooooooooooo#oooo#oooooooooooooooooooo#oo>                  ",
"                    O$oooooo#ooo#oo#oooooooooooooooooooooooooooooo#ooooooo#oooooooooooo#o#ooooooooo#ooooo##oo>                  ",
"                     oooooooooooooooooooooooo#ooooo#ooooooooooooooooooooooooooooooooooooooooooooooooooooo##oo>                  ",
"                     %ooooooooo#ooooooo#o#ooo#oooooooooooooo#oooooooooo#ooooooooooo#oooooooo#ooo#ooo#ooooo#oo>                  ",
"                     ;ooooo#ooooooo#ooooooooooooo#ooooo#o#ooooooooooo#ooooooo#ooooooooo#oooooooooooooooooo##O>                  ",
"                      .#oooooooooooooooooooooooooooooooooooooooooooooooo#ooooooo#oooo#ooo#ooooooooooo#oooo#oo>                  ",
"                      &ooooooo#o#ooo#oooo#ooooooo#ooo#oooo#ooooo#ooooooooooo#ooooooooooooooooo#ooooooooooo#oo>                  ",
"                       +o#oooooooooooooooooooo#ooo#oooooooooo#oo#ooooooooooooooooooooooooooooo#ooooooooo#o##o>                  ",
"                        O$o#oooooooo#oooooooo#oooooooooooooooo#ooooooo#oooooooo#oooooooooooooooooo#ooooooo#oo>                  ",
"                        +oo#oooooo#oooooooooooooooooooooooooooooooooooooooooooooooooooooooo#ooooooooo#oooo##o>                  ",
"                         +ooooooooooooo##ooooooo#oooooooo#ooooooooo#oooooo#ooooooo#oooooooooooooooooooooo##oo>                  ",
"                          +ooooooooooo#oooooooooooooooooooooooooo#oooooooooooooooooo#ooo#ooo#ooooooo#ooooo##o@                  ",
"                           +o##ooo##ooooo#oo#oooooooooooooooooooooooooo#oooooooooooooooooooooooooooooo#o#o##o;                  ",
"                            +oo###ooo#ooooooooooooooooooo#oooooooooooooo#oooooooo#ooooooo#oooooo#ooooooooo#oo>                  ",
"                              +Ooo##ooooooooooooo##oooooooooooooo#oo#ooooooooooooooooooooooooooooooooooooo##o>                  ",
"                                .%ooooooooooooooooooooooooooooooooooooooooooooooooooooooooooooooooooooooo##oO>                  ",
"                                   ++OOOOOooOoooooOooooOoooOooOoooooOoooooOooooOoooOoooOooOooooOooOoooOooO#oo>                  ",
"                                                                                                                                ",
"                                                                                                                                ",
"                                                                                                                                ",
"                                                                                                                                ",
"                                                                                                                                ",
"                                                                                                                                ",
"                                                                                                                                ",
"                                                                 =                                                              ",
"                                                                +O+                                                             ",
"                                                                OoooO                                                           ",
"                                                               -#ooo#O&                                                         ",
"                                                               Oo#####o%;                                                       ",
"                                                              +oo#oo#o#oo.                                                      ",
"                                                              OoooooooooooO&                                                    ",
"                                                             ;oo#ooooooooo#oO;                                                  ",
"                                                             O#ooooooooooo#oooO                                                 ",
"                                                            :o#oooooo#oooo#o#$oo+                                               ",
"                                                            Oo#oooooooo#ooooo###O                                               ",
"                                                           -Oo#oooooooooooooooo#+                                               ",
"                                                           O$ooooo#ooooooo#ooooO                                                ",
"                                                           o#o#oooooooooooo#ooo+                                                ",
"                                                          Oooo#ooooooo#oooo##oo                                                 ",
"                                                          O#oooooooooo#ooooooo+                                                 ",
"                                                         %o#oooooooooooooooooo                                                  ",
"                                                         Ooooooo##oooooooooo#+                                                  ",
"                                                          +o##oo##oooooooooo#                                                   ",
"                                                           ;OoooooooooooooooO                                                   ",
"                                                             -#oo#oo#ooooo#o                                                    ",
"                                                               -ooooo#ooooo&                                                    ",
"                                                                 +oo#o##ooo                                                     ",
"                                                                   +#ooooo+                                                     ",
"                                                                    ;O#o$O                                                      ",
"                                                                      +.#.                                                      ",
"                                                                        +                                                       ",
"                                                                                                                                ",
"                                                                                                                                ",
"                                                                                                                                ",
"                                                                                                                                ",
"                                                                                                                                ",
"                                                                                                                                ",
"                                                                                                                                ",
"                                                                                                                                ",
"                                                                                                                                ",
"                                                                                                                                ",
"                                                                                                                                ",
"                                                                                                                                "
};
