/* XPM */
static char *arabic211709524307[] = {
/* columns rows colors chars-per-pixel */
"128 128 29 1 ",
"  c None",
". c #BF4F0E",
"X c #BD500E",
"o c #BF4E15",
"O c #BE4F19",
"+ c #BD5014",
"@ c #BC521B",
"# c #BD591E",
"$ c #BF4F21",
"% c #BB5523",
"& c #B65A25",
"* c #BB5925",
"= c #B1572A",
"- c #BC5629",
"; c #B65B2D",
": c #BB5B2B",
"> c #BB5730",
", c #B65D33",
"< c #BB5D32",
"1 c #BC5D39",
"2 c #BA6034",
"3 c #B76238",
"4 c #BC613A",
"5 c #C14E0E",
"6 c #C04E14",
"7 c #C04E19",
"8 c #C1501C",
"9 c #C05524",
"0 c #C26133",
/* pixels */
"                                                                                                                                ",
"                                                                                                                                ",
"                                                                                                                                ",
"                                                                                                                                ",
"                                                                                                                                ",
"                                                                                                                                ",
"                                                                                                                                ",
"                                                                                                                                ",
"                                                                                                                                ",
"                                                                                                                                ",
"                                                                                                                                ",
"                                                                                                                                ",
"                                                                                           :*                                   ",
"                                                                                          <+o8*                                 ",
"                                                                                          @oo.oO-                               ",
"                                                                                         :7oooooo+-1                            ",
"                                                                                         +7ooooo+6o+8:                          ",
"                                                                          #:            %ooooooo66677o@*                        ",
"                                                                         %.O%:         ;5oo6oooo+oXo+75o@                       ",
"                                                                        &Ooo7o@*       %5oooooooooooo+6X%                       ",
"                                                                        oooooooO@%    -57o..oooooooo7o+@                        ",
"                                                                       @ooooo6oo5o@@<:5oo5ooo7oooooo.o7:                        ",
"                                                                      :+ooooooooooO6ooooo6oooooo7ooooo-                         ",
"                                                                      @5oooo6ooooooooooooo7oooooooooo@                          ",
"                                                                     #5oooooooooooooooo67ooooooooooo7:                          ",
"                                                                    :oooooooooOoooo77@%@o67.oooooooO%                           ",
"                                                                    @oooooooooooooooO:  *@oo56+o665#                            ",
"                                                                   %6oooooo7oooooooo@     2%@oo@6o.&                            ",
"                                                                  :+oooooooooooooo6o3        *@+oo*                             ",
"                                                                  *7ooo6oooooo..ooo:           2-#                              ",
"                                                                    #@oo.6o+o+oO++#                                             ",
"                                                                      *+oooo+ooo5o<                                             ",
"                                                                        :%+66.o65;                                              ",
"                                                                          :@+6Oo@                                               ",
"                                                                            :-@+:                                               ",
"                                                                               ,                                                ",
"                                                                                                                                ",
"                                                                                       ,;@8@@%;                                 ",
"                                                                                     :#+656@OooO%                               ",
"                                                                                    @+o666++ooo6X+-                             ",
"                                                                                  <@7o6oO6o66666OoX%                            ",
"                                                                                 2+6oooooooooo6o7ooo%                           ",
"                                                                                <++oooooooo6ooooooooo*                          ",
"                                                                                @66o7oooooooO6oooooo7@:                         ",
"                                                                               @6oo7ooooooooooooooO75o@                         ",
"                                                                              :Ooo.ooooooooo7oooooooooo*                        ",
"                                                                             1+ooooooooo7oooooooooooooo+                        ",
"                                                                             -ooooooooo7ooooooo7ooooo+67*                       ",
"                                                                            :@76ooooooo6ooooooooo6oooooo@                       ",
"                                                                            +66+ooooo6oooooooooooooooooo7:                      ",
"                                                                           *Xo7oooooooooooooooooooooooo77@                      ",
"                                                                           +oooooo7+ooo6oo77o7ooooooo6ooo@<                     ",
"                                                                          :.7ooooo5o76X+oo+oooooo6Oooooo7+-                     ",
"                                                                          @.oXoo677@@@@@+oooooooooooo7oo66%                     ",
"                                ,3                                       2+Xo+oo6+:      :+ooooooo6ooooo67@                     ",
"                               :o@-                                      *o66ooo7<         %.o5oO6Ooooooo7O<                    ",
"                              :@oX66,                                    @o7ooo.O           #o5oo6oo6oooooo:                    ",
"                              @7ooo+<                                   <Oo+oXo.%            @ooooO6ooooo6o&                    ",
"                             %oo+o+<                                    :66+oooX@            <+6ooooooO6o55@                    ",
"                            &Xoo6+-                                     -7o6oooXo<            %6oooo7oooooo@                    ",
"                           :o5oo.%                                      @7ooo+7656:           4+oo7ooooo7+6O3                   ",
"                          <++7oo@                                       @oooooo7++7#@*;   ;<-O-7oooooooo+66+,                   ",
"                          @ooo+o<                                       8oooo6+56o6o76oO@oOoOoo6oooooooo++6@<                   ",
"                         @oo5o7:                                        +oooooooo7oo7+oooooooooooooooo7o657@9                   ",
"                        9o.+67%                                         @oooooooooooO6oooooooooo7ooooooooooo*                   ",
"                       <7+.o7@                                          Ooooooooo6ooooo6O6ooooooooooooo7o.7o#                   ",
"                       @o56Xo:                                          Ooooooooooooo6Ooooooooooooo7oooo6ooo@                   ",
"                      #oooo6%                                           @oooooOooooooooo6O6o7ooooooooooo7ooo@                   ",
"                     :.oooo@                                            %ooooooooooooooooo7ooooooooooooo6.oo%                   ",
"                     +ooooo:                                            ;ooooooooo6ooo7oOoooooooo6ooo7oo7.oo@                   ",
"                    *6Xo6oO                                              @O566oooo7ooooo6oooooooooooo7oo7oOo%                   ",
"                   <o7Xoo5*                                              -.o66O6ooooooooooooooo7oooooooooooo@                   ",
"                   *o@o.5@                                                @7o.ooooooooO7oooooo7oo6oooooo7.oo@                   ",
"                  :oo.76+-                                                 @+6.ooooooooooooooooooooooooo6ooo%                   ",
"                  -ooooo+<                                                  %O76oXoooooo7oooooooo7oooooo7ooo@                   ",
"                 <7ooo6.%                                                    &#ooooooooooo7ooooooooooooo6ooo%                   ",
"                 -7ooo6o*                                                      :@8Oo777ooooo76oo6o67o6oo6ooo@                   ",
"                 O6ooooo:                                                         ::%@@@Oooo@@@@$$---#+oo.oo#                   ",
"                :ooooooo:                                                                             :o6.oo@                   ",
"                9oooooo@                                                                              &o6.oo@                   ",
"                @.oooooO                                                                              =ooooo#                   ",
"               :ooooooo@                                                                              =oo.oo#                   ",
"               :ooooooo@                                                                              ;6o+oX@                   ",
"               *o5oooooO                                                                              *6oooo@                   ",
"               @.66ooooo<                                                                             ++oo6.#                   ",
"               8oo7ooooo*                                                                            :+oo.o6*                   ",
"               @oooOoooo+                                                                           ,o6o+o.o9                   ",
"              4o57ooooo5+*                                                                         <o5o7..oo:                   ",
"              0oo6oooo65o.<                                                                       :++o+6o+oo:                   ",
"              :+oo6oooooo5@2                                                                     #7o+667oo+o,                   ",
"              :7ooOoooooo+o7:                                                                  &@6O666oooooo,                   ",
"              :+oooooo76ooo7X*                                                               :@Xo7o+ooooooo@                    ",
"              9@..oooooooo.o..%,                                                           :%Oooo6ooo7ooooo+                    ",
"              48ooooooooooo6oo5o#9                                                       *@o7ooOooooooooooo%                    ",
"               8oo6oo7ooooo5ooooX+*:                                                  #@@o7oX.oooooo7oooo.o:                    ",
"               @oO6oooooooooo.+6oo6+@@9                                           <*%ooo76o+o7o+ooooooooo++2                    ",
"               *6+66ooooooooooooooooo6oO@#&                                   :%@oooooOo6oooooooooo6ooooo5%                     ",
"                ++7+oooooo7oooooooooooooo+OOO@%%:-<                    :*%%@@oooo6oooo66ooooooo77ooooooo66<                     ",
"                -676oooooooOooo76ooo67oo6o66oo.66+++++@@O-%O@8#@#%@@@6o+66o5.Xo7o.6oo6oOooooooooooooooo6o:                      ",
"                 @+6o+ooooooooooooooo7ooooo66o667oo67oo7o6677766oo6+7+oo++oo676ooooooOoooooo7ooooooo6O.o-                       ",
"                 :o@oooooooooo6ooo6oooo7oooo7ooooooo+oooooooOooooooooooo67oooo7oooooooooooo6oooooooo6o6%                        ",
"                  %X57ooooooooooooooooooooooooooo7oo76oooooo6oooooooo7oo6ooooooooooo6Oooooooooooo7ooo6%                         ",
"                   %5o7oooo66oooooooooooooooooo7ooooo7oooooOoooo7ooooooo6oooooo7oooooooooooooooooooo@:                          ",
"                    %66oo6oOooooooo7oooo6ooooooooooooooo7oo6oo6ooooooooooooooooooooooooooooo.oooo.7%                            ",
"                     %OooOoooooooo7oooooooooooo7o7ooooOoooooooooooooo7oooOooooooooooooooooo.oOooo8<                             ",
"                      <%.oo6oooooooooooo7oooooooooooo66ooo6Oooooooooooooooooooooooooooooooooo65@-                               ",
"                        &@7oo.ooo+oo7oo6oooooooo6oooooooOoooooooooooooooooooooooooooo7ooo6o+X+:                                 ",
"                          -6ooo65+66ooooooo7ooooooooooooo6oooooooo6o7oooooooo7oooooo5..567+@&                                   ",
"                            <-o.+6+XXoo6oooo76ooooooooooo6ooooooooooooooooooooooooo7Ooo.+%<                                     ",
"                               &@7677oo+oo6o+6ooooooooooooooooooooooooooooooooooooo56+%:                                        ",
"                                  -%@+87o.oo+766ooooo66o6ooooooo6oooooooooo7oooOo@%:                                            ",
"                                      :*@@@++6++ooo6ooooOooo65oooooo6ooooo@@@%*:                                                ",
"                                            <::*@@##@@+8@+@++8@@+@%%*@#:::                                                      ",
"                                                                                                                                ",
"                                                                                                                                ",
"                                                                                                                                ",
"                                                                                                                                ",
"                                                                                                                                ",
"                                                                                                                                ",
"                                                                                                                                ",
"                                                                                                                                ",
"                                                                                                                                ",
"                                                                                                                                ",
"                                                                                                                                ",
"                                                                                                                                ",
"                                                                                                                                ",
"                                                                                                                                ",
"                                                                                                                                "
};
