/* XPM */
static char *arabic181709524306[] = {
/* columns rows colors chars-per-pixel */
"128 128 27 1 ",
"  c None",
". c black",
"X c #010101",
"o c #020202",
"O c gray1",
"+ c #040404",
"@ c gray2",
"# c #060606",
"$ c #070707",
"% c gray3",
"& c #090909",
"* c gray4",
"= c #0B0B0B",
"- c #0C0C0C",
"; c gray5",
": c #0E0E0E",
"> c gray6",
", c #101010",
"< c #111111",
"1 c gray7",
"2 c #131313",
"3 c gray8",
"4 c #151515",
"5 c #161616",
"6 c #181818",
"7 c #191919",
"8 c gray11",
/* pixels */
"                                                                                                                                ",
"                                                                                                                                ",
"                                                                                                                                ",
"                                                                                                                                ",
"                                                                                                                                ",
"                                                                                                                                ",
"                                                                                                                                ",
"                                                                                                                                ",
"                                                2-=#o###o#oo##--                                                                ",
"                                            -#oooooooooooooooooooo#=                                                            ",
"                                         -#oooooooooooooooooooooooooo#=                                                         ",
"                                       -#ooooooooooooooooooooooooooooooo=                                                       ",
"                                     2#ooooooooooooooooooooooooooooooooooo=                                                     ",
"                                    -ooooooooooooooooooooooooooooooooooooooo=                                                   ",
"                                   -oooooooooooooooooooooooooooooooooooooooooo2                                                 ",
"                                  -oooooooooooooooooooooooooooooooooooooooooooo=                                                ",
"                                 2oooooooooooooooooooooooooooooooooooooooooooooo#                                               ",
"                                 ooooooooooooooooooooooooooooooooooooooooooooooooo                                              ",
"                                =ooooooooooooooooooooooooooooooooooooooooooooooooo#                                             ",
"                               2ooooooooooooooooooooooooooooooooooo####ooooooo##ooo#                                            ",
"                               #oooooooooooooooooooo####=--4                                                                    ",
"                              2oooooooooooooooooo=--                                                                            ",
"                              #ooooooooooooo#-2                                                                                 ",
"                             -oooooooooooo=                                                                                     ",
"                             ooooooooooo-                                                                                       ",
"                            2oooooooooo2                                                                                        ",
"                            #ooooooooo=                                                                                         ",
"                           4oooooooooo4                                                                                         ",
"                           =oooooooooo-                                                                                         ",
"                           ooooooooooo#                                                                                         ",
"                          -oooooooooooo-                                                 -4                                     ",
"                          #ooooooooooooo2                                           2=##oo2                                     ",
"                          #oooooooooooooo-                                     -=oooooooo#                                      ",
"                          oooooooooooooooo=                               2=##ooooooooooo-                                      ",
"                          oooooooooooooooooo-                         -=#oooooooooooooooo                                       ",
"                          ooooooooooooooooooo#2                    -##oooooooooooooooooo=                                       ",
"                          #oooooooooooooooooooo#-               -#oooooooooooooooooooooo4                                       ",
"                          -ooooooooooooooooooooooo-          =#oooooooooooooooooooooooo#                                        ",
"                           ooooooooooooooooooooooooo#2    =#ooooooooooooooooooooooooooo4                                        ",
"                           =ooooooooooooooooooooooooooo##ooooooooooooooooooooooooooooo=                                         ",
"                            oooooooooooooooooooooooooooooooooooooooooooooooooooooooooo4                                         ",
"                            -oooooooooooooooooooooooooooooooooooooooooooooooooooooooo#                                          ",
"                             #oooooooooooooooooooooooooooooooooooooooooooooooooooooo#                                           ",
"                             4oooooooooooooooooooooooooooooooooooooooooooooooooooooo-                                           ",
"                              -oooooooooooooooooooooooooooooooooooooooooooooooooooo#                                            ",
"                               =ooooooooooooooooooooooooooooooooooooooooooooooooo#=                                             ",
"                                ooooooooooooooooooooooooooooooooooooooooooooo=-                                                 ",
"                                 #ooooooooooooooooooooooooooooooooooooooo=2                                                     ",
"                                  #ooooooooooooooooooooooooooooooooo#-2                                                         ",
"                                   #ooooooooooooooooooooooooooooo=-                                                             ",
"                                   4oooooooooooooooooooooooooo=2                                                                ",
"                                   =oooooooooooooooooooooo#-                                                                    ",
"                                  oooooooooooooooooooooo=-                                                                      ",
"                                4#ooooooooooooooooooo#-                                                                         ",
"                               2ooooooooooooooooooo#2                                                                           ",
"                              4oooooooooooooooooo=                                                                              ",
"                              #oooooooooooooooo=                                                                                ",
"                             #ooooooooooooooo=                                                                                  ",
"                            =oooooooooooooo#2                                                                                   ",
"                           2oooooooooooooo-                                                                                     ",
"                           ooooooooooooo#                                                                                       ",
"                          =oooooooooooo-                                                                                        ",
"                          ooooooooooo#2                                                                                         ",
"                         =oooooooooo#                                                                                           ",
"                         oooooooooo=                                                                                            ",
"                        =ooooooooo#                                                                                             ",
"                        #oooooooo#                                                                                              ",
"                       2ooooooooo                                                                                               ",
"                       =oooooooo-                                                                                               ",
"                       #ooooooo#                                                                                                ",
"                       oooooooo2                                                                                                ",
"                      -ooooooo#                                                                                                 ",
"                      =ooooooo-                                                                                                 ",
"                      #ooooooo-                                                                                                 ",
"                      oooooooo2                                                                                                 ",
"                      oooooooo                                                                                                  ",
"                     4oooooooo8                                                                                                 ",
"                     =oooooooo-                                                                                                 ",
"                     -oooooooo-                                                                                                 ",
"                     2oooooooo#                                                                                                 ",
"                     4ooooooooo                                                                                                 ",
"                     4ooooooooo#                                                                                                ",
"                     2oooooooooo-                                                                                               ",
"                     2ooooooooooo4                                                                                              ",
"                     =ooooooooooo#2                                                                                             ",
"                     4ooooooooooooo=                                                                                            ",
"                      oooooooooooooo=                                                                                           ",
"                      #ooooooooooooooo=                                                                                         ",
"                      =ooooooooooooooooo=                                                                                       ",
"                      -ooooooooooooooooooo#-                                                                                    ",
"                       oooooooooooooooooooooo#-                                                                                 ",
"                       =ooooooooooooooooooooooooo=-                                                                             ",
"                       2oooooooooooooooooooooooooooooo#=-                                                                       ",
"                        ooooooooooooooooooooooooooooooooooo###=-2                                                               ",
"                        -oooooooooooooooooooooooooooooooooooooooooooo#oo#====#oo#===--222-2-2==o#==#oo##                        ",
"                         #oooooooooooooooooooooooooooooooooooooooooooooooooooooooooooooooooooooooooooooo-                       ",
"                          ooooooooooooooooooooooooooooooooooooooooooooooooooooooooooooooooooooooooooooo#2                       ",
"                          -oooooooooooooooooooooooooooooooooooooooooooooooooooooooooooooooooooooooooo#2                         ",
"                           =ooooooooooooooooooooooooooooooooooooooooooooooooooooooooooooooooooooooo=                            ",
"                            #oooooooooooooooooooooooooooooooooooooooooooooooooooooooooooooooooooo#2                             ",
"                             =ooooooooooooooooooooooooooooooooooooooooooooooooooooooooooooooooo=                                ",
"                              =oooooooooooooooooooooooooooooooooooooooooooooooooooooooooooooo=                                  ",
"                               -ooooooooooooooooooooooooooooooooooooooooooooooooooooooooooo=                                    ",
"                                 #ooooooooooooooooooooooooooooooooooooooooooooooooooooooo=                                      ",
"                                  -#ooooooooooooooooooooooooooooooooooooooooooooooooooo=                                        ",
"                                    -#ooooooooooooooooooooooooooooooooooooooooooooooo=                                          ",
"                                      2#oooooooooooooooooooooooooooooooooooooooooo#-                                            ",
"                                         =#oooooooooooooooooooooooooooooooooooooo-                                              ",
"                                            -=#ooooooooooooooooooooooooooooooo#-                                                ",
"                                                -==#oooooooooooooooooooooooo#-                                                  ",
"                                                       2===#o####o########=-                                                    ",
"                                                                                                                                ",
"                                                                                                                                ",
"                                                                                                                                ",
"                                                                                                                                ",
"                                                                                                                                ",
"                                                                                                                                ",
"                                                                                                                                ",
"                                                                                                                                ",
"                                                                                                                                ",
"                                                                                                                                ",
"                                                                                                                                ",
"                                                                                                                                ",
"                                                                                                                                ",
"                                                                                                                                ",
"                                                                                                                                ",
"                                                                                                                                ",
"                                                                                                                                "
};
