/* XPM */
static char *arabic171709524306[] = {
/* columns rows colors chars-per-pixel */
"128 128 20 1 ",
"  c None",
". c #771F6E",
"X c #781F6E",
"o c #771F70",
"O c #791E70",
"+ c #77216D",
"@ c #78206E",
"# c #762A6D",
"$ c #782B6F",
"% c #76336E",
"& c #79336E",
"* c #762270",
"= c #792470",
"- c #772C70",
"; c #7A2C71",
": c #773471",
"> c #7B3373",
", c #7C3974",
"< c #7C3B78",
"1 c #813478",
/* pixels */
"                                                                                                                                ",
"                                                                                                                                ",
"                                                                                                                                ",
"                                                                                                                                ",
"                                                                                                                                ",
"                                                                                                                                ",
"                                                                                                                                ",
"                                                                                                                                ",
"                                                                                                                                ",
"                                                                                                                                ",
"                                                                                                                                ",
"                                                                                                                                ",
"                                                                                                                                ",
"                                                                                                                                ",
"                                                                                                                                ",
"                                                                                                                                ",
"                                                                                                                                ",
"                                   #+$:                                                                                         ",
"                                  >+XO+                                                                                         ",
"                                  -O+O#                                                                                         ",
"                                 >XX+X+%                                                                                        ",
"                                 #X@X+O+%                                                                                       ",
"                                >X@X@+.O+#                                                                                      ",
"                                #@@@@.XO+++#                                                                                    ",
"                               >*..@@@@XoXXOX$,                                                                                 ",
"                               #+@@@X@X++++XXXO#;                                                                               ",
"                              ,.+@@@@@@@X@@@X@@X++#;                                                                            ",
"                              $.O@@@@@@@@@@@@@XX+...@#-                                                                         ",
"                              *X+@@@@@@@@@@@@@XX+X+XXXX+                 %                                                      ",
"                             ,XXX@X@@@@@X@@@@@@@X+XXX++#                $+#$                                                    ",
"                             #X@O+@@@@@@@@@@@@@@+XXXXXX;               $XX+X*#&                                                 ",
"                             #X+@@@@@X@X@@@@@X@+X++X+X.<               #X.X.+.X@;                                               ",
"                            ,*.+.+X@@@@@@@@@@@@X@@XX+X+               #XX+.+XX+.X#$>                                            ",
"                            #X.+.X@@@X@@@@@@@@@+@@X...;              #XX@@@@@X@@X@@+#>                                          ",
"                            +XX.X@@X@@@@@@@@@@@@@@@@.+>              *X@@@@@@@X@XX@.oO+#                                        ",
"                            ..XX+@@@@@@@@X@@@@@X@@@@+O              #O@@@@@@@@@@@@XXX.+.@=>                                     ",
"                            $#OX@@@@@@@@@@@@@@@@@@X@X=             ;o+X@@@@@@@@@@@@@@@+X@X+#,                                   ",
"                              ;#*X@@@@@@@+X@@@@@@@@O+,            ,+.X@@@@X@@@X+@@@@@@X@O+o+                                    ",
"                                ;@@@X@+@X@@@@@X@@@XX#             =oXX@@@@@@@@@@@@X@@@@X...,                                    ",
"                                 @X@@@X@@@@@@@@@@X+.>            #.oXX@@@@@@@@@@@@@@@@@.+O$                                     ",
"                                 +..X@@@@@@@@@+o@@O#            ,++X@@@@@@@@X@X@@@@@@@@XO#                                      ",
"                                 &...@X@@@@@@@X+@@+>            +++X@@@X@@@@@@@@@@@@@@@X+,                                      ",
"                                  +OO+@@@@@@@@XX@+#            $+XX+@@@@X@@@@@@@@X@@XX@+&                                       ",
"                                  #OX.@@@@@X@@O#@O;            &#.+X@@XXX@@@@@@@@@@@...#                                        ",
"                                  &XXXX@@@@X@@#  >               &$*O@@@XX.@@@@@@@X+Xo@                                         ",
"                                   +*X@@@@@@@@+                     ;@X@...@@@@@@@@+.+$                                         ",
"                                   =*X@@@@@@@@X;                      :##X.@+XX@XX@@X$                                          ",
"                                   ;OX@@@@@@@@X$                         $+@XXX+XXX@+                                           ",
"                                   <+XXX@X@@@@X+                           >#XOOXXXO>                                           ",
"                                    #X@+@@@@@@XO<                             ;#XO.#                                            ",
"                                    ;+@@@@@@@@XX$                               :#+                                             ",
"                                    ,+@X@@@@@@XX#                                                                               ",
"                                     ++@@@@@+X++#                                                                               ",
"                                     ;X@@@@@X+XXX1                                                                              ",
"                                     >X@@X@@+@@+.;                                                                              ",
"                                      @XXX@@X@XXO#                                                                              ",
"                                      #XXXXX@@+XX#                                                                              ",
"                                      ;XOX@X@@.XO+                                                                              ",
"                                      >@XX@@@@XX..&                                                                             ",
"                                       @+X@XX@XX..%                             $#;=$$;$;>                                      ",
"                                       @+X@@@@.O.X*                         >;++.X+....+O@@##$                                  ",
"                                       #o.X@@@+OX.#                       $#+o+.XX.++.@X@@XX+@@$,                               ",
"                                       #O.X@@@@@.@#                    >=@X@@@X@@@X@@X@@@XX@+@XX++>                             ",
"                                       &*.@@@@@@@@.                  ;#++X@@@@@@@@@@@+@@@@@@XXXX@+X;                            ",
"                                       ,+X@X@@@@@@+                ;#.....X@@@X+@@@@@@@@@@@@@O@@@X+.#                           ",
"                                        +X@@@@X@@@+              ;#+X+XXX+@@@@@@@X@@@@@@+X@@@@@@@X@@.+                          ",
"                                        ++@@@@@@@@+            >@+..@@@@.@@@@@@X@@@@@@@@@@@@@@@@@@@@X.#                         ",
"                                        +.@@@@@@@@+          &+.@XX+@X@@@@@@@@@@@@@@@X@@@@@X@@X@@@@@XXX$                        ",
"                                        #XXX@@@.@@+        >=+.+OX@@XX@@@@X@@@@@@@@@@@@X@@@@@@@@@@@@@@++>                       ",
"                                        #X@X@@@+@@+       -+.@@@@@@@@@X@@@@@@@@@X@@@@@@@@@@@@@@@X@@@@@..#                       ",
"                                        #.@@@@@@@@#     #+OX+@@@@@@@@@@@@@@@@@X@@@@@@@@@@@X@@X+X@@+X@X+X+                       ",
"                                        $X@@@@XX@+=   :+X+.OO@@@@@@@@@@@@@@@@@@@+X@@@@@@@@@@@@*X@@@@@X.X+;                      ",
"                                        $@@@@@XXX+; %@*X@@X@@@@X@@@@@X@@@@@@@@@@@@@@@@@@@@@@@@@@@@@@@@XO+=                      ",
"                                        $.@@@@X+O.;=XO+.@@@@@@@@@@@@@@@@@@@@@@@@@X@@@@@@@@@@@@@@@@@@@@@X.#                      ",
"                                        1X@@@@+@XXX.X+.X@X@@@@@+X@@@@@X@@@@@X@@X@@@@@X@@@@@@@@@@@@@@@@XXX+                      ",
"                                        ;.@@@@X@+XX.XO+X@@@@@@@X@+@X@@XXX+@X@@@++@X@X++X+X@X@@X@@@@X@@XXX*                      ",
"                                        -++@@@@@@@@@XX@@@@@@@@@@@o+....X+@#@+#@@@@OOXXXXX..@X@@@@@@X@@XX+.                      ",
"                                        -.@@@@@@@@@@XX@@@@@@@@@@X+ooo##;,        >;$#@X.+XOX+X@@@@@@@@XX++                      ",
"                                        ;+@@X@@@@X@@@@@@@@@@@XXX@@*$                  ;$++O@+@@@@@@@@@@XX+                      ",
"                                        #+@@@@@@@@@@X@@@.XX@+@X#;                        %=+.X+@X.@@@@@X++                      ",
"                                      %#Oo@@@@@@++X@@XX+XXXXX@;                            >#+o@XXX@@@XXX*                      ",
"                                     #+OX.@X@@@XX+@@@@+XXX+#,                                %+X++@@@@XX++                      ",
"                                   -@X.+..@+@@@@XXXX@++X+$                                    $+XX@@@@@X++                      ",
"                                 >#*.X+@XX@@@@@XXX+.@X+$                                      <++X@@@@XX.@                      ",
"                                ;XX.XXX+@@@@@@XX++oX+;                                        :oXX@@@@@X++                      ",
"                              ;+..+.XX@@X@@@@@++@.X#                                          #oXX@X@@XX.+                      ",
"                            >++X.+.X++X@@@@XX+XX+#>                                          -X+XX@@@@XX+*                      ",
"                          >#+X+@XX@@.@@@@XX@@@X+:                                          ;+.+@X@@@@@@XX@                      ",
"                        >#@X@@@@@@@@@@@@@@oX.#;                                         >#=*XX@@@@@@@@@X@+                      ",
"                      >#+OX@@@@@@@@@@@@@@@@@$                                      1;$#OOX..X@@@@@@@@@XX++                      ",
"         ;>>>>>>>>1;$#XX++@X@@@@@X@@@@@@@OX;1;;>>>>>>>>>>>>>>>>>>;111;>;>>;;$=###@@@@+X+@XX.+X@@@@X@@X@XX+                      ",
"        #X@@X.+X+@@@@@@@@X@X@@X@@@@@@X@X@@@@*@@@++XX@+XX+XX+@X+X@XXXX@X@X@XXXXX@X@@@@@@@@@@X@@@@@@@@@@XX++                      ",
"        $XXXXXXXXXX@@@@@@X@@@@@@@@@@@@@@@@@@=@XXXXXXXXXXXXXXXXXXX@@@@@@@XXX@@@@@X@@@@@@@@@@@@@@@@@@@@@@X+@                      ",
"        #XXX@X+X@@X@@@@@@@@@@@@@@@@@@@@@@@@@XX@XX@X@X@XXX@XXX@X@@@@@X@@@@@@@@@X@@@@@@@@@@@@@@@@@@@@@@@XX+@                      ",
"        #X@@@@X@@@@+@@X@@@@@@@@X@@@@@@@X@@@X@@@@@@@@@@@@@@@@@@@@X@@@@@@@@@@@@@@@@@@@@@X@@@@X@@@@@@X@@@@X+@                      ",
"        @X@@@@@@X@@X@@@@@@@@@@X*@@X@@@@@@@@@@@@@@@@@@@@@@@@@+X@@@@@@@@@@@@@@@@@@@@X@@@@@@@@@@@X@@@@@@@XXX*                      ",
"        @XX@@@@@@@@@XX@@@@@@@@@@@@@@@@@@@@@@XX@@@@@@@@@@@@@@@@@@@X@@X@@@@@@@@@@@@@X@+X@@@@@@X@@@@X@X@@@X.+                      ",
"        #X@X@@X@@@@@*+@@X@@@@X@@@@@@O+@@@X@@*@@@@@@@@@X@@@@@@@@@@@@@@@@@@@@@@@@@@@@@*@@@@X@@@@@@@@@@@@XX++                      ",
"        #X@@@@@@@@@@@X@@@@@@@@@@@@@@@@@@@@@@@@@@@@@@@@@+@X@@@@@@@@@@@@@@@@X@@@@X@@@@XX@@@@@@@@@@@@@@@@@X+@                      ",
"        #.@@@@@@@@X@@@@@@@@@@@@@@X@@@@@@@@@@@@X@@@X@@X@@@@@@X@@@@@@@@@@@@@@@@@@@@@@@@@@@@@@@@@@@@@@@@@XX+@                      ",
"        @XXX@@@@@@@@@@@@@@@@@@@@@@@@@@@@X+@@@@@@@X@@@@@@@@@@@@@X@@@@@@X@XXX@@@@@@@X@@X@@@@@@@@@@X@@@@@@X.+                      ",
"        #X@@@@@@@@@@@@@@@@@@X@@@@@@@@@X@@@@@@@@@@@@@@@@@@@+X@@@@@@X@@@@@+*@@@@@@@@@@@@@@@@X@@@@.@@@@@@XX++                      ",
"        #X@@@@@@@@@@@@X@@@@@@@@@X@@@@@X+@@@@X@@@@@@@@@@@@@@@@@@@@@+@@@@@@X@@+X@@@@@@@@@@@@+@@@@@@@@@@@XX+@                      ",
"        #.@X@@X@@@@X@@@@+X@@X@@@@@@@@@@@X@@@@@@@@@@@@@X@@@X@@@@@@X@@@@@@@@@@@@@@@@@@@@@@@X@@@@@@@@@@@@XX+@                      ",
"        #XXX@@@@@@@@@@@@@@@@@@@@@@@@@@@@@@@@@@@@@@@@@@@@@@X@@@@@@@@@@@@@@@@@@@@@@@@@@@@@@@@@@@@@@@@@@@@X.+                      ",
"        #XXX@@@@@@@@@X@@X@@@@@@@@@@@@@@@@@@@@X@@@@@@@@@@@@@@@@@@@@@@@@@@@@@@@@@@X@@@@@@@@@@@@@@@@@@@@XXX+@                      ",
"        #.@@@@X+@@@@@@+@@@@O@@@@@@@@@+@@@@@@@@+@@@X+@@@.@@@@@@X+@@+@@@@@@@@@@+X@@@@X@@@@@@@@@+X@@@X@X+XX.+                      ",
"        #XXX.XX.XX.XXXXXXXX+X.XXX.XXXXXXXX.XXXXXX@XO.XX.X.XX.XX.XXOXX.XXX.XXXXXXXXX+X.XXX.XXXXXXX@XXXXXX++                      ",
"        $$$$$$$;;$$#;#$$$$#;;$$#$$$$;$#;;$$#;#$$#;$$$$$;$$$$$$$;$$$$$;#$$;#$$$$$#;#;;$$#$;#$$$$$$$$$$$$;##                      ",
"                                                                                                                                ",
"                                                                                                                                ",
"                                                                                                                                ",
"                                                                                                                                ",
"                                                                                                                                ",
"                                                                                                                                ",
"                                                                                                                                ",
"                                                                                                                                ",
"                                                                                                                                ",
"                                                                                                                                ",
"                                                                                                                                ",
"                                                                                                                                ",
"                                                                                                                                ",
"                                                                                                                                ",
"                                                                                                                                ",
"                                                                                                                                ",
"                                                                                                                                ",
"                                                                                                                                ",
"                                                                                                                                "
};
