/* XPM */
static char *arabic151709524306[] = {
/* columns rows colors chars-per-pixel */
"128 128 24 1 ",
"  c None",
". c #771F6E",
"X c #781F6E",
"o c #771F70",
"O c #781E70",
"+ c #722B67",
"@ c #77216E",
"# c #78206E",
"$ c #762A6D",
"% c #792B6E",
"& c #76336E",
"* c #79326F",
"= c #7A386D",
"- c #762170",
"; c #792470",
": c #762B71",
"> c #7A2C71",
", c #763470",
"< c #7B3373",
"1 c #773B72",
"2 c #7D3A74",
"3 c #7F367A",
"4 c #813373",
"5 c #803678",
/* pixels */
"                                                                                                                                ",
"                                                                                                                                ",
"                                                                                                                                ",
"                                                                                                                                ",
"                                                                                                                                ",
"                                                                                                                                ",
"                                                                                                                                ",
"                                                                                                                                ",
"                                                                                                                                ",
"                                                                                                                                ",
"                                                                                                                                ",
"                                                                                                                                ",
"                                                                                                                                ",
"                                                                            <                                                   ",
"                                                                           <-$                                                  ",
"                                                                           $@O$1                                                ",
"                                                                           @@@X->                                               ",
"                                                                          >OX@@XO>                                              ",
"                                                                          @XX#@@XX@3                                            ",
"                                                                          @X@XX#X@@-%                                           ",
"                                                                         $@XX##X@XXX@$                                          ",
"                                                                         @@@X###X@@@OO@                                         ",
"                                                                        <XX#@#@#@XXXX@$                                         ",
"                                                                        :XOO@#X#X@@XXX$                                         ",
"                                                                        @@XO@X#####@XX<                                         ",
"                                                                       <@X@@#X####XXX@                                          ",
"                                                                       -O@X@X@@XX@@XO4                                          ",
"                                                                      <OXX@X@@X@@X@X@                                           ",
"                                                                      =@XXX@XX@XX#@X;                                           ",
"                                                                       <@X@@@OO@@#@@<                                           ",
"                                                                         $o@@@@XXXX@                                            ",
"                                                                          %@OXXX@#@>                                            ",
"                                                                           3@XX.X@@                                             ",
"                                                                             $.XX@;                                             ",
"                                                                              <@XX&                                             ",
"                                                                               1$@                                              ",
"                                                                                 =                                              ",
"                                                                                                                                ",
"                                                                                                                                ",
"                                                                                                                                ",
"                                                                                                                                ",
"                                                                                                                                ",
"                                                                                                                                ",
"                                                                                                                                ",
"                                                                                                                                ",
"                                                                                                  %>4;::                        ",
"                                                                                                %--XX...@%                      ",
"                                                                                              <@@XX@.XXXXO#4                    ",
"                                                                                             <@XX@XXX#@XXX@@                    ",
"                                                                                            %@X@###X@X@#@@@X%                   ",
"                                                                                           %OX#XX###X###@X@X@>                  ",
"                                                                                          @@XO#@########X@@@O@                  ",
"                                                                                         %X.X@@X###########XXX%                 ",
"                                                      <                                 %@XX@X@X##X#X#####@O@@@                 ",
"                                                      @&                               $XX.@X@X@####X@#########<                ",
"                                                      @-                              %XXX@X@X@X###########X###@                ",
"                                                     <-O                             $O@@OO################@##X%                ",
"                                                     >@@%                           @O@X@#####X#@X##X######X#X#@                ",
"                                                     @OX@                          $@@#OXXX@########@X########@@4               ",
"                                                     @XO@<                        %X@@###@#######X########X###XX>               ",
"                                                     @X@X%                       %XX##X@X###@X@X####X#########XX:               ",
"                                                    *O..X@                      %@XX###X####@@X@##X@#####X#####@@               ",
"                   :                                $O@X@X<                    %@OOX##X@@X#O@-X.@X@@XX#XX@##X##@@               ",
"                  <@@                               @-XX@@>                   $X#X@###@XXO-O@@>:$$4%@@XXX@######%               ",
"                  $XX%                              @#@XXX@                  $-O@X@X@XXXX@@%4         =@X..XXX@X@               ",
"                  @XX>                             %@X##@%@                 %@O@X@X@###@@#4             %OOXX@XX@               ",
"                 %O@.                              >@##@X@#<               @XX@@X@@X#X@@>                :XX@X@@@               ",
"                 @@@@                              %@#X@X#;>              $X@X@X@XX@#@#*                  $;X@@X@               ",
"                *.-@>                              -X@##@#@;             $@XX@X@..X.@@3                   <@##@X;               ",
"                @@X@                              >@@#X#@X@>            $@OX@XXX.@@.;                      @###X@               ",
"               *O.@%                              4OX###@XO@           :XXOX@X@XOXX:                       %###O@               ",
"               %XX@                                @####X@X>          :OXXX@X@@XX.$                        @#X@X-               ",
"               -@X;                                :-@XX##X@         %XO@@@X#XXX@%                        <@###X#               ",
"              $X@X>                                <-XX@#X#@        %X@#@X#@@XXX<                         %XX@#O;               ",
"              @@@@                                  @OOXX@X%       @XX##X@XX@O@%                         ;X@@XXX#               ",
"             *@@.@                                  %@XXXXX#      %XX.##@X@#O@%                        <@XXXX@XO;               ",
"             %XX@<                                   @@-##X#    <@O@@X######@%                      4%@--@@X@X@XX               ",
"             @XX@                                    @@@X@#@<&<@@@@OX#######X52225222255252=++45>$@--@XXXXXXX@XX@               ",
"            >.X@>                                    >@@X@X@@@@###@####@####-@@@##@#%@##@@@@@@X@@O@#@##X@@X@@##X;               ",
"            @@X-<                                     XX@X@X@X#X##X##X#X#####@@@#######X@X@X#X@#@@X#X###X@@XX##XX               ",
"            -@O;                                      ;@@#####X########XX#############X###X###########X#@X##X@XX-               ",
"           $-O.%                                      >@@X####@########################################@#####@XX#               ",
"           $XXo>                                      <;##X####X#@###########@####X#####@X###X@X#XX####X#X####@O;               ",
"           @XX-                                        @#########X#X##X@#####XX#X@##X############@###########XXX@               ",
"          <@@.@                                        @##############X##X@X###X##@#@X#########################O;               ",
"          >@@.%                                        >X###@X#################@##X#######X#####X############X#X@               ",
"          @@X@:                                        <@X@########X#############X##X######X##X##@###X####X#X@XO;               ",
"          @@XX%                                         @XX##X##X#@X#######X##X#############@X###X#######X#@@X@XX               ",
"          @##X<                                         @XX#@X@X##########X##########X##########X#########X###XX-               ",
"         <O##X%                                         ;X@XX@X@########X@#################X##########@X######@O#               ",
"         >X#@@                                          @@X@##@XX#############@X##X@#########X@X###X#######X##XX;               ",
"         ;X##@                                          @O@###@X##@XX##@####X@XX#X###########@XX#######X#######X#               ",
"         @XX##                                          ;@X@@.XXXX#XXXXXXXX#XXXXXXXX#XXXXX#XXXXXXXXXXXX#XXXXXXXO@               ",
"         @O@##                                          @@OOXXX@#@@###XXX@####XX@#@###X@X@@###XX#@#X@X@#XX@@XXXX#               ",
"         @X@X@<                                         @XO@XX-XOXO#OXXOXOX#O#OXXXO#X;XOXXO#O#OXXX#;OXXO;XOXXXXX;               ",
"         ;XX@@*                                         @@OOX;-@@##@#%X@@@#@#@#%@##@##@#@@###@#%##@@##@#@@@@@@@;@               ",
"         -XX@@%                                        *XX@@*                                                                   ",
"        *@O@XX@                                        @X@X@                                                                    ",
"        +@O@@@@4                                       @###@                                                                    ",
"        >@XXXXX@                                      %@###@                                                                    ",
"        <OO@@X@@<                                    <@@@XX:                                                                    ",
"        >O-@@XXO%                                    ;XXX@X@                                                                    ",
"        4O@#X#X#@$                                  %X@@@X@%                                                                    ",
"        <X@X###X@X%                                #XX@XX@X%                                                                    ",
"        $@@@##X#@@X%                             4%@##X###X%                                                                    ",
"         @@@##@#XXOO%4                          >@@@@X####@<                                                                    ",
"         @@####X#@XX@@%                       =@XOXX######@                                                                     ",
"         @X#####@X##@@#@>4                  4%@X@@@X###XX@@                                                                     ",
"         %X@X###X####X#X@@@>2           5<@@@XX@X@#####XXX%                                                                     ",
"         %X#####@X######-@@XX@@@%>><>%@@@@@@X#@X#XX####@OX<                                                                     ",
"         *@@##@#X#####X@XXXX@#@@X@@XXXXXX@-XXX#####@###X@@                                                                      ",
"          #@@XX######X@X@@XXXX@@XXX###XXXOX@@######X##X#@@                                                                      ",
"          %XOO@X####@#########X@##X###########XX######@-O<                                                                      ",
"          <OO@X@####X#X#######X##X########X###@#X#####XO;                                                                       ",
"           :.@X@#X#X######X######@####XX############X@@@>                                                                       ",
"            @X@X###@##################@########X###X##@@                                                                        ",
"            >@@OO##X##X######X@##############X###XXX@X@4                                                                        ",
"             %XX@##############X##X#####@X######XXX@X@%                                                                         ",
"              :OOX@######XX#######X####X#####X##XX@XO:                                                                          ",
"               @X@X#@X###@##########@X@X#X###@##@XXX%                                                                           ",
"                %@X@X@@X#X@X####X@X@@X@@X@X@X@@@XX@&                                                                            ",
"                 <@XXXX@@#XX@XXXXXXXXXXX@X@@@XX@@@=                                                                             ",
"                   %@@XXXX@XX@XXXXO.@@XXOX#XXX@@%                                                                               ",
"                     *$@XXXXXXXXX@@oXXXXXX@@@@<                                                                                 ",
"                       2>%@@XXX.oOoO..oo@:%<                                                                                    ",
"                            *5<>$+$><3<=                                                                                        ",
"                                                                                                                                ",
"                                                                                                                                "
};
