/* XPM */
static char *arabic51709524309[] = {
/* columns rows colors chars-per-pixel */
"128 128 18 1 ",
"  c None",
". c #96378D",
"X c #9B348F",
"o c #97398E",
"O c #9A3A8F",
"+ c #9F2C93",
"@ c #9E3392",
"# c #9D3C93",
"$ c #9F3A98",
"% c #A02B94",
"& c #A13494",
"* c #A13C94",
"= c #A23C99",
"- c #97468F",
"; c #9D4293",
": c #A04295",
"> c #A24299",
", c #A34899",
/* pixels */
"                                                                                                                                ",
"                                                                                                                                ",
"                                                                                                                                ",
"                                                                                                                                ",
"                                                                                                                                ",
"                                                                                                                                ",
"                                                                                                                                ",
"                                                                                                                                ",
"                                                                                                                                ",
"                                                                                                                                ",
"                                                                                                                                ",
"                                                                                                                                ",
"                                       ;O#::**O;                                                                                ",
"                                   *&@@+++%%+++++++@@&@$>##                                                                     ",
"                                $$%%%%%%%%++++%+%%%+++++++++++&%@@#&@@=:#o;,                                                    ",
"                              #%%%%++%%+%+%+%+%+++++++++++++%%%%++%%++++@++++@+++%@&@&@&@                                       ",
"                            :@+++%+++%%+++++++++++++%+++%+++++++++++++++++++%%%%%%%++++%@                                       ",
"                           *&++++++++++++++++++++++++%++++++++++++++++++++++++++++++++++@                                       ",
"                          #%++++++%++++++++++++++++++++++++++++++++++++++++++++%++++++++;                                       ",
"                         #%%++++++++++++++%+++++++++++++++++++++++++++++++++++++++++++++                                        ",
"                        *+%++++++++++++++++++++++++++++++++++++++%+++++++++++%++++++++++                                        ",
"                        @+++++++++++++++++++++++++++%++++++++++++++++++++++++++++++++++X                                        ",
"                       #%++++%+++++++++%+++++++++++++++++++%%++++++++++++++++++++%+++++O                                        ",
"                      #+++++++++++%++++++++%+++%+++++++++++++++++++++++++++++++++++++++                                         ",
"                      +%+++++++++++++++++++++++++++++++++++++++++++++++++++++++++++%+%+                                         ",
"                     -+++%+++++%++++++++++++++++++++%++++%++++++++++++++%+++++%++++%++@                                         ",
"                     &%+%%%+++++++++%++++%+++++++++++++++++++%+++++%+++++%+++++%++++%@*                                         ",
"                    #+++%%+++++++++++++++++++%++++++++++++++++++++++%+++++++++++++++++                                          ",
"                    X%%%%++++++%+%%++%+++%%%+++++++++++++++++%+++++++++++++++++++++%+@                                          ",
"                    +++++++%+++++++++%++%%+++%++++++%+++%++++++++++++++++++++++++++++@                                          ",
"                   *+++++++++++++%%+++++&%++++++++++++++++++++++++%++%+++++++++++%+++#                                          ",
"                   &+++++++++++++%@&@##;   &%%++%++%++++++++++++++++++++++%+%+++++++@                                           ",
"                   @%+++%+++++@@$         ;+%%++++++++++++++%+%%%+++%++%++++++&@@##,                                            ",
"                  ;+%%++++%+#            #+%+%+++++++%+++%+++++++++++++%@@*$                                                    ",
"                  #+%+%++@#             @+%++%++++++++++++++++%%%+%+@@=                                                         ",
"                  @%%%+#;             ;@%%++%%++++%+++++++++++%+@#*                                                             ",
"                  @++#               #+%+%%%%++++++++%+%++++@@;                                                                 ",
"                  ##                #+++++%+++++++++%%+%%%@=                                                                    ",
"                                   &%++%+++++++++%%%++@@;                                                                       ",
"                                  =%+%++++++++++%%%%@#                                                                          ",
"                                 @++%++++++%+++%++@:                                                                            ",
"                                $+++++++++%%+%%+#:                                                                              ",
"                               #+%+++++++%%%%+@*                                                                                ",
"                              $%++++++++++++@;                                                                                  ",
"                             ;@%+++++%++%%@#                                                                                    ",
"                             @+%++++++%++@                                                                                      ",
"                            @%%%++++++%%#                                                                                       ",
"                           #%%%%%+++++@;                                                                                        ",
"                           %++++%%+++@                                                                                          ",
"                          #++++++++%@                                                                                           ",
"                         :++%++++%%@                                                                                            ",
"                         @+++++++%@                                                                                             ",
"                        $++++++++%                                                                                              ",
"                        +++++++++;                                                                                              ",
"                       ;+%+++%++$                                                                                               ",
"                       @%%+++%+#                         -;                                                                     ",
"                       +++++++%#                         +%@;                                                                   ",
"                      $+++++%%#                         #+++%#;                                                                 ",
"                      @+++++%+:                        ;+++@%%+@:                                                               ",
"                      +++%++%@                         @%+++++%%%#                                                              ",
"                     #+%++%%+#                        ;+%%+%%+%++%+#                                                            ",
"                     @+%+%%+@                         $+%++++++++++++O                                                          ",
"                     &%++%++@                        =++++++++++++++++@#                                                        ",
"                    ;%%%+%++O                        @%%+%++++%+++%%++%++*                                                      ",
"                    $+%++%%+:                       &+++%%%++++++++%%++%+@                                                      ",
"                    @++++%%+                        @%%+++++++%+++++++++%                                                       ",
"                    @+++++%+                       &+%%+++++++++++++++++#                                                       ",
"                    ++++++%&                       ++%++++++++++++++++++                                                        ",
"                   ;++++++++                      @%%++++++++++++++++++#                                                        ",
"                   =+++++++@                      @%+%+++++%+%++++++++@                                                         ",
"                   @+++++%++                     O%%%%++++++++++%+%+%+$                                                         ",
"                   =%++++%+@                      #X%%++++++++++++%+%@                                                          ",
"                   &%++++++@                        *@+++++%%+++++++%;                                                          ",
"                   @++++++%@                          #+++++++++++%+@                                                           ",
"                   X+++++%%+                            #++++%%+++%%                                                            ",
"                   @++++%%%+:                             $@+%++%++$                                                            ",
"                   @+%++++%%*                               #++++%+                                                             ",
"                   @++++++%+@                                 #@%+#                                                             ",
"                   @++++++%%@                                   @&                                                              ",
"                   @++++%%%%+>                                                                                                  ",
"                   @+++++%+++$                                                                                                  ",
"                   @++++++++++                                                                                                  ",
"                   #++++++++++$                                                                                                 ",
"                   =++++++++%%+;                                                                                                ",
"                   @%++++++++%++                                                                                                ",
"                   =++++++++%%++#                                                                                               ",
"                   *+++++%+++++++#                                                                                              ",
"                    X++++++++%+++X*                                                                                             ",
"                    @+++%+%+++%++++#                                                                                            ",
"                    @%+%%%++++%+++++;                                                                                           ",
"                    *+++%+++++++++++%#                                                                                          ",
"                     ++++++++++++%++++@*                                                                                        ",
"                     @+%%+++++++++%+++%+#                                                                                       ",
"                     #+%%+++++%+++%++%+++@#                                                                                     ",
"                     :%++%++++++++++++++++%&#                                                                                   ",
"                      @++%+++++++++++++++++%%%&*                                                                                ",
"                      #%%%++++++++++%+++++%%+++%+OO                                                                             ",
"                       %%+++++++++++++++++++%%%+%+++@&:                                                                         ",
"                       #%+++++%++++%+++++%+++++%++++++%+@@@*#                            ,O.##;;                                ",
"                        @+++++++++++++++++++++++++++++++++++%+@@@&*@@==:>>*>=#X@#@@@&%++++++++%%;                               ",
"                        #%++++++++++++++++++++++++++++++%%++%%%%%%+%+++++%+++%%+%%%+++++++++%%%%@                               ",
"                         O+++%++++++++++++++++++++++++++++%+%+%++++++++++++%+++%%%%%%%++++++%+%%@                               ",
"                          +++%++++%+++%+++++++++++++++++++++%%++++++%++++++++%+++++++++++++%%+@;                                ",
"                          *%+%++++++++++++%+%++++++++++++++++++++++++++++++++++++++++++++++%%@                                  ",
"                           *%++++++++++++++++++++%++++++%+++++++++++++++++++++++%++++%+++++@;                                   ",
"                            @+++++++%++++++++++++++++++++++++++++++++++++++++++++++%+%%++@;                                     ",
"                             @++%+++++++++++++%++++++++%+++++++++++%++++++++++%+++++%+%+@                                       ",
"                              *+++++++++++%+++++++++++++++++++++++++++++++++++++++%%++@                                         ",
"                               *@++++++++++++++++++++++++++++++++++++++++++++++++++%+$                                          ",
"                                ;@++++++%%+++++++%+++%++++++++++++++++++++++%+%%%%@#                                            ",
"                                  *@+%+++++++++++++++++++++++++++++++++++++%+++++@:                                             ",
"                                    @+%%%%%+++%+++++++++++++++++++++++++++%+%%%&#                                               ",
"                                      O%%++++++++++++++++++++++++++++++++++++%#                                                 ",
"                                        *@%%%%%+%%%++%%+++++++++++++++++%%%+@;                                                  ",
"                                          :&@++%%++++%%++++++++++++++++%+++;                                                    ",
"                                              #@@+%%%+++++++++++++++++%+%#                                                      ",
"                                                 >=@&&%++%%%%%++++%%%++&:                                                       ",
"                                                        #O*O&&@@@%&%&@#                                                         ",
"                                                                                                                                ",
"                                                                                                                                ",
"                                                                                                                                ",
"                                                                                                                                ",
"                                                                                                                                ",
"                                                                                                                                ",
"                                                                                                                                ",
"                                                                                                                                ",
"                                                                                                                                ",
"                                                                                                                                "
};
