/* XPM */
static char *arabic281709524308[] = {
/* columns rows colors chars-per-pixel */
"128 128 29 1 ",
"  c None",
". c black",
"X c #010101",
"o c #020202",
"O c gray1",
"+ c #040404",
"@ c gray2",
"# c #060606",
"$ c #070707",
"% c gray3",
"& c #090909",
"* c gray4",
"= c #0B0B0B",
"- c #0C0C0C",
"; c gray5",
": c #0E0E0E",
"> c gray6",
", c #101010",
"< c #111111",
"1 c gray7",
"2 c #131313",
"3 c gray8",
"4 c #151515",
"5 c #161616",
"6 c gray9",
"7 c #181818",
"8 c #191919",
"9 c gray10",
"0 c gray11",
/* pixels */
"                                                                                                                                ",
"                                                                                                                                ",
"                                                                                                                                ",
"                                                                                                                                ",
"                                                                                                                                ",
"                                                                                                                                ",
"                                                                                                                                ",
"                                                                                                                                ",
"                                                                                                                                ",
"                                                                                                                                ",
"                                                                                                                                ",
"                                                                                                                                ",
"                                                                                                                                ",
"                                                                                                                                ",
"                                                                                                                                ",
"                                                                                                7,-,-6                          ",
"                                                                                             7*$XXXXXXX*                        ",
"                                                                                           7*XXXXXXXXXXX$6                      ",
"                                                                                          -XXXXXXXXXXXXXXX6                     ",
"                                                                                        6$XXXXXXXXXXXXXXXX$                     ",
"                                                                                       6XXXXXXXXXXXXXXXXXXX*                    ",
"                                                                                      ,XXXXXXXXXXXXXXXXXXXXX                    ",
"                                                                                     -XXXXXXXXXXXXXXXXXXXXXX-                   ",
"                                                                                    ,XXXXXXXXXXXXXXXXXXXXXXX$                   ",
"                                                                                   ,XXXXXXXXXXXXXXXXXXXXXXXXX                   ",
"                                                                                  6XXXXXXXXXXXXXXXXXXXXXXXXXX6                  ",
"                                                                                  XXXXXXXXXXXXXXXXXXXXXXXXXXX-                  ",
"                                                                                 $XXXXXXXXXXXXXXXXXXXXXXXXXXX*                  ",
"                                                                                *XXXXXXXXXXXXXXXXXXXXXXXXXXXX$                  ",
"                                                                               ,XXXXXXXXXXXXXXXXXXXXXXXXXXXXX*                  ",
"                                                                               XXXXXXXXXXXXXXXXXXXXXXXXXXXXXX$                  ",
"                                                                              *XXXXXXXXXXXXXXXXXXXXXXXXXXXXXX*                  ",
"                                                                             -XXXXXXXXXXXXXXXXXXXXXXXXXXXXXXX$                  ",
"                                                                             XXXXXXXXXXXXXXXXXXXXXXXXXXXXXXXX$                  ",
"                                                                            *XXXXXXXXXXXXXXXXXXXXXXXXXXXXXXXX*                  ",
"                                                                           -XXXXXXXXXXXXXXXXXXXXXXXXXXXXXXXXX-                  ",
"                                                                           $XXXXXXXXXXXXXXXXXXXXXXXXXXXXXXXXX,                  ",
"                                                                          -XXXXXXXXXXXXXXXXXX*-7  6-XXXXXXXXX                   ",
"                                         *6                               XXXXXXXXXXXXXXXXX-        7$XXXXXX$                   ",
"                                        *XX-                             *XXXXXXXXXXXXXXX*           6XXXXXX*                   ",
"                                        XXXX-                           6XXXXXXXXXXXXXX$7             -XXXXX,                   ",
"                                       *XXX$                            $XXXXXXXXXXXXX-                $XXXX                    ",
"                                      6XXXX-                           6XXXXXXXXXXXX*7                 -XXX*                    ",
"                                      $XXXX                            *XXXXXXXXXXX*                    XXX6                    ",
"                                     ,XXXX-                            XXXXXXXXXXX,                     $X*                     ",
"                                     $XXX$                            -XXXXXXXXXX6                      ,X6                     ",
"                                    -XXXX*                            $XXXXXXXXX7                        -                      ",
"                                    $XXXX                            ,XXXXXXXXX6                                                ",
"                                   -XXXX*                            $XXXXXXXX,                                                 ",
"                                   $XXXX6                            XXXXXXXX*                                                  ",
"                                  -XXXX$                            ,XXXXXXX$                                                   ",
"                                  $XXXX,                            $XXXXXXX*                                                   ",
"                                 -XXXX$                             $XXXXXXX-                                                   ",
"                                 $XXXX-                            ,XXXXXXXX-                                                   ",
"                                ,XXXX$                             -XXXXXXXXX                                                   ",
"                                $XXXX*                             $XXXXXXXXX$6                                                 ",
"                               ,XXXXX6                             $XXXXXXXXXXXX$*,,--,,,,--,--,0                               ",
"                               *XXXX$                              XXXXXXXXXXXXXXXXXXXXXXXXXXXXXXXX$-,                          ",
"                              6XXXXX-                              XXXXXXXXXXXXXXXXXXXXXXXXXXXXXXXXXXX$-                        ",
"                              *XXXXX                               XXXXXXXXXXXXXXXXXXXXXXXXXXXXXXXXXXXXX*                       ",
"                              XXXXX$                               XXXXXXXXXXXXXXXXXXXXXXXXXXXXXXXXXXXXXX6                      ",
"                             ,XXXXX,                               $XXXXXXXXXXXXXXXXXXXXXXXXXXXXXXXXXXXXX*                      ",
"                             $XXXXX                                XXXXXXXXXXXXXXXXXXXXXXXXXXXXXXXXXXXXXX$                      ",
"                             XXXXX$                                $XXXXXXXXXXXXXXXXXXXXXXXXXXXXXXXXXXXXXX                      ",
"                            -XXXXX-                                $XXXXXXXXXXXXXXXXXXXXXXXXXXXXXXXXXXXXXX                      ",
"                            $XXXXX6                                -XXXXXXXXXXXXXXXXXXXXXXXXXXXXXXXXXXXXXX                      ",
"                            XXXXXX                                 ,XXXXXXXXXXXXXXXXXXXXXXXXXXXXXXXXXXXXXX                      ",
"                           -XXXXX*                                  XXXXXXXXXXXXXXXXXXXXXXXXXXXXXXXXXXXXXX                      ",
"                           *XXXXX-                                  -XXXXXXXXXXXXXXXXXXXXXXXXXXXXXXXXXXXXX                      ",
"                           XXXXXX,                                   XXXXXXXXXXXXXXXXXXXXXXXXXXXXXXXXXXXXX                      ",
"                          6XXXXX$                                    -$XXXXXXXXXXXXXXXXXXXXXXXXXXXXXXXXXXX                      ",
"                          -XXXXXX                                     -XXXXXXXXXXXXXXXXXXXXXXXXXXXXXXXXXX$                      ",
"                          *XXXXX$                                      6$XXXXXXXXXXXXXXXXXXXXXXXXXXXXXXXX$                      ",
"                          $XXXXX*                                        ,*XXXXXXXXXXXXXXXXXXXXXXXXXXXXXX*                      ",
"                          XXXXXX*                                           ,-$X$XXXXXXXXXXXXXXXXXXXXXXXX-                      ",
"                          XXXXXX*                                                776,,-,---*$$$$XXXXXXXXX6                      ",
"                         6XXXXXX*                                                               ,XXXXXXXX                       ",
"                         -XXXXXX*                                                                *XXXXXX$                       ",
"                         -XXXXXX*                                                               7XXXXXXX*                       ",
"                         *XXXXXX*                                                               $XXXXXXX,                       ",
"                         $XXXXXX*                                                             6$XXXXXXXX                        ",
"                         $XXXXXX$                                                            -XXXXXXXXX$                        ",
"                         $XXXXXX$                                                          *XXXXXXXXXXX*                        ",
"                         XXXXXXXX                                                        -$XXXXXXXXXXXX6                        ",
"                         XXXXXXXX-                                                     -XXXXXXXXXXXXXX$                         ",
"                         $XXXXXXX*                                                   -$XXXXXXXXXXXXXXX*                         ",
"                         XXXXXXXXX                                                 -XXXXXXXXXXXXXXXXXX                          ",
"                         XXXXXXXXX*                                              -$XXXXXXXXXXXXXXXXXX*                          ",
"                         XXXXXXXXXX6                                          6*XXXXXXXXXXXXXXXXXXXXX,                          ",
"                         XXXXXXXXXX$                                        ,$XXXXXXXXXXXXXXXXXXXXXX$                           ",
"                         XXXXXXXXXXX*                                    7-$XXXXXXXXXXXXXXXXXXXXXXXX6                           ",
"                         $XXXXXXXXXXX*                                 -$XXXXXXXXXXXXXXXXXXXXXXXXXX$                            ",
"                         XXXXXXXXXXXXX$,                           7-*XXXXXXXXXXXXXXXXXXXXXXXXXXXXX6                            ",
"                         $XXXXXXXXXXXXXX*6                      ,*$XXXXXXXXXXXXXXXXXXXXXXXXXXXXXXX*                             ",
"                         $XXXXXXXXXXXXXXXX$*6             6,-$$XXXXXXXXXXXXXXXXXXXXXXXXXXXXXXXXXX$                              ",
"                         *XXXXXXXXXXXXXXXXXXXXX$$**$$*$X$XXXXXXXXXXXXXXXXXXXXXXXXXXXXXXXXXXXXXXXX6                              ",
"                         -XXXXXXXXXXXXXXXXXXXXXXXXXXXXXXXXXXXXXXXXXXXXXXXXXXXXXXXXXXXXXXXXXXXXXX,                               ",
"                         6XXXXXXXXXXXXXXXXXXXXXXXXXXXXXXXXXXXXXXXXXXXXXXXXXXXXXXXXXXXXXXXXXXXXX,                                ",
"                          XXXXXXXXXXXXXXXXXXXXXXXXXXXXXXXXXXXXXXXXXXXXXXXXXXXXXXXXXXXXXXXXXXXX-                                 ",
"                          $XXXXXXXXXXXXXXXXXXXXXXXXXXXXXXXXXXXXXXXXXXXXXXXXXXXXXXXXXXXXXXXXXX,                                  ",
"                          *XXXXXXXXXXXXXXXXXXXXXXXXXXXXXXXXXXXXXXXXXXXXXXXXXXXXXXXXXXXXXXXX$7                                   ",
"                          6XXXXXXXXXXXXXXXXXXXXXXXXXXXXXXXXXXXXXXXXXXXXXXXXXXXXXXXXXXXXXXX-                                     ",
"                           $XXXXXXXXXXXXXXXXXXXXXXXXXXXXXXXXXXXXXXXXXXXXXXXXXXXXXXXXXXXX*7                                      ",
"                           ,XXXXXXXXXXXXXXXXXXXXXXXXXXXXXXXXXXXXXXXXXXXXXXXXXXXXXXXXXX*,                                        ",
"                            $XXXXXXXXXXXXXXXXXXXXXXXXXXXXXXXXXXXXXXXXXXXXXXXXXXXXXXXX-                                          ",
"                            6XXXXXXXXXXXXXXXXXXXXXXXXXXXXXXXXXXXXXXXXXXXXXXXXXXXXX$-                                            ",
"                             *XXXXXXXXXXXXXXXXXXXXXXXXXXXXXXXXXXXXXXXXXXXXXXXXXXX-                                              ",
"                              $XXXXXXXXXXXXXXXXXXXXXXXXXXXXXXXXXXXXXXXXXXXXXXXX-                                                ",
"                               $XXXXXXXXXXXXXXXXXXXXXXXXXXXXXXXXXXXXXXXXXXXX$,                                                  ",
"                                $XXXXXXXXXXXXXXXXXXXXXXXXXXXXXXXXXXXXXXXXX$,                                                    ",
"                                 *XXXXXXXXXXXXXXXXXXXXXXXXXXXXXXXXXXXXXX-7                                                      ",
"                                  ,$XXXXXXXXXXXXXXXXXXXXXXXXXXXXXXXXX$6                                                         ",
"                                    ,$XXXXXXXXXXXXXXXXXXXXXXXXXXX$*,                                                            ",
"                                      6*XXXXXXXXXXXXXXXXXXXXXX*,6                                                               ",
"                                         7,**X$XXXXXXXX$$*-6                                                                    ",
"                                                  77                                                                            ",
"                                                                                                                                ",
"                                                                                                                                ",
"                                                                                                                                ",
"                                                                                                                                ",
"                                                                                                                                ",
"                                                                                                                                ",
"                                                                                                                                ",
"                                                                                                                                ",
"                                                                                                                                ",
"                                                                                                                                ",
"                                                                                                                                ",
"                                                                                                                                "
};
