/* XPM */
static char *arabic221709524307[] = {
/* columns rows colors chars-per-pixel */
"128 128 28 1 ",
"  c None",
". c #BF4F0E",
"X c #BD500F",
"o c #BF4E15",
"O c #BE4F19",
"+ c #BD5115",
"@ c #BD521B",
"# c #B75323",
"$ c #BC5523",
"% c #BC5A25",
"& c #BC5629",
"* c #B65B2B",
"= c #BB5B2B",
"- c #BD5630",
"; c #B65E34",
": c #BB5D32",
"> c #B95E38",
", c #B9602E",
"< c #B66035",
"1 c #BA6133",
"2 c #BA6139",
"3 c #C04E0E",
"4 c #C04E14",
"5 c #C14D18",
"6 c #C05117",
"7 c #C15924",
"8 c #C25A2B",
"9 c #C15C30",
/* pixels */
"                                                                                                                                ",
"                                                                                                                                ",
"                                                                                                                                ",
"                                                                                                                                ",
"                                                                                                                                ",
"                                                                                                                                ",
"                                                                                                                                ",
"                                                                                                                                ",
"                                                                                                                                ",
"                                                                                                                                ",
"                                                                                                                                ",
"                                                                                                                                ",
"                                                                                                                                ",
"                                                                                                                                ",
"                                                                                                                                ",
"                                                                                                                                ",
"                                                                                                                                ",
"                                                                                                                                ",
"                                                                                  -                                             ",
"                                                                                 $+@:                                           ",
"                                                                                 @+.@                                           ",
"                                                                                =o33@                                           ",
"                                                                                5466%                                           ",
"                                                                               =oo5+@                                           ",
"                                                                               @4.o4o:                                          ",
"                                                                              :45oo.+@                                          ",
"                                                                              $oooo+o3@                                         ",
"                                                                              @oooo4o+o@:                                       ",
"                                                                             =+oo4o44o+4+=                                      ",
"                                                                             $33oooO44oooo@*                                    ",
"                                                                   *         @3ooooo4ooooooo@=                                  ",
"                                                                1$@@        &+66oooooooooooo+@@=                                ",
"                                                               $+44@        @ooooo4oooooooo.44o@                                ",
"                                                              @O44@6        @o.oooooooooooooooo7                                ",
"                                                             @44444@        @+.oooOoooo5oooooo46                                ",
"                                                            $oo4oo4@       :+X4o4O4oooooo4oooo6&                                ",
"                                                           %+454ooo@       =o44oooooooooooooooo*                                ",
"                                                          :4oo+oooo@       &oo.ooo4oooooooooo4+                                 ",
"                                                          $64oooooo@       @4oo4ooOoo44oO4o46+@                                 ",
"                                                         *+4oooooooO       @oO44o4ooOooooooo36@                                 ",
"                                                         @ooo4ooooo@       *+3oooooooooooooo.O&                                 ",
"                                                        ;o.oooooooo@        >@4oOoooooooooooo+                                  ",
"                                                        $o.o.oO4oO$;          $44oo4ooo4ooo45@                                  ",
"                                                       <+oooo44@%              %44o4Oooo4ooO4=                                  ",
"                                                       @o44o4+$                 o4.o4ooooooo61                                  ",
"                                                       +.oo3+%                  @o.ooooooooo+                                   ",
"                                                      =ooo3X=                   @o.oo4ooo436$                                   ",
"                                                      $oo4o*                    %oooooo44++@                                    ",
"                                                      6643O                     :Oooooo4+%$$                                    ",
"                                                     &3oooo=                     44ooooo@                                       ",
"                                                     @o.oooo&                    @4Ooooo+                                       ",
"                                                     @ooooooo@$$@%,              $44oooO4,                                      ",
"                                                    <@o+ooooooX.64+@$;           &44oooO4=                                      ",
"                                                    =5ooooo4oo44oo3XO4%          &oooooo4@                                      ",
"                                                    $4.4ooooo.ooXoo444@          =oooooo4@                                      ",
"                                                    $3+3oooooooo4ooo4oo&          @4ooo4o@                                      ",
"                                                    @4o4ooO4oo4ooo5o4oo#          @oooo44@                                      ",
"                                                    @4oooooooooooooooOo@          @+oo4O4+,                                     ",
"                                                    +o.ooooooooooooooooO          @+oooo4+%                                     ",
"                                                    ++o+4ooooooooooooooo          %4ooo+44%                                     ",
"                                                    o+ooOoooooooooo4oooO          =OooooXo@                                     ",
"                                                    @4o4oooooooooooOooo$           @ooooo4@                                     ",
"                                                    $o+o4oooooooooooooo$           @ooo3+3@                                     ",
"                                                     @3+ooo4o.ooooo444o@           @ooo4o6+:                                    ",
"                                                      @64+4+ooOoooo44oX$           745ooooo=                                    ",
"                             >                         *=@+@@5.3oo45o+3=           *o4ooooo*                                    ",
"                             @@2                             %3oooo4+4@<           =ooooooo$                                    ",
"                            $o4@:                             $ooooo44@             @o4oooo@                                    ",
"                            +4o4@                             $3oooo..$             @+4oooo@                                    ",
"                           $oooo$                             @6oooo.o:             @oo4oooO;                                   ",
"                           +ooo@1                            @ooo4ooo$              &+Oooooo=                                   ",
"                          =4ooo@                            #oo3oOooo:              $+oooooo$                                   ",
"                          @6o36%                          %@ooooooo.%               8634oooo@                                   ",
"                         *@64o6                        8@X.oooo4ooO$                 +3Oo4oo@                                   ",
"                         @ooo4$                   :&@@+oooooooooo.@                  @6OoOoo@                                   ",
"                        %+o.o+*           =77@@@@@+6+oo++.oooo4.o@2                  @4oo4466%                                  ",
"                        &4oo4@            Ooooooooooo4o+ooo..oo+@                    @4oooo+o&                                  ",
"                        @4+oo7           8oo4oooooooooo4.+oOo.@%                     %oooo4oo&                                  ",
"                       &4X+4o&           $.oooooooooooooo.3oo@1                      *ooooOo+@                                  ",
"                       $ooo++,           =@OOooooooooooo+@$=                          Oooo4oX@                                  ",
"                       Ooooo+               ;=&8$$$$$&=:                              @4ooo4o+                                  ",
"                      :ooooo+                                                         $4oooo4o1                                 ",
"                      &4oooo@                                                         7ooooo4o*                                 ",
"                      @4oo4O@                                                         &ooooo34$                                 ",
"                      oO4o4oO                                                         %+oooo44$                                 ",
"                     =OooOo4@                                                          +ooo.o3#                                 ",
"                     %ooooo4o;                                                         @ooo4o.o                                 ",
"                     @4o4oooo$                                                         $oooo+3O:                                ",
"                     +44ooooo@                                                         $ooooo4o=                                ",
"                     +OOoooooO=                                                        =Ooo+ooo$                                ",
"                     +4oooo44.@                                                        :oooooo4$                                ",
"                    9+44oooo.3o@                                                        +.o4ooo@                                ",
"                    $o4.ooo4ooo+6:                                                      @.o4oo4@                                ",
"                    $o4ooooo4Ooo@+&;                                                    @.Xoooo+                                ",
"                    $o4ooooooo444+33+$9                                                 $4+ooooo*                               ",
"                    %.4oooooooooo44o+oo+@@$&*=22*                                       &4+ooooo%                               ",
"                    @++4ooooooooo.ooo.oooo..oooooooOOO++oOOOO@O@O@@@O@@OO@@OOOOOO@OOOOOOoooooooo%                               ",
"                    $464ooooo4oo4oooooooooooooooooooOooOoooooooo444o4o4O4o4ooooo4oooOooo.OOOoooO8                               ",
"                    16oooooooooo5ooooooooooooooOooooooooo5ooooo44oooooo4o4oooooooOoooooooooooooo%                               ",
"                     ++oo4oooooooooooooooooo4oo4ooooooooooooooooooO4ooooooooooo5oooooooooooooooo8                               ",
"                     6o4oooooooooO5oooooooooooooooooooooooooooooooooooooo4oooooo4ooooooooooooooo,                               ",
"                     $444ooooo4oooooooooooooooooooooooooo5ooooooooooo4oooOoooooooooooooooooooooo7                               ",
"                     %3+O4O4ooOooo4oo44oooooooooooooooooooooo4oooo5oOooo4oooooo5oooooooooooooooo%                               ",
"                      6oOoooo4oooooooOoooooooooooooooooooooooooooooooo4oOooooooooo4OoooooooooooO7                               ",
"                      $44oooooooooooooooooooooooooooooooOooooooooooooO4ooooOooooo4oO4ooooooooooo,                               ",
"                      :+4oooooooooooooooooooooo4ooooo4oo4oooooo5ooooooooooo45ooooOoooo4ooooooooo7                               ",
"                       $oOoooooooooooooo4Ooooooooooooooo4oo4oooooOo4oOoooo4OooooooooooOooooooooo7                               ",
"                        @.ooooooooooo4ooooo4ooooo4oOoO4ooooOooo5o4ooo4ooooooooooo4ooo4oooooooooo,                               ",
"                        >OX.ooooooooooooooooooooooOoooooooooo5ooooooooooooooooooo4ooooO4oooooooo7                               ",
"                         *ooo4oooooooo4o4ooo4ooooo4oo44Ooooooooooo4o4oooO44ooo4ooOoooooooooooooo7                               ",
"                          =@oo.oooo4oo4OoooOoooooO4ooooooooooooooO4OooO4oooooO4OoooooOoooooooooO%                               ",
"                           1$+oo44ooooooooo4ooooooooooooO5ooooooo4ooooooooooo4oooo4oo4oooooooooo,                               ",
"                             :7ooooooooooooooooooooooooooooooooooooooooooooooooooooooooooooooooO7                               ",
"                               :%@oooo46oooooo4ooooooooooooooooooo4ooooooooooooooooooooooooooooo7                               ",
"                                  =$@@o344ooooooooOooOoooOOooOoooOOoOooOooOoooooooo6ooooOooOoooo7                               ",
"                                      =%&$@+$@@@@O++@+@+@o++@+@+@+OO++@++@o@@O@+@++@+@@+++@o+O@@1                               ",
"                                                                                                                                ",
"                                                                                                                                ",
"                                                                                                                                ",
"                                                                                                                                ",
"                                                                                                                                ",
"                                                                                                                                ",
"                                                                                                                                ",
"                                                                                                                                ",
"                                                                                                                                ",
"                                                                                                                                ",
"                                                                                                                                ",
"                                                                                                                                "
};
