/* XPM */
static char *arabic261709524308[] = {
/* columns rows colors chars-per-pixel */
"128 128 20 1 ",
"  c None",
". c #3DD556",
"X c #3ED558",
"o c #41D557",
"O c #44D45A",
"+ c #4AD35D",
"@ c #50D15F",
"# c #4DD261",
"$ c #53D264",
"% c #59D167",
"& c #55D369",
"* c #5BD26A",
"= c #5ED270",
"- c #61D26E",
"; c #66CF73",
": c #6FCF79",
"> c #71CE7A",
", c #64D271",
"< c #69D173",
"1 c #6BD079",
/* pixels */
"                                                                                                                                ",
"                                                                                                                                ",
"                                                                                                                                ",
"                                                                                                                                ",
"                                                                                                                                ",
"                                                                                                                                ",
"                                                                                                                                ",
"                                                                                                                                ",
"                                                                                                                                ",
"                                                                                                                                ",
"                                                                                                                                ",
"                                                                                                                                ",
"                                                                                                                                ",
"                                                                                                                                ",
"                                                                                                                                ",
"                                                                                                                                ",
"                                                                    *$+++#$-                                                    ",
"                                                                  *+.oOoOOOO+<                                                  ",
"                                                                <+OOOoOOOO..+O&                                                 ",
"                                                               <+oO++OOOOOOXOOO*                                                ",
"                                                              :+OOooOOOOOOO#OOO.,                                               ",
"                                                              #.#OOOOOOOOOOOOOO##                                               ",
"                                                             &XO#ooOOOOOOOOOOOOOO$                                              ",
"                                                            =OO#OoOOOOOOOOOOOOO.o+,                                             ",
"                                                            #XoOoOOOOOOOOOOOOOX#OO$                                             ",
"                                                           *OOOOOOOOOOOOOOOOOOOOOOO-                                            ",
"                                                          -#OoOOOOOOOOOOOOOOOOOOOOO+                                            ",
"                                                          #oOOOOOOOOOOOOOOOOOOOOOOo+,                                           ",
"                                                         -OOOOOOOOOOOOOOOOOOOOOOOOOO$                                           ",
"                                                         $OOOOOOOOOOOOOOOOOOOOOOOOOO+                                           ",
"                                                        -+OOOOOOOOOOOOOOOOOOOOOOOOo+X*                                          ",
"                                                        $OOOOOOOOOOOOOOOOOOOOOOOOOO+X$                                          ",
"                                                        @oOOOOOOOOOOOOOOOOOOOOOOOOOXO$                                          ",
"                                                       -OoOOOOOOOOOOOOOOOOOOOOOOOOOoO$                                          ",
"                                                       $.+OOOOOOOOOOOOOOOOOOOOOOOOOO.O*                                         ",
"                                                       +oOOOOOOOOOOOOOOOOOOOOOOOOOOOOO&                                         ",
"                                                      *OOOOOOOOO#XXO++OOOOOOOOOOOOOOOO$                                         ",
"                                                      &oO+OOOOOOO#&- ,*#OOOOOOOOOOOOOO+                                         ",
"                                                      +O+OOOOOOO%       *OXOOOOOOOOOOO#                                         ",
"                                                     *+o+OOOOoO$         -OOOOOOOOOOOOO                                         ",
"                                                     $+oOOOOOOO,          &OOOOOOOOOOOO*                                        ",
"                                                     #OOOOOOOO#            #O.+OOOOOOO+*                                        ",
"                                                     #OOOOOOOO*            ,OO+OOOOOOO+*                                        ",
"                                                     +OOOOOOOO*             #OOOOOOOOOo*                                        ",
"                                                    *OOOOOOOOO&             *OOOOOOOOOo*                                        ",
"                                                    *OOOOOOOOO&              OOOOOOOOOO%                                        ",
"                                                    *OOOOOOOOX#              $OOOOOOOOO%                                        ",
"                                                    $OOOOOOOOOX#             *OOOOOOOOO*                                        ",
"                                                    #OOOOOOOOOOX#            ,OOOOOOOOO&                                        ",
"                                                    $OOOOOOOOOOOO+$           +OOOOOOO+%                                        ",
"                                                    $OOOOOOOOOOOOOO+$$,       +OOOOOOOO&                                        ",
"                                                    #OOOOOOOOOOOOO.++O++++#+##oOOOOOOOO&                                        ",
"                                                    $OOOOOOOOOOOOOOOOOOOoOOO+OOOOOOOOOO%                                        ",
"                                                    $OOOOOOOOOOOOOOOOoOOOOOOOOOOOOOOOOO*                                        ",
"                                                    %OOOOOOOOOOOOOOOOOOOOOOOOOOOOOOOOOO%                                        ",
"                                                    *oOOOOOOOOOOOOOOOOOOOOOOOOOOOOOOOOO%                                        ",
"                                                    -oOOOOOOOOOOOOOOOOOOOOOOOOOOOOOOOOO*                                        ",
"                                                    -+OOOOOOOOOOOOOOOOOOOOOOOOOOOOOOOOO%                                        ",
"                                                     +OOOOOOOOOOOOOOOOOOOOOOOOOOOOOOOOO%                                        ",
"                                                     $OOOOOOOOOOOOOOOOOOOOOOOOOOOOOOOOO%                                        ",
"                                                     *OOOOOOOOOOOOOOOOOOOOOOOOOOOOOOOOO%                                        ",
"                                                      +OOOOOOOOOOOOOOOOOOOOOOOOOOOOOOOO*                                        ",
"                                                      $OOOOOOOOOOOOOOOOOOOOOOOOOOOOOOOO&                                        ",
"                                                       +OOOOOOOOOOOOOOOOOOOOOOOOOOOOOOO&                                        ",
"                                                       *+oOOOOOOOOOOOOOOOOOOOOOOOOOOOOO*                                        ",
"                                                        *oOO.OOOOOOOOOOOOOOOOOOOOOOOOOO%                                        ",
"                                                         *+OoOOOOOOOOOOOOOOOOOOOOOOOOOO*                                        ",
"                                                          *o#oOOOOOOOOOOOOOOOOOOOOOOOOO*                                        ",
"                                                           *#+OOOOOOOOOOOOOOOOOOOOOOOOO*                                        ",
"                                                             *@+OOoOOOoO+Oo.OOOOOOOOOOo*                                        ",
"                                                               *#&$+OO+OO##$O.OOOOOOOOO=                                        ",
"                                                                   ,-*-=*  =OOOOOOOOOOO-                                        ",
"                                                                           #o#.OOOOOOO+                                         ",
"                                                                          #oOXOOOOO+Oo+                                         ",
"                                                                         #OOOOOOOO++OO#                                         ",
"                                                                        $OOOOOOOOOoOOO*                                         ",
"                                                                       $O#OOOOOOOOOoO+*                                         ",
"                                                                      &OOXOOOOOOOOOoO$                                          ",
"                                                                     &OOOOOOOOOOOOOOo$                                          ",
"                                                                    #OOOOOOOOOOOOOO+O*                                          ",
"                                                                   #OOOOOOOOOOOOOOOO$                                           ",
"                                                                  #OOOOOOOOOOOOOOOoo*                                           ",
"                                                                <#OOOOOOOOOOOOOOOOo$                                            ",
"               1                                               &+OoOOOOOOOOoOOOOOOO&                                            ",
"              $+$                                             *O+oOOOOOOOOOOOOOOOO+                                             ",
"             *oOO+-                                          #OOoOOOOOOOOOOOOOOOOO%                                             ",
"            ,+o++OO*                                       *#OOOOOOOOOOOOOOOOOOoO+                                              ",
"            #+OXO+o.+$                                   -&OOoOOOOOOOOOOOOOOOOOoo*                                              ",
"            *#XOO++OO++%                                $oo+o+OOOOOOOOOOOOOOOOo+#                                               ",
"              $OO+Oo++O+&=                            *#++OOOOOOOOOOOOOOOOOOOOO+                                                ",
"               *OOOOOOOOOO+&                       ,$+OOOOOOOOOOOOOOOOOOOOOO+OO-                                                ",
"                -+.OoOOOOOOO+&&                 =&#oOOOOOOOOOOOOOOOOOOOOOOOOOo$                                                 ",
"                  $+oOOOOOOOoo##+$*-,      ,-&&OoOOOoOOOOOOOOOOOOOOOOOOOOOOO.#                                                  ",
"                   -+OOOOOoOOOoOOOOOOO+++#+OOOOoO#OOOOOOOOOOOOOOOOOOOOOOOOOo+                                                   ",
"                    <$+OoOOOOOOoOOoOOOOOOOOOOOOOOOOOOOOOOOOOOOOOOOOOOO+OOoO+<                                                   ",
"                      $+.OO+OOOOOOOOOOOOOOOOOOOOOOOOOOOOOOOOOOOOOOOOOOOOO.O=                                                    ",
"                       -++OO+OOOOOOOOOOOOOOOOOOOOOOOOOOOOOOOOOOOOOOOOOOOO#*                                                     ",
"                         &OoOOo+OOOOOOOOOOOOOOOOOOOOOOOOOOOOOOOOOOOOOOO.O-                                                      ",
"                          *+OOoO+OOOOOOOOOOOOOOOOOOOOOOOOOOOOOOOOOo.OOOO%                                                       ",
"                            +o+..OOOOOOOOOOOOOOOOOOOOOOOOOOOOOOOOOO++OO,                                                        ",
"                             -Oo+OOOOOOOOOOOOOOOOOOOOOOOOOOOOOOOOOO+.O*                                                         ",
"                               %OOOOOOOOOOOOOOOOOOOOOOOOOOOOOoO+OOOOO,                                                          ",
"                                -#oO++OO+OOOOOOOOOOOOOOOOOOOOOOOOOX+,                                                           ",
"                                  $+oOOOOOOOOOOOOOOOOOOOOOOOOOX.+O$                                                             ",
"                                    #OoOOOOoOOOOOOOOOOOOOOOOOOO++*                                                              ",
"                                     :*O++OoOOOOOOOOOOOO+OOOOO+*                                                                ",
"                                        $+++OOOOOOOO+oOOOOO++$<                                                                 ",
"                                          -$+++OoOOOOOoO+++#,                                                                   ",
"                                             &&$++++#++%*&                                                                      ",
"                                                                                                                                ",
"                                                                                                                                ",
"                                                                                                                                ",
"                                                                                                                                ",
"                                                                                                                                ",
"                                                                                                                                ",
"                                                                                                                                ",
"                                                                                                                                ",
"                                                                                                                                ",
"                                                                                                                                ",
"                                                                                                                                ",
"                                                                                                                                ",
"                                                                                                                                ",
"                                                                                                                                ",
"                                                                                                                                ",
"                                                                                                                                ",
"                                                                                                                                ",
"                                                                                                                                ",
"                                                                                                                                "
};
