/* XPM */
static char *arabic241709524308[] = {
/* columns rows colors chars-per-pixel */
"128 128 14 1 ",
"  c None",
". c #B74F0E",
"X c #BD4E0D",
"o c #BE500C",
"O c #B64D14",
"+ c #BF4E15",
"@ c #B64D1B",
"# c #BC4E19",
"$ c #B45017",
"% c #BD5014",
"& c #BA5019",
"* c #C14E0D",
"= c #C04E13",
"- c #C04D18",
/* pixels */
"                                                                                                                                ",
"                                                                                                                                ",
"                                                                                                                                ",
"                                                                                                                                ",
"                                                                                                                                ",
"                                                                                                                                ",
"                                                                                                                                ",
"                                                                                                                                ",
"                                                                                                                                ",
"                                                                                                                                ",
"                                                                                                                                ",
"                                                                                                                                ",
"                                                                                                                                ",
"                                                                                                                                ",
"                                                              ..X*+O                                                            ",
"                                                          O++=%=-=-=++==O                                                       ",
"                                                       ++%=++++++++++++X%%@+                                                    ",
"                                                     +#%X*%++-+++++=-+==*=*o+@                                                  ",
"                                                   X++X*=%%=+-+=+-++++++++%+=X%@                                                ",
"                                                  %*=%+++--+=%-%+++++++-=+=-=+++%#                                              ",
"                                                 X+%=-%++-+++++=+++==++-+=++=%++=O&&                                            ",
"                                                +%++%==-++++-+++++-%++=%-%+++-++-%%=@                                           ",
"                                               ++++++-=++--%++-%+=+-=++-+-=++-+=-==+==+                                         ",
"                                              +++++++++++++=+=+=+++++++++++++++++++++=-@                                        ",
"                                             X%%++++++++++=++-+++%-+-++=++-%-%=+-+-+-%%=XX                                      ",
"                                            =%*=%++=-+-+++++=%+++-+=+=+++++-+++-%=++++=-=%%                                     ",
"                                           #*%=-%-++++%==-%=+++-+=++-%+=-++=++++-++=++++++@+                                    ",
"                                          +++o-+=+++++-+%--=-+++-%-+++++%+++-++=%+++=++-++++=@                                  ",
"                                          +--=%==%+X=%++%++=--X++++=++++=+-++=++-+%-+==++++=%=@                                 ",
"                                         +++++-+*=XX+XX    OX%+o%++++++-+-%-++-%=+=+++%-+=+%-*X&                                ",
"                                        ++++++++%%++          #++++--++++=+++++=++-++++++-%%=+%+X                               ",
"                                        +X+++-#+X+               ++X%-+++++++-+++++++-++++-+%=-**-                              ",
"                                       +%+*=%++X                  X+++++++++=++-++-+++++=%++%=++-X&@                            ",
"                                       *++++=+X                     +++++=+++++++++++-+++-++-++-+=%*+                           ",
"                                      @++++++O                       O+=-%=-++%=-%+++=+=-++=++++%=-%++                          ",
"                                         +XX                           +o%=%-+-++==+-%+-+++++-++-+++++                          ",
"                                                                       @**%-++=+-++=+++%+++++=%=-++=+X                          ",
"                                                           ++@+++O+-X+=-+%++-%++++++=++-=+%-++-++++++X                          ",
"                                                   OX%%+*+++++++++++-+-++=-%+-=+-+++++=%++-++++=+++++X                          ",
"                                              O++--+++=%#+++++-++-+++=%++++-+++++=%-+-+-++=+-++++++-++                          ",
"                                          +%+++%==%%=--=X+++++=%+=++=+-+-%=++++++++++%=++++=++-+-++=+X                          ",
"                                       X+-=+++++++-+++===+-=+-+--%++%-+++++-++-+++=++--++--%+-%-++++=+                          ",
"                                     +**++=+++++++%=-+%+-%-%+=+++++=-++=++++=++=-+-++++++++-+=+++++++X                          ",
"                                   X++%+=+++++++=+-+++=--=+++++++-++%+++-++=++-%%=+++-++++=%++++-++-=+                          ",
"                                  +%%++++++-+-+++-+++++=+++=-%=-++-+-=++++=++++++-+++-+=-++=++-++++=+X                          ",
"                                 +*+%=+-+=+%+++++++++-+%++++++++=-%+++++++%-+=+++++==%++++++=+++++++++                          ",
"                                =X*==+-++=+--++-=+-++=+-=+++++++++++++-%-++=+--+++-+++++++-%++%==+++-X                          ",
"                               +=+%+-+%++++++++++-%++++++-%-=++-++=++-+=++++-%+=%-%=+++-=++-++-+++-++X                          ",
"                              O*==+++-+=++++++++++++-++=-++=++++-++=++++++++++++-%-++-++-+++%-++=++--X                          ",
"                             O*=++++=%++=++-=+-+%-+=%-++++++++==++-%+=-+=+++-++=%=-+=%+++++-=-=+++++++                          ",
"                             +*=+++-++++++++%+=+=+++-+++++++=%=%-%%+%=+%==%+-+++==--+-=+++++-=%=++-+=X                          ",
"                            X#=-+-++=++-+-++-++++-+++=%--++*=====*==X%%%-+++++++@++#%#++++#+####+##+-@                          ",
"                           O*=%=++++%=+++++-+++++-+++++++++=++@&%@-=                                                            ",
"                           +#==%++-+-++++==o%+++++#+++++                                                                        ",
"                          @%-==+-%++=---O+=-O++XX                                                                               ",
"                          +-++-%+=-++%%*++o                                                                                     ",
"                          ++++++-+++++X+                                                                                        ",
"                          +++-=++++=++                                                                                          ",
"                         .++++-%+=+++@                                                                                          ",
"                          *+++=+-%-++X                                                                                          ",
"                          ++++-+++++-+                                                                                          ",
"                          O+++++++=%-XX                                                                                         ",
"                           +++++=++-%*%+                                                                                        ",
"                           +X-+X-+++=*%+                                                                                        ",
"                            +%=+-++--X%+X                                                                                       ",
"                            ++++=++++++*+                                                                                       ",
"                             +X=%-+++=-*OX                                                                                      ",
"                             X++++=-%=+-OX                                                                                      ",
"                              ++*++++++#%%+                                                                                     ",
"                              ++++-+-+++==+                                                                                     ",
"                               X++%-++++++++                                                                                    ",
"                               +++=++++++++X                                                                                    ",
"                                +%+++%-+++=+$                                                                                   ",
"                                +*+-X*+=+-%*+                                                                                   ",
"                                 X+=o-++++%%=+                                                                                  ",
"                                 +O=%=-++==+=+                                                                                  ",
"                                  =X%%-=-%-==#@                                                                                 ",
"                                  ++==+++++%--O                                                                                 ",
"                                   +*%+-+++=*-X                                                                                 ",
"                                   X=%++-+++=%X                                                                                 ",
"                                    O-=++-+%=-*X                                                                                ",
"                                    X++++++-%=+X                                                                                ",
"                                     +++++++++-+                                                                                ",
"                                     ++++=+%++=+                                                                                ",
"                                      ++++++++=#                                                                                ",
"                                      o+-+++++=#                                                                                ",
"                                      O+=%=+++-@                                                                                ",
"                                       =o--+=+-+                                                                                ",
"                                       X%%-=*-=+                                                                                ",
"                                       +X%**%%++                                                                                ",
"                                        =#==%=X@                                                                                ",
"                                        *#%=-%#                                                                                 ",
"                                        X-X=+o+                                                                                 ",
"                                        X*%+++                                                                                  ",
"                                         ++X+@                                                                                  ",
"                                         ++X#                                                                                   ",
"                                         ++O                                                                                    ",
"                                         #O                                                                                     ",
"                                                                                                                                ",
"                                                                                                                                ",
"                                                                                                                                ",
"                                                                                                                                ",
"                                                                                                                                ",
"                                                                                                                                ",
"                                                                                                                                ",
"                                                                                                                                ",
"                                                                                                                                ",
"                                                                                                                                ",
"                                                                                                                                ",
"                                                                                                                                ",
"                                                                                                                                ",
"                                                                                                                                ",
"                                                                                                                                ",
"                                                                                                                                ",
"                                                                                                                                ",
"                                                                                                                                ",
"                                                                                                                                ",
"                                                                                                                                ",
"                                                                                                                                ",
"                                                                                                                                ",
"                                                                                                                                ",
"                                                                                                                                ",
"                                                                                                                                ",
"                                                                                                                                ",
"                                                                                                                                ",
"                                                                                                                                ",
"                                                                                                                                ",
"                                                                                                                                "
};
