/* XPM */
static char *arabic191709524307[] = {
/* columns rows colors chars-per-pixel */
"128 128 25 1 ",
"  c None",
". c #BF4F0E",
"X c #BD500D",
"o c #BF4E15",
"O c #BE4F19",
"+ c #BD5015",
"@ c #BD521B",
"# c #B95A1F",
"$ c #BB5523",
"% c #BB5925",
"& c #B45629",
"* c #BC5729",
"= c #B35B2D",
"- c #BB5B2B",
"; c #B65D31",
": c #BB5D32",
"> c #B75E3D",
", c #BA6133",
"< c #B9623B",
"1 c #C14E0E",
"2 c #C04E14",
"3 c #C14D18",
"4 c #C05013",
"5 c #C0501A",
"6 c #C0592A",
/* pixels */
"                                                                                                                                ",
"                                                                                                                                ",
"                                                                                                                                ",
"                                                                                                                                ",
"                                                                                                                                ",
"                                                                                                                                ",
"                                                                                                                                ",
"                                                                                                                                ",
"                                                                                                                                ",
"                                                                                                                                ",
"                                          %#:                                                                                   ",
"                                         -o+2@%-                                                                                ",
"                                        -+22oooo+#%                                                                             ",
"                                       -@+2ooooo3Xoo$%                                                                          ",
"                                      ,oo.+oooo24+222o+@%                                                                       ",
"                                      @2+ooo2ooO22o+22o+2+@%                                                                    ",
"                                     @ooooooO2ooooooOoooo2.o2;                                                                  ",
"                                    @ooo2oOooooooooo2oo2oooo@                                                                   ",
"                                   $@oooO22oo2ooooOo2o22ooo$                                                                    ",
"                                  $ooooo2ooo2Ooooooooo2oo2$                                                                     ",
"                                 -ooooo2oooooooooooooo2o1@<                                                                     ",
"                                 -%ooooooooooooooooOo2O.o>                                                                      ",
"                                    :6@3O22o2o22ooooo22+-                                                                       ",
"                                       6$@oooo2oOo2oo2+:                                                                        ",
"                                           %@2oo3oo2oo-                                                                         ",
"                                              %$o24+o-                                                                          ",
"                                                 $$4%                                                                           ",
"                                                                                                                                ",
"                                                                                                                                ",
"                                                                                                                                ",
"                                                                                                                                ",
"                                                                                                                                ",
"                                                                                                                                ",
"                                                 ;=&&$$-                                                                        ",
"                                         6%$$@52oooooooOoo@@@$%*                                                                ",
"                                     *$@4+o2ooo2oooooooooooooooo4+$*                                                            ",
"                                  :$oooooooooooooooo2Ooooooooooo421oo@%                                                         ",
"                                :%2oo11.ooooo2ooooooo2oooooo2Ooo222o.o+o@-                                                      ",
"                               -OO2ooooooo2o2oooo33Ooooooo2ooooooOooo2O2oo@%                                                    ",
"                              #2ooooooooooOoo2OoooooooooooO2o2O2oooooooooo12@-                                                  ",
"                             @+oo3oo2Ooooo2O3oooooooooooo222ooooo2oo2oooo22+o+$                                                 ",
"                            $X2oooooooooo2ooooo31oo+2oooo2Xooooooo222oooo2oo12o@-                                               ",
"                           *.oooooooo2ooooOoooooo224o.o2oo++++@o+@@@@@@+@+555@O3@&                                              ",
"                          %o.o2oooo2Oooooo2ooooo+@@@@6%$%%$                                                                     ",
"                         :+oo2ooO2oOo2ooo++@$%*-                                                                                ",
"                         @ooooooooo214+#*                                                                                       ",
"                        $22ooooooooo$-                                                                                          ",
"                       ,@ooooooo++@,                                                                                            ",
"                       $ooooooooo+:                                                                                             ",
"                      -oXoooooooo@                                                                                              ",
"                      $ooooooooooo,                                                                                             ",
"                     :Oo+ooooooooo$                                                                                             ",
"                     %22ooooooo232.#                                              -$$#@+@                                       ",
"                     @2ooooooooO.1O25-                                     -%$@@ooo222.+-                                       ",
"                     ooooo2ooOoooooooo@-                              -$@++ooo2+oooo3o2$                                        ",
"                     oooooooo3oooooooo+o@*                       *5555+X++oo2oo2ooooo2@-                                        ",
"                     $+oo22ooooooooooo.2o.o@-                %@@+oooooo2422ooo3oooooo+%                                         ",
"                     -o1+12oooooo3oooo3ooooo.o$%         %@@Oo23ooooo2oo+2oooooo+oooo+                                          ",
"                      @OX23oooooooooooooooo.ooo2+@$6*%#oOO2ooooooo2ooooo22oooooo2+Xo2%                                          ",
"                      <@22oooooo3ooo3oooooo3ooooo2o2o212@22oooooooooooo2oooooooOo22O-                                           ",
"                       %o2ooooooooooooooooooo22oo+oooOooo22O2ooooooooooOoooooooo222+                                            ",
"                        -+ooooooooo3oooooooooooooooooo2Ooooooooooo2oooooOooooo2O+++,                                            ",
"                         $+oooooooooooooooooooooooooooo2o2oooo3oooooooooooooooo2++-                                             ",
"                          %o2ooooooooo3o3ooo3oooooo2ooooooO2oooo.o22ooo2ooooooO@@=                                              ",
"                           -oo31ooooooo3o2oooooooooooo2oooo22ooooooo2o.++@5$%                                                   ",
"                            %o.OoooooooooOooo2ooooooooooooo2ooooo.2@5%*                                                         ",
"                             :#12o3oooooooo2oooo2ooooo+o2o+Xoo@@$%                                                              ",
"                               @2ooooooo2ooooooooo2ooo++235$**                                                                  ",
"                              %@oo3oooooOooooooooooo22@@*                                                                       ",
"                             $+2ooooo3oo2oooo+o2O2o@%*                                                                          ",
"                           ;+1ooooooooooo2O322+5@%                                                                              ",
"                          %@1o+oooooooooooo1o@-                                                                                 ",
"                         $ooooooo2oooooooo+$=                                                                                   ",
"                        @o.ooooo1ooo.ooo@-                                                                                      ",
"                       5oo.oooooooo3o+@-                                                                                        ",
"                      $Oo1ooooooo.oO%:                                                                                          ",
"                     *2ooooooooo23@:                                                                                            ",
"                    :+o2oooo...o@:                                                                                              ",
"                    @ooooooo12@%                                                                                                ",
"                   #+3oooooooo*                                                                                                 ",
"                   @.ooooooo$:                                                                                                  ",
"                  *+2ooooo1@:                                                                                                   ",
"                  o@22+1o+2-                                                                                                    ",
"                 :oo+2oooo*                                                                                                     ",
"                 %oo+1oo1@                                                                                                      ",
"                 @2O2Xo22;                                                                                                      ",
"                <@2o2X3oo:                                                                                                      ",
"                =o2+o.ooo=                                                                                                      ",
"                =+2+2ooo+=                                                                                                      ",
"                -o2o22+oo,                                                                                                      ",
"                $ooo222o2%                                                                                                      ",
"                @oo+o22Ooo<                                                                                                     ",
"                @ooo+ooooo@                                                                                                     ",
"                @4oooooooo@@                                                                                                    ",
"                $+ooo2oooooo5                                                                                                   ",
"                %o3Xo2oooooo2@=                                                                                                 ",
"                :O22oooooooo21.@-                                                                                               ",
"                <OXo2oooooo3ooooo@%                                                                                             ",
"                 $2o22ooo2OOoooooooo$%                                                                                          ",
"                 *1XO2oooo2oooooooo32o+@%%                                                                                      ",
"                  @+4ooooo2Oooooooooo2oooo+@@#%                                                                                 ",
"                  %+o.oooooooooooooooooo222o22oO@@$$%%*                                                                         ",
"                   +22oooooooooooooooo2ooooo2ooooooooo+@@@@@@$$$$%%$                                  6                         ",
"                   ,@ooo2Oooooooooooooooooooooooooooo222X+2222.o5ooo2++o@@@@5@@O5@o@o@Oo@o@@+5+o+@o+5o2%                        ",
"                    -@+ooOoooooooooooooooooooooooooo3ooooo.ooo3oX2ooooooooooooo22oooo3ooooooooooo...++@*                        ",
"                     -++o22oo2ooooooooo3ooooooo2ooo2oooooooooooooooo2ooooOooo23oooooooooo2oo2ooooooo@*                          ",
"                      -+o2oooooooooo2ooO3ooooO2Ooooooooooooooooooooooooooooooooooo2oooooooo2oooo@@%                             ",
"                       ,+1@ooo2ooooooooooo2oo3ooooooooooooooooooo2oooo2oooooooooooooooooooo32o$%                                ",
"                         %Oo.22oooooooooooooooooO2oo3oooooooooo3ooooooO2oOooooooooooooo22o2@$-                                  ",
"                           %ooooooooooooooooooO2o2oooo3ooooo3oooooo3oooooooooooooooooo.o3$-                                     ",
"                            :#+oooooo2233oo32oooo3oooooooooooooooooooo2ooooooOoooooooO$*                                        ",
"                               $+oooooooo3ooO2oooOooooooo3oooooooooooo2Oooooooooooo@%                                           ",
"                                 -$@+22o.ooo2oooooooooooooo22oooOo2ooooooo2o+o22@%-                                             ",
"                                     -%@o+oo22O22oo2ooooooo2oooo3ooooooo22o52@$-                                                ",
"                                         -*%$++3oX22o.ooO3222o+o2222o2Oo1.o5%                                                   ",
"                                                -%%$@@@@+@@oo+ooOooooo@+@$=                                                     ",
"                                                                                                                                ",
"                                                                                                                                ",
"                                                                                                                                ",
"                                                                                                                                ",
"                                                                                                                                ",
"                                                                                                                                ",
"                                                                                                                                ",
"                                                                                                                                ",
"                                                                                                                                ",
"                                                                                                                                ",
"                                                                                                                                ",
"                                                                                                                                "
};
