/* XPM */
static char *arabic111709524305[] = {
/* columns rows colors chars-per-pixel */
"128 128 16 1 ",
"  c None",
". c #4F154A",
"X c #4F1B49",
"o c #521547",
"O c #51154A",
"+ c #521B4B",
"@ c #54224D",
"# c #59254E",
"$ c #55294F",
"% c #58294F",
"& c #562551",
"* c #592551",
"= c #572B51",
"- c #5C2D54",
"; c #5E3357",
": c #62345A",
/* pixels */
"                                                                                                                                ",
"                                                                                                                                ",
"                                                                                                                                ",
"                                                                                                                                ",
"                                                                                                                                ",
"                                                                                                                                ",
"                                                                                                                                ",
"                                                                                                                                ",
"                                                                                                                                ",
"                                                                                                                                ",
"                                                                                                                                ",
"                                                                                                                                ",
"                                                                                                                                ",
"                                                                                                                                ",
"                                                                           @+&                                                  ",
"                                                                          &.OO++                                                ",
"                                                                         =OOOOOOO++*                                            ",
"                                                                         OOOOOOOOOOO+@                                          ",
"                                                                        OOO+OOOOOOOO.OO+&                                       ",
"                                                                       @OOOOOOOOOOOOOOOOOO+@                                    ",
"                                                                      &OOOOO+OOOOOOOOOOOOOOO++@                                 ",
"                                                                     *OOOOOOOOOOOOOOOOOOOOOOOOX+                                ",
"                                                                     +OOOOOOOOOOOOOOOOOOOO.OOOO+                                ",
"                                                                    +OOOOOOOOOOO+OOOOOOOOOO..O+                                 ",
"                                                                   @OOOOOOOOOOOOOOOOOOOOOOO.OO-                                 ",
"                                                                  @OOOOOOOOOOOOOOOOOOOOOOOOO.#                                  ",
"                                                                 &..OOOOOOOOOOOOOOOOOOOOOO.O&                                   ",
"                                                                 +OOOOOOOOOOOOOOOOOOOOOOOOO+                                    ",
"                                                                   @+OoOOOOOOOOOOOOOOOOOOO+                                     ",
"                                                                      @+OOOOOOOO+OOOOOOOOO-                                     ",
"                                                                         @OOOOOO.O.OOOOOO&                                      ",
"                                                                           *@+OOOOOOO.OO@                                       ",
"                                                                              &+X.OO.OO+                                        ",
"                                                                                 @++OO+                                         ",
"                                                                                    @+=                                         ",
"                                                                                                                                ",
"                                                                                                                                ",
"                                                                                                                                ",
"                                                                                                                                ",
"                                                                                                                                ",
"                                                                                                                                ",
"                                                                                                                                ",
"                                                                                                                                ",
"                                                                                                                                ",
"                                                                                        #+&                                     ",
"                                                                                        +OO*                                    ",
"                                                                                        OOOO@                                   ",
"                                                                                       &OOOOO+                                  ",
"                                                                                       +OOO.OO+                                 ",
"                                                                                       O.OOOOOO@                                ",
"                                                                                      *OOOOOOOOo-                               ",
"                                                                                      &.OOOOOOOO+                               ",
"                                                                                      +.OOOOOOOOO+                              ",
"                                                                                     *OOOOOOOOOOOO-                             ",
"                                                                                     *OOOOOOOOOOoO+                             ",
"                                                                                     +OOOOOOOOOO.O+=                            ",
"                                                                                    -XOOOO+OOOOO.OO+                            ",
"                                                                                    &OOOOOOOOOOOOO.+                            ",
"                                                                                    +OOOOOOOOOOOOOOo%                           ",
"                                                                                    XOOOOOOOOOOOOOO.@                           ",
"                                                                                     +OOo.OOO+OOOOOO+                           ",
"                                                                                      *O.OOOOOOOOO+O+                           ",
"                                                                                       =O.OOOOOOOOOOO                           ",
"                                                                                        *+OOOOOOOOOOO:                          ",
"                                                                                         *+OOOOOOOOOO:                          ",
"                                                                                          &OOoOOOOOOO-                          ",
"                                                                                           @OO.OOOOOO:                          ",
"                                                                                            O.OOOOOOO-                          ",
"                                                                                             +OOOOOOO-                          ",
"                                                                                             @OOOOOOO-                          ",
"                                                                                              +OOOOOO-                          ",
"                                                                                              @OOOOOO;                          ",
"                                                                                              *OOOOOO-                          ",
"                                                                                               +OOOOO:                          ",
"                                                                                              *OOOOOO-                          ",
"                                                                                              @.OOOOO;                          ",
"                                                                                              +OOOOOO;                          ",
"                                                                                             +OOOOOOO;                          ",
"                                                                                            +OOOOOOOO-                          ",
"                                                                                           @OOOOOOOOO-                          ",
"                                                                                          @OO..OOOOOO;                          ",
"                                                                                        *+OOOOOOOOOOO;                          ",
"                                                                                       @OOOOOOOOOOOOO-                          ",
"                                                                                      &OOOOOOOOOOOOOO-                          ",
"                                                                                    *+.OOOOOOOOOOOOOO:                          ",
"                                                                                   ++.OOOO+OO+OOOOOOO                           ",
"                                                                                 &OO.OOOOOOOOOOOOOOO+                           ",
"                                                                                @OOOOOOOOOOOOOOOOOOO&                           ",
"                                                                              @OOOOOOO+OOOOOOOOOOOOO                            ",
"                                                                            #+OOOOOOOOOOOOOOOOOOOOO;                            ",
"                                                                          =+OOOOOOOOOOOOOOOOOOOOOO+                             ",
"                                                                         +OOOOOOOOOOOOOOOOOOOOOOO+                              ",
"                                                                       ++OOOOOOOOOOOOOOO+OOOOOOO+                               ",
"                        *@&                                          @OOOOOOOOOOOOOOOOOOOOOOOOO+                                ",
"                       &OOO+&                                      @+OOOOOOOOOOO+OOOOO+OOOOoOO+                                 ",
"                      &O.OOOO++                                  @+OOOOOOOOOOOOOOOOOOOOOOOoOO+                                  ",
"                      +OOoO..OOOO&                            &+OOoOOOOOOOOOOOOOOOOOOOOOOOOO#                                   ",
"                       *O..OOOOOOOO+&                       @+OOOO.OOOOOOOOOOOOOOOOOOOOOOOO@                                    ",
"                         &++OOOOOO...O++@*              +++.OOOOOOOOOOOOOOOO+OOOOOOOOOOOO+#                                     ",
"                           *+OOOOOOOOO.oOOOO++OO+++++++OOOO.OOOOOO+OOOOOOOOOOOOOOOOOOOO.X                                       ",
"                              ++.OOOOOOO.OOOOO.OOOOOOOOOOOOOOOOOOOOOOOOO+OOOOOOOOOOOOOO@                                        ",
"                                &+.OOOOOOOOOOO+OOOOOOOOOOOOOOOOOOO.+OOOOOOOOO+OOOOOO.+=                                         ",
"                                  &+OOOOOOOOOOOO+OOOOOOOOO+OOOOOOOOOOOOOOOOOOOOOo.O.&                                           ",
"                                     +OOOOOOOOOOOOOOOOOOOOOOOOOOOOOO.+OOOOOOOOOO.++                                             ",
"                                       @+OOOO.OOOOOOOOOOOOOOOOOOOOOOOOO+OOOOOOOO+&                                              ",
"                                         =+OOOOOOOOOOOOOOOOOOO+OOOOOOOO.OOOOOO+&                                                ",
"                                            *++OOOOOOOOOOOOOOOOOOOOOOOOOOOOO+&                                                  ",
"                                               &+OOOOOOOOOOOOOOOOOOoOOOOO++=                                                    ",
"                                                   &++OOOOOOOOOOOOOOOOO+@                                                       ",
"                                                       &@+++OOO+OO+++&                                                          ",
"                                                                                                                                ",
"                                                                                                                                ",
"                                                                                                                                ",
"                                                                                                                                ",
"                                                                                                                                ",
"                                                                                                                                ",
"                                                                                                                                ",
"                                                                                                                                ",
"                                                                                                                                ",
"                                                                                                                                ",
"                                                                                                                                ",
"                                                                                                                                ",
"                                                                                                                                ",
"                                                                                                                                ",
"                                                                                                                                ",
"                                                                                                                                ",
"                                                                                                                                ",
"                                                                                                                                "
};
