/* XPM */
static char *arabic121709524305[] = {
/* columns rows colors chars-per-pixel */
"128 128 32 1 ",
"  c None",
". c #06779E",
"X c #09769E",
"o c #04789D",
"O c #0D789D",
"+ c #12769D",
"@ c #1A779C",
"# c #14799D",
"$ c #1B799E",
"% c #22779B",
"& c #237A9D",
"* c #2B7C9D",
"= c #347E9D",
"- c #387E99",
"; c #0577A0",
": c #0B76A0",
"> c #0E79A0",
", c #1176A1",
"< c #1A76A1",
"1 c #177DA1",
"2 c #1C7BA1",
"3 c #247DA1",
"4 c #297DA0",
"5 c #347EA1",
"6 c #218398",
"7 c #32829F",
"8 c #3D809E",
"9 c #1F80A0",
"0 c #2680A2",
"q c #2C81A3",
"w c #3482A3",
"e c #3883A3",
/* pixels */
"                                                                                                                                ",
"                                                                                                                                ",
"                                                                                                                                ",
"                                                                                                                                ",
"                                                                                                                                ",
"                                                                                                                                ",
"                                                                                                                                ",
"                                                                                                                                ",
"                                                                                                                                ",
"                                                                                                                                ",
"                                                                                                                                ",
"                                                                                                                                ",
"                                                                                                                                ",
"                                                                                                                                ",
"                                                                                                                                ",
"                                                                                                                                ",
"                                                                                                                                ",
"                                                             $&                                                                 ",
"                                                             1<                                               8                 ",
"                                                             #+                                               $                 ",
"                                                             +X&                                             &O&                ",
"                                                            *X.@                                             $X$                ",
"                                                            &;;+                                             O:O                ",
"                                                            @:;X&                                           %X.:                ",
"                                                            ++XO#                              %3           O:X+&               ",
"                                                            O:XXO                             &X2          &;O.+$               ",
"                                                           *XXX.X*                           *XO$          +:O.+$               ",
"                                                           2XXX.X,                          *Xo+3         &;XX;:#               ",
"                                                           #.XX.XO                          #OOX2         #+OoX:O               ",
"                  =                                        #XXXXOO*                        *XOX.&        &.O.:OOO               ",
"                  O$                                       XXXXXXX<                        &XX..%        +o.:XXXO               ",
"                 %.X$                                     *XXX.XXX@                        $XOXX$       *X.XXXXXX*              ",
"                 #XOX*                                    &..XXXXXO                        $XXXX&       $O.XXXXXX&              ",
"                &..O+&                                    @.XXXXXX:3                       $XX.X&       OX.X.XXXX$              ",
"                +X.;@                                     OXXXXXX.X3                       2+XXX$       @XXXXXX.X$              ",
"               *+X.X@                                    3OXXXXXXXX$                       <+.X:$       #XOXXXXX.$              ",
"               $XX.X7                                    3O.XX.XXXX#                       #+.X+$       #XXXXXXXX$              ",
"               +:Xo+                                     $O.XXXXXXX#                       @XX+X&       3XXX.XX.X$              ",
"              &OXXX*                                     +,.XXXXXXXO                       #XXOX         +OXXXXXX$              ",
"              +X..O                                      O+..XXXXXXX                       OX.XX         @XXXXXX.#              ",
"             3X..X+                                      XO;.XXXXX.X                       :XOXX         2+XXXXX.$              ",
"             $XX.O&                                      +...XXX.XXX=                     *:.OXX         *:.XX.XX$              ",
"             XXX.+                                       $X.XX.XXXXX4                     @X.oo#          OXXXXXX2              ",
"            2XX..@                                       =+X:XXXXXX.$                     OXX.;$          #X.XXX.@              ",
"            #XXXO*                                        +OXXXXXXO.$                    $,X+XX$          &XXXXX.@              ",
"            +:XX#                                         2+XXXX.XX;&                   -@+::XX+7         &:.XXXX2              ",
"           &OXO:&                                         3OXXXXXX:X2                   @XXXXXX.O2=        +XOXX.2              ",
"           +O:XO=                                          +XX.XXXOO#                 5@+;.XXXX.X.X@3      +,XXX.2              ",
"           OOX.@                                           &OXXXX.X:&               8&.:X+XXXXXXXX.XX#&4   +X.XXX<              ",
"          2:.XX$                                           *OXXXXX..2            -&#XX+X;OXX.XXXXXX:+::X+33@X.X..@              ",
"          +O.X+2                                            +XXXX..:,%&%&&3&&$$++XXX..OXO.XXXXX.XX+XX.XXOOXXXXXXX$              ",
"          OXX:@                                             $.XOXXXXXXXXXXXX:XXXXXXXXXXXXXXXXXXXXXXXXXXXXXXXXXXX.2              ",
"         &:XXo2                                             3;XOXXXXXXXXXXX..XXXXX.XXXXXXXXXXXXXXXXXXXX.XXXXX.XXX@              ",
"         +..XX3                                              @XXXXX.XXXXXXXXXXX.X.XXXX.XXXXX.XXXXXXXXXXXXXXXXXXX.2              ",
"         O.X.+                                               <O.XXXX.XX..XXXX.XX..XXXXXX.XX.XXXXXXXXX.XXXX.XXXXXX$              ",
"        &X..O@                                               2+X.XXXXXXXXXXXXXXXXXXXX.XXXXXXXXX.XXXXXXX.XXXXX.XX.<              ",
"        $O;;X&                                                OXXXXXXXXXXXXXXXXXXXXXX.X.XX..;XXXXXXXXXXXXXXXXXXX.$              ",
"        #:.X.4                                                +.XX;XXXXXXXXXX.XX.XXXXXXXXXX;XXXX.XXXX.XXXX.XXXX..2              ",
"        X.:XO                                                 %;XXXXXXXX.XX.XXXXXX.XXX.XX.XXXXXXXXX.XXXX.XXXXXXXX@              ",
"       2X.+.#                                                 &.XXXXX;XXXXXXXXX.XXXXXXXXXXXXXX;XXXXXXXX.XXXX.XXX.2              ",
"       $.OO;$                                                  :X.XXXXXXXXXXXXXX.XXXXXXXXX.XXXXXXXXXXXXXXXXXXXXXX$              ",
"       #XO;X$                                                  O;.XXXXXXX.XX.XXXXXXXXXXXXXXXXXXXXXXX.XXXXXX.X.XX.<              ",
"       O:X.X*                                                  +.XXXX.XXXXXXXXX.XXXXXXXXXXXXX;XXXXXXXXX.X.XXXXXX.$              ",
"      &:+X.O*                                                  $XXX.XXXX.XX.XXXXXX.XXXXXXX.XXXXXXXX.XXXXXXXX.XXX.2              ",
"      %,X.:O                                                   $XXXXX.XXXXXXXXXX.XXXXXXXXXXXXXXXXXXXX.XXXXXXXXXX.<              ",
"      <XXXOO                                                   $.XXXXXXX.XXXXXXXXXXXX.XX.XXX..XX:XXXXXXXXX.XXXX.X@              ",
"      #XXXXX                                                   3X+X.XXXXXXXXXXXXXXXXXXXXXX.XXoo.XXXXXXXXXXXX.XXX.2              ",
"      #XXO:O                                                   3XXXXX.XXXXX.XXXXXX.XXX.XX..X:O,O.XXXXXX..XXXXXXXX$              ",
"      ,XXX.O                                                   4XX..XXXXXXXXXXXXX.XXX.XXX.X:;+XO+XXXXXXXXXXXX.XX.@              ",
"     3XXXX.O                                                   =XX+XXXXXXXXX.XXXXXXXXXXXXXO:% 6#XX.XX.XXXXX.XXXX.2              ",
"     2XX:XX+                                                   4+;XX.;..X.XXXXXXXXX..X.O,.X%    &@.+X.XX;XX.XXXXX@              ",
"     %XXXO+:                                                   *+;.;++XXXX:X:XXXXXX.o;;.XX%       3@X.XO+XXXO:X..$              ",
"     &OXXX++                                                   &.:X;XO;;..;;;.;.XXXX:O+.O4          *&X;XXX:XOXXX$              ",
"     $:XXX:@                                                   $.:O.o;XOXXOXXXOXXXX..O#&              *$#O.X.oXXX+              ",
"     @X.XXOX3                                                  #X.XXX@+O:++++++,+#$&&=                   54&&@,@#*              ",
"     #.XXXXX&                                                  OX.oX$                                                           ",
"     @XXX.XX$                                                 *XX.XX1                                                           ",
"     #XXX:XX+                                                 @XXX.X2                                                           ",
"     +.XXXOO.&                                                +XXX.X$                                                           ",
"     O.XXXOXX+                                               &XXXX.X$                                                           ",
"     O.XXXX.+:2                                              +;XXX.X$                                                           ",
"     XXXXXXXXX#                                             %;;XXXX+3                                                           ",
"     OXXXX.XXO+$                                           *+oXXXX.+                                                            ",
"     X.XXXXXX..O*                                         *Ooo.XXX:O                                                            ",
"     X.XXXX.X.;+X*                                       *+X..X;XXXO                                                            ",
"     OXXXXXXXXXXXO=                                     *#XXXX:XXXOO                                                            ",
"     >XX.XXXX.XXX:@=                                   *OXXXXXXXXXX#                                                            ",
"     +XXXXXXXXXXXOo+*                                 $;XXXXXXXX.XX$                                                            ",
"     #XXXXXXX.XXX:X.X@                              &O+:;XXXXXXXXX.&                                                            ",
"     $XXXXXXXXXXXX++X.+3                          *#+OOOXXXXX.XXXXX*                                                            ",
"     $XX.XX.XXXXXX;:+XX+@&5                     %@X.:XOXXXXXXXXXXXO                                                             ",
"     3XXXXXXXXX.XX.XXXXX.XO#&4              w&#OX.X.XXXXXXXX.XXXXO+                                                             ",
"      XXX;XXXXXXXXXX.XXXX.XO::@++$2&*43&@#@++,XXX.XXXXXXXXXXXXXXO.#                                                             ",
"      +XXXXXX.XX.XXXXXXXXX..X+;.OXXOXO+OX.oo..XXXXXX;XXXXXXXXXX.O:3                                                             ",
"      @XXXXXXXXXXX.XXXX.XXOX:;O.;;O:X:::++++O;;XXXXX..XXXX;XXXXX:#                                                              ",
"      %XXXXXXXXXXXXXXXXXXXXXXX.X.XOXX..XXX..XXXXX.XXXX;XXXXXXXX+:@                                                              ",
"       #XXXXXXXX.XXXXXXXXXX;.XXXXXXXXXXX.XXXXXXXX.XX.XXXXXXXX.XXX*                                                              ",
"       @;:XXXXXXXX.XXXXXXX;XX.XX.XXXXXX.XXXXXXXXXXXXXX.X.XXXXXXX@                                                               ",
"       6:+XXXXXXXXXXXXXX;XXXXXXXXX...XXXXXXXXXXXXXXX.X..XX.XXX.X&                                                               ",
"        %X.XXX.X.XXXXXXXXXXXXXX.XXX;XXXXXXXX.XXXXX.XXXXXXXXXXXX+                                                                ",
"        *OOX.OXoXX.XXXXXXXXXXXXXXXXXXXXX.XX.XX.XXXXXXXXXXXXXX;O&                                                                ",
"         $+X.OXXXXXXXX.XXX.X.XXXXXXXXXX;XXXXXXXXXXX.XXX.XXXX:;#                                                                 ",
"          O.+.XXXXXXXXXXXXXXXX.XX;XXX;XXXX.XX.XX.XXXX.XX.XXXX@4                                                                 ",
"          *X..XXX.XX.XXXXXX.XXXXXXXXXXXXXXXXXXXXXXXXXXXXXXX..%                                                                  ",
"           &XoXXXXX.XXXXXXX.XXXXXX.XXXXXXX.XXXXXX.XXXXXXXXXX@                                                                   ",
"            $XXXX:X+XXX.XXXXXXX.XXXXXXXXXXXXXX.XXXXXX..XXX.@                                                                    ",
"             $OX:X.XXXXXXXXXX.XXXXXXXXXXXXXXXXXXXXXXXXXOO:X*                                                                    ",
"              $,.X+..XXXXXXXXXXX.XXXXXXXX.XX.XX.XX.XXXOX;@=                                                                     ",
"               2X,<+XXXXXXXXXXX.XXXXXXXXXXX.XXXXXXXX.X;O@                                                                       ",
"                *@;;X..X.XX.XXXXXX.XXXXXXXXXX.XXX.XXXX<*                                                                        ",
"                  %++.XXXX.XXX...XXXXXXXXXXXO:O:XXX.X@5                                                                         ",
"                    %+XXXX.XX.XXX;..:XX:X:XXO.X:XX+%=                                                                           ",
"                      =$##Xoo.X@+:;.;;;;X.;;O,:,&*                                                                              ",
"                         54&#O@:OXXOO+OO:O#@&*4                                                                                 ",
"                               weq0&*5wwe                                                                                       ",
"                                                                                                                                ",
"                                                                                                                                ",
"                                                                                                                                ",
"                                                                                                                                ",
"                                                                                                                                ",
"                                                                                                                                ",
"                                                                                                                                ",
"                                                                                                                                ",
"                                                                                                                                ",
"                                                                                                                                ",
"                                                                                                                                ",
"                                                                                                                                ",
"                                                                                                                                "
};
