/* XPM */
static char *arabic291709524308[] = {
/* columns rows colors chars-per-pixel */
"128 128 37 1 ",
"  c None",
". c #FF0302",
"X c #FB0A04",
"o c #FD0509",
"O c #FA0C0B",
"+ c #F71007",
"@ c #F6130E",
"# c #F8110C",
"$ c #F5180F",
"% c #F80E11",
"& c #EF1E1C",
"* c #F61413",
"= c #F81311",
"- c #F41A15",
"; c #F6151A",
": c #F81218",
"> c #F41C1A",
", c #EE241C",
"< c #F22116",
"1 c #F2221D",
"2 c #F4281F",
"3 c #F21E22",
"4 c #EE2522",
"5 c #ED2B24",
"6 c #EE262A",
"7 c #EE2D2B",
"8 c #F22423",
"9 c #F12A25",
"0 c #F1252A",
"q c #F12A2A",
"w c #EC3125",
"e c #EC332B",
"r c #F0302D",
"t c #E92F32",
"y c #F02B31",
"u c #EC3132",
"i c #F03231",
/* pixels */
"                                                                                                                                ",
"                                                                                                                                ",
"                                                                                                                                ",
"                                                                                                                                ",
"                                                                                                                                ",
"                                                                                                                                ",
"                                                                                                                                ",
"                                                                                                                                ",
"                                                                                                                                ",
"                                                                                                                                ",
"                                                                                                                                ",
"                                                                                                                                ",
"                                                                                                                                ",
"                                                                                            98                                  ",
"                                                                                       >-*OX.oXO*8                              ",
"                                                                                    0=XXX.......X.$0                            ",
"                                                                                  3OX..o..........XO8                           ",
"                                                                                0=XXXo.X........X..XO6                          ",
"                                                                               >OX....XX.............O                          ",
"                                                                             7%..X..............X.XXX.-                         ",
"                                                                            ,Xo.......................Ou                        ",
"                                                                           >O.X.....................oXX-                        ",
"                                                                          >..oX........................-                        ",
"                                                                         *X...........................o=                        ",
"                                                                        *..............................o                        ",
"                                                                       *.XX..........................X..q                       ",
"                                                                      *XXo.............................X9                       ",
"                                                                     >..............................o..O9                       ",
"                                                                    <X..............................o...q                       ",
"                                                                   6.X.................................o9                       ",
"                                                                  7X...............X..........X........X                        ",
"                                                                  =XOXX...............X....oX.XX.....oX@                        ",
"                                                                 *XXo..............XXOO=-311=OXo......X:                        ",
"                            ,e                                  1X..XX.........X.XX#-q        -X.....X.3                        ",
"                           ;XX>                                 O.X............o.*9            8....X.#                         ",
"                          4OX..>                               -.X.........X.XX*9               ;XX..X*                         ",
"                          OX..+5                              1Xo...........O*7                  oXo.o5                         ",
"                         @..XX>                               #oX.........X*8                    3X.X>                          ",
"                        >X+X.=                               -..........XO4                       OoOe                          ",
"                       q=.XXX0                              7X........Xo:                         <X1                           ",
"                       %Xoo.-                               =.........o-                           -                            ",
"                      >X...#                               6o........O5                                                         ",
"                     qOX..o8                               ;........O7                                                          ",
"                     -o.X+=                               uO......X.8                                                           ",
"                    3XXXXX6                               ;......X.*                                                            ",
"                    Oo.XX;                                O.X....o.8                                                            ",
"                   -....Xw                               6X......XX6                                                            ",
"                  8X.XX.*                                ;.o.......=                                                            ",
"                  @X.X.Oe                                #X..X...X..O>w                                                         ",
"                 1oXX..-                                 OX.......X.X.X+%#=*->>>>->----;>1888                                   ",
"                 O...XOe                                9...........................o.......XXO-9                               ",
"                <.....-                                 1....................................X..o=5                             ",
"               eX....o6                                 2X...................................XXXXXo7                            ",
"               -X..X.=                                  9o......................................oXo-                            ",
"              7O.o.Xo2                                   X......................................Xo.%                            ",
"              -X.XX.+                                    X.X......................................XOq                           ",
"              O..X.o-                                    -.X......................................X.2                           ",
"             1o..o.O5                                    4.........................................o2                           ",
"             O....o#                                     y#.....................................X..X8                           ",
"            9.....X>                                      -o........................................q                           ",
"            -.....o2                                       +......................................Xo                            ",
"            =o....X                                        9%X.X..................................XO                            ",
"            O.....O                                          *O..XX..o...........................oXO                            ",
"           6X.....:                                           7:Ooo.............................X.X;                            ",
"           -......3                                              q1*@oXXX.X......................XX>                            ",
"           O......4                                                    76>--**----**=@@OXX........X8                            ",
"           O......,                                                                      9#X.....XO                             ",
"          rO......,                                                                       -.......%                             ",
"          8o.o....>                                                                      0O......X-                             ",
"          3.......>                                                                     3+.......X9                             ",
"          &.......=                                                                   8=XXoX.....*                              ",
"          -......XO                                                                 <OOX#oXX.....,                              ",
"          -.......X5                                                             8:ooo..o.......O                               ",
"          #X......o>                                                           3=+X..........X..-                               ",
"          #.......XO                                                        8*X.X.X..........oXOe                               ",
"          X.X.......>                                                    9-OXX....X........X.o.-                                ",
"          O.......X.O7                                                 >#X..XX..XX..........XXOe                                ",
"          O..........O                                              >%oX....................oX-                                 ",
"          O...........O9                                        7>#.X........................=                                  ",
"          O............O4                                    8-XX.XoO.......................O5                                  ",
"          #X.............%8                              ,-#XX..XX......................X..X8                                   ",
"          ;X..............O+*8                     q1-*OX...............................o.X1                                    ",
"          3X..............X..+O@:38599q595448<-@@#o.oo....................................-                                     ",
"          4o...............XX...XXXooXXooooX...oXo.XX..X................................X-                                      ",
"           O..................X....X........X........X..X............................X..>                                       ",
"           %........................................................................oX@,                                        ",
"           8.......................................................................XX$                                          ",
"            O......................................................................=6                                           ",
"            -X.................................................................XX#9                                             ",
"             OXX.............................................................Xo-8                                               ",
"             8...X.........................................................oO-7                                                 ",
"              ;X.......................................................X..%4                                                    ",
"               -X..X...............................................X.X.#*6                                                      ",
"                *o.XXX.........................................XX.X.OO>                                                         ",
"                 -XX..........................................X.oO=>                                                            ",
"                  6O.X........................................##8                                                               ",
"                    1#X..oX.o.XX..X..............XX...o..oX#-2                                                                  ",
"                      1=XO.XXo...............X.X......O%*1q                                                                     ",
"                         2-%OX.o..X..........XXoX#$$-4                                                                          ",
"                             96>==O@O@OO%%@@=*36q                                                                               ",
"                                                                                                                                ",
"                                                                 4-q                                                            ",
"                                                                yo.O-9                                                          ",
"                                                                *o.o.X=3                                                        ",
"                                                               <Xo....o.@3                                                      ",
"                                             >0                OX......o..+>                                                    ",
"                                            -XO*8             *o.o.....o.XXoo-e                                                 ",
"                                           8X...X#1          8........X.X.....O7                                                ",
"                                           @.....XX%3        O............X..X=                                                 ",
"                                          -.....Xo.X.O-     -...............Xo6                                                 ",
"                                         0X.....Xo.....O-q ,X.X.............X>                                                  ",
"                                         =............oX.O-;Xo....XXX.....Xo+                                                   ",
"                                        0.oX............X.7 q-OoX.ooXX.....o4                                                   ",
"                                       7OX.X.............>     >O.XX.X....X*                                                    ",
"                                       ;XX.X..........X.O        4*oXX.X..Oe                                                    ",
"                                      tO.....X.......X.o8          6*X.X..3                                                     ",
"                                       0:X.X..o.....o.o;             q>#X@                                                      ",
"                                         0*XXXXX....XXO                 >w                                                      ",
"                                           7>OX......+2                                                                         ",
"                                              -O...X.=                                                                          ",
"                                                <#XXOq                                                                          ",
"                                                  -@8                                                                           ",
"                                                                                                                                ",
"                                                                                                                                ",
"                                                                                                                                ",
"                                                                                                                                ",
"                                                                                                                                ",
"                                                                                                                                "
};
