/* XPM */
static char *arabic131709524306[] = {
/* columns rows colors chars-per-pixel */
"128 128 31 1 ",
"  c None",
". c #06779E",
"X c #0A769E",
"o c #04789E",
"O c #0C789D",
"+ c #1C7A97",
"@ c #12769D",
"# c #1B779C",
"$ c #14789D",
"% c #1C7A9D",
"& c #207697",
"* c #23779B",
"= c #237B9D",
"- c #2B7C9C",
"; c #327D9C",
": c #3C7E9B",
"> c #0576A0",
", c #0B76A0",
"< c #0D78A0",
"1 c #1176A0",
"2 c #1C77A0",
"3 c #1479A1",
"4 c #1C7BA1",
"5 c #237DA1",
"6 c #2A7DA1",
"7 c #307EA1",
"8 c #26809A",
"9 c #2C809E",
"0 c #2E81A2",
"q c #3583A4",
"w c #43819D",
/* pixels */
"                                                                                                                                ",
"                                                                                                                                ",
"                                                                                                                                ",
"                                                                                                                                ",
"                                                                                                                                ",
"                                                                                                                                ",
"                                                                                                                                ",
"                                                                                                                                ",
"                                                                                                                                ",
"                                                                                   =                                            ",
"                                                                                  -X1=                                          ",
"                                                                                  #X@@3=                                        ",
"                                                                                 =,O..OX@-                                      ",
"                                                                                 $,XXXXXXO%                                     ",
"                                                                                6@XXXXXXXX,O=                                   ",
"                                                                                @>X.XXXXXXO.,                                   ",
"                                                                               7OO.XXX.XXX.X#                                   ",
"                                                                               *.$XXXXXXXXO@6                                   ",
"                                                                               $XX.XXXXXXXX1                                    ",
"                                                                              =>O..XXXX.XXO5                                    ",
"                                                                              OXX.XXXXX.X.$                                     ",
"                                                                             :@@.XX..XXXX.%                                     ",
"                                                                               %@X..X.XX>O                                      ",
"                                                                                -@,.X,@X.-                                      ",
"                                                                                  -#oXOOX:    %%                                ",
"                                                                                    =@XX#    6XX%=                              ",
"                                                                                      =,-    %XXXX#6                            ",
"                                                                                       :     @.XXXXO4                           ",
"                                                                                            4..XXXXX@#=                         ",
"                                                                                 ;          @.XXXX,XX,O%                        ",
"                                                                                =O#=       *,OXXX.XX.,O@;                       ",
"                                                                                $O.X$-     $,X.XXXXXXX12                        ",
"                                                                               4XX,1@O%-  &.,>..XXX.XXX=                        ",
"                                                                               @@,..O@@X==Oo,..X.XXXXX#                         ",
"                                                                              6XXX.XXX1,X..o.XXXX.X@,O-                         ",
"                                                                              #XXXXXXXOOX.XXX.XXXXX,X%                          ",
"                                                                             *O,XXXXXX.XXX..X,OXXOX,X-                          ",
"                                                                             $,OXXXXXX.XX@=*XXOXX.X,$                           ",
"                                                                            ;XOXXXXXXXX>O$  =O,>O,O,=                           ",
"                                                                            #,@X.XXXXXXO1-    %O,>@$                            ",
"                                                                           ;,OXXXXXXXX..%      =@XX-                            ",
"                                                                            -#.XXXXXXXX@-        %#                             ",
"                                                                             ;#O..X.X,X2                                        ",
"                                                                               -#XXXXX@6                                        ",
"                                                                                 =O@XX#                                         ",
"                                                                                  -#X,=                                         ",
"                                                                                    -*                                          ",
"                                                                                                                                ",
"                                                                                                                                ",
"                                                                                                                                ",
"                                                            w                                                                   ",
"                                                            =5                                                                  ",
"                                                            $#                                            *                     ",
"                                                           6,O6                                          =@6                    ",
"                                                           %@,#                                          #@#                    ",
"                                                           #OX$*                            ;           *OXO                    ",
"                                                           @XXX#                           -@0         ;@OXX=                   ",
"                                                          %..X.@-                         *@X0         3.XXX=                   ",
"                                                          $oXXX.4                        *XOO-        =,@>X.$                   ",
"                   -;                                     #OXXX,O                        OOXX=       7$OXXX.O                   ",
"                   OO*                                   -@,.XX>@=                      6XoX,=       #,X.XO,,                   ",
"                  %XX1-                                  %OXXXO,$*                      *X.O,*      ;$X.XXX,,-                  ",
"                 -@X,O;                                  OOXXXO>@$                      %..XO7      +XOXX..X@=                  ",
"                 $,@,=                                   @XX.X>,X,                      =..X@q      -XX,XX.XO6                  ",
"                ->.O3                                   *,OXXX.XX,4                     4.XO1        O.O,..>X5                  ",
"                #>#O%                                   $X,XXXXXX.%                     4@X,@        %>O#XX>.=                  ",
"               =o.O,                                    @OXXXXX.XX%                     #@XX$        6XXX@X>,=                  ",
"               #XX,4                                    #OXXXXXXXX%                     ,XOO%         #X.XX>X%                  ",
"              5XO>#                                     -XXXXXXXX.#                    #>XXX*         5X...>X4                  ",
"              #>OX=                                      %o.XX.XXX$                   ;,XXoo*          ,X.X>O=                  ",
"             %X,,$                                       =XX.XXXXX@                  ;@>@XX@%=-        #>.X>X=                  ",
"             ,oO,*                                        #XXXX.XXO                 =$1@O....XO@%5     %.X,>X4                  ",
"            %1..@                                         *@XXXX.X@              =#OXX>.>X1,,XX>O@@#=- %XX,>,%                  ",
"            $O.>%                                          %,OXXX,O46*=5=%*&%%@@XX.XXX.XXXXXXXXXOXXXXXOOXX.>O%                  ",
"           =OXX,6                                          =>O.XXX.,@O.X,oOoXooOXX.XXXXXXXXXXX.X.XXXXXXXXXX>X%                  ",
"           @XXX#                                            ,XXXXXX.O>XX,,,,,1,OXXXXXXXXXXX.XXXXXXXX.XXX.XX>X5                  ",
"          6..X@=                                            *XOXXXX@XXXXX...o,,.X.XXXXXXXXXXX.XXXXXXXXX.XX.>X#                  ",
"          3.X@O                                             -1XX.X.XXXXXXXXXOXXXXXXXXXX>XXXXXXXXXXXXX.XXXXX>X=                  ",
"          @oX>%                                              @>X.XXXXXXXXXX.XXXX.XXX>XXXXXXXXXXXXXX.XX.XXXX>X%                  ",
"         5,OX>=                                              %XXXXXX.XXX.XXXX.XX.>XXXXXXXXXX.XXX.XXXXXXXX.X>,#                  ",
"         %XXOX-                                              ;XXXXXXXXXXXXX.XXXXXXX.XXXXX.XXX..XXXX.XXXXXX.>O%                  ",
"         $X>X#                                                XXXXXX.XXXX.XXXXX.X.XXXXX.XXXXXXXXXXXXX.XXXXX>X4                  ",
"        ;X.,X%                                                @X.XX..X.XXX.XXXXXXXXXXXXXXXXXXX.XXXXXXXXX.XX>O4                  ",
"        =.>OX$                                                %.XXXXXXXXXXXX.XXXXX.XX.XXXXXXXXXXXXXXX..XXXX>X=                  ",
"        3X>OX%                                                #OXXXXXXX.X.XXXXXXXXXXXXXXXXXXXXXXX.XXXXXXX.X>X=                  ",
"        @O,,X%                                                =XX.XXXXXXXXXXX.XXXXXX.XXXOOXOXXX...XXXXXXXXX>O4                  ",
"        XXX..8                                                =oXX.XXXXXXXXXXXXXXX.,XXX1@=  %$OOX......XX.X>X%                  ",
"       *XXXXO%                                                =,.XXXXX.X.XXXX..XXX@@XXX#;     0=@XXXXXXXXXX>X=                  ",
"       =XXXX@#                                                #.XXX.XXXO..XXO.XXX...O$*          *%$@,,..XXoX%                  ",
"       %XXXX,$                                                O.XXXX@@@@@@@@@@@@@##*9               ;=$$4$@@$*                  ",
"       %XXXX,,                                               :,XXX17                                                            ",
"       #XXXX,1=                                              #>XX,$                                                             ",
"       $XXX.OO1                                             *#..XXO                                                             ",
"       @XXX.O,X=                                            #XXXXX$                                                             ",
"       ,.XX.X,XO-                                          3,.X>XX*                                                             ",
"       O.XXX.XXXO-                                        3XXXXX>.#                                                             ",
"       @XXXXXXXXXX=                                     ;#.XXXXX>>5                                                             ",
"       $X..XXXXXX,$*                                   *@Xo.X.XX>$*                                                             ",
"       %XXXX.XX.o@O>O-                               -%O..>XXXX.>#                                                              ",
"       %.XXXXXX.XXXX.,&;                           =$.XO.XXXXXX@.3                                                              ",
"       -XXX.XXXXX.X>XX.>@%-                     *$,,OXXXXX.XX.>#>%                                                              ",
"        @XXXXX.XXXX>>#XX@1OO$%=9          ;9==#O3XX.XO,XXXXXXXXO,=                                                              ",
"        $..XXXXXXX.X..>,X.,XX,XO@@@@$#@X,OXXXXXOO,X#.oOO.XXXXXOX@                                                               ",
"        &XX.X..XXXXX.XXX,.XXXXXXXXXX.,XX..X..XXX.XXXXXX,XXXX.XXX=                                                               ",
"         ,,,XXXX>XXXXXXX.XXXX.XXXXXX.XXXXXXXXXXXXXXXXXXXX.XXXX.X                                                                ",
"         4X,.XXXXXXXXXXXXX.XXXXX.XXXXXX..XX.XX.XXXXXXX.XXXXXXXX=                                                                ",
"          $OXXXXXX>XXXXXXXXXXXXXXXXXXXXXXXXXXXXX.X.X.XXXXX.XXX%                                                                 ",
"          ;@XX,OXXXXXXXXX.XXXXX.XX.XX.XXXXXXX..XXXXXXXXXXXX.X$7                                                                 ",
"           -@O.OXXXXXXXX.XXX.XXXX>.XXXXXXXXXXXXXXXXXXXXXXX,XX;                                                                  ",
"            =,@.>XXXXXXXXXX.XX.XXX.XXXXX.XXXXXXXXXXXX.XXXXX@6                                                                   ",
"             =@OXXXXXXX.XXXXX.XXXXXX>XXXXX.XXXXXX..XXXXXX.@;                                                                    ",
"              9%XXXXXXXXXXXXXXXXXX>XXXXXXXXXXXXX.o.,@@.X>@-                                                                     ",
"                *@>>o.XXXXXXXXXXXXXX.XXXXXXXXXX>XOOX>,,<=                                                                       ",
"                  4$@Oo.XXXX.X.XXXXXXXXX.X.XXXX.1,.oo$%                                                                         ",
"                    ==@>XXXXXXXX,X.XXXXXXXXXXXXO,O$%6                                                                           ",
"                       -%%@$#O.XOOXX....>XXXX@$==;                                                                              ",
"                            ;=%46=###%%455=6                                                                                    ",
"                                                                                                                                ",
"                                                                                                                                ",
"                                                                                                                                ",
"                                                                                                                                ",
"                                                                                                                                ",
"                                                                                                                                ",
"                                                                                                                                ",
"                                                                                                                                ",
"                                                                                                                                ",
"                                                                                                                                ",
"                                                                                                                                "
};
