/* XPM */
static char *arabic91709524309[] = {
/* columns rows colors chars-per-pixel */
"128 128 18 1 ",
"  c None",
". c #4F1646",
"X c #4F1549",
"o c #4F1A49",
"O c #511547",
"+ c #51154A",
"@ c #521B4B",
"# c #54224D",
"$ c #58214D",
"% c #552A4F",
"& c #562650",
"* c #592453",
"= c #572A51",
"- c #5A2B52",
"; c #5F2F59",
": c #5B3156",
"> c #5E325A",
", c #603057",
/* pixels */
"                                                                                                                                ",
"                                                                                                                                ",
"                                                                                                                                ",
"                                                                                                                                ",
"                                                                                                                                ",
"                                                                                                                                ",
"                                                                                                                                ",
"                                                                                                                                ",
"                                                                                                                                ",
"                                                                                                                                ",
"                                                                                                                                ",
"                                                                                                                                ",
"                                                               =++@#                                                            ",
"                                                              -+++++++*                                                         ",
"                                                              ++++++++++@*                                                      ",
"                                                             @+++++++++XXX+@$                                                   ",
"                                                            @+O+@++++++++++++++@-                                               ",
"                                                           @++++++++++++++++++++++@&                                            ",
"                                                          @++++++++++++++++++++++++++@*                                         ",
"                                                         #++++++++++++++++++++++++++++++@#                                      ",
"                                                        $++++++++++++++++++++++++++++++++++@                                    ",
"                                                       &+++++++++++++++@+++++++++++++++++++*                                    ",
"                                                      *++X+++++++++++++++++++++++++++++++O#                                     ",
"                                                     -++++++++@++++++++++++++++++++++++++#                                      ",
"                                                     @X++++++++++++++++++++++++@++++++++@                                       ",
"                                                    @+++++++++++++++++++++++++++++++++++                                        ",
"                                                   oX+++++++++++++++++++@+++++++++++++@                                         ",
"                                                  %X+++++++++++++@+++++++++++++++++++@                                          ",
"                                                    @@++++++++++++++++++++++++++++++O                                           ",
"                                                       *@+++++X++++++++++++++++++++@-                                           ",
"                                                          *&+++++++++++++++++++++++*                                            ",
"                                                             *@@++++++++++++++++++#                                             ",
"                                                                 #@++++++++++++++#                                              ",
"                                                                    #@+++++++++X@                                               ",
"                                                                       &@++++++#                                                ",
"                                                                          *@++@                                                 ",
"                                                                                                                                ",
"                                                                                                                                ",
"                                                                                                                                ",
"                                                                                                                                ",
"                                                                                                                                ",
"                                                                                                                                ",
"                                                                                                                                ",
"                                                                                                                                ",
"                                                                                                                                ",
"                                                                                                                                ",
"                                                                                                                                ",
"                                                                                                                                ",
"                                                                                     @+*                                        ",
"                                                                                    =.++@*                                      ",
"                                                                                    @+++X+@                                     ",
"                                                                                   :++++++.@#                                   ",
"                                                                                   #+++++++++@#                                 ",
"                                                                                   o+++++++X+++@                                ",
"                                                                                  *+++++++++++++o-                              ",
"                                                                                  @+++++++++++++++&                             ",
"                                                                                  ++++++++++++++X++#                            ",
"                                                                                 &X+++++@+++++++++++#                           ",
"                                                                                 o+X++++++++++++++++X&                          ",
"                                                                                *+++++++++++++++++++X+@                         ",
"                                                                                #X+++++++++++++++++++++@                        ",
"                                                                                .++X@+++++++++++++++++X+&                       ",
"                                                                               *X+++++++++++++++++++++++o-                      ",
"                                                                               @++++++++++++++++++++++++X@                      ",
"                                                                              :X+++++++++++++++++++++++@++#                     ",
"                                                                              #X++++++++++++++++++++++++++X;                    ",
"                                                                              @X+++++++++++@+++++++++++++++@                    ",
"                                                                             %O+++++++++++++++++++++++++++X+-                   ",
"                                                                             @X++++++++++++++++@@+++++++++++@                   ",
"                                                                             OX+++O+++++++++++++++++++++++++O:                  ",
"                                                                              @@+++++++++++++++++++++++++++++#                  ",
"                                                                                #X+++++++++++++++++++++++++X+o                  ",
"                                                                                  #@++++++++++++++++++++++O+++#                 ",
"                                                                                    #oO+++++++++++++++++++++++@                 ",
"                                                                                      #X++++++++++++++++++++++X                 ",
"                                                                                       =+++++++++++++++++++X+++-                ",
"                                                                                         @++++++++++@++++++++++#                ",
"                                                                                          *@+++++++++++++++++++@                ",
"                                                                                           :o++++++++++++++++@++                ",
"                                                                                             +++++++++++++++++++>               ",
"                                                                                              ++++++++++++++++++=               ",
"                                                                                              ;@++++++++++++++++#               ",
"                                                                                               =++++++++++++++++#               ",
"                                                                                                &+++++++++++++++@               ",
"                                                                                                 @+X++++++++++++o               ",
"                                                                                                  o+++++++++++++@               ",
"                                                                                                  #++++++++++++++               ",
"                                                                                                   X+++++++++++++>              ",
"                                                                                                   &X++++++++++++,              ",
"                                                                                                    X++++++++++++,              ",
"                                                                                                    #X++++++++++X-              ",
"                                                                                                    :++++++++++++-              ",
"                                           o+++@                                                     @+X++++++++O-              ",
"                                          >.++++#                                                    =+XO+++++++O-              ",
"                                          *+++++X@                                                    +++++++++++-              ",
"                                          #++++X+++##                                                 ++++++++++O-              ",
"                                          @+++++++++X++@$@*************************************;*****-++X++++++X+-              ",
"                                          ++++++++++++++++++XXO+++X+XXXXXX++X+++X++++X++++++XXX+++++OO+++++++++++-              ",
"                                         -+++++++++X+++++OO++++++++++++++++++++++++++++++++++++++++++++++++++++X+-              ",
"                                         -+++++++++++++++++++++++++++++++++++++++++++++++++++++++++++++++++++++++-              ",
"                                         &+++++++++++++++++++++++++++++++++++++++++++++++++++++++++++++++++++++++-              ",
"                                         #+++++++++++++++++++++@+++++++++++++++++++++++++++++++++++++++++++++++XO-              ",
"                                         #++++++++++++++++++++++++++++++++++++++++++++++++++++++++++++++++++++++O,              ",
"                                         @+++++++++++++++++++++++++++++++++++++++++++++++++X+++++++++++++++++++++*              ",
"                                         @+++++++++++++++++++++++++++++++++++++++++++++++++++++++++++++++++@+++X+-              ",
"                                         +++++++++++@+++++++++++++++++++++++++++++++++++++++++++++++++++++++++++O-              ",
"                                         @++++++++++++++++++++++++++++++++++++++++++++++++++++++++++++++++++++++O*              ",
"                                         @++++++++++++++++++++++++++++++++++++@+++++++++++++++++++++++++++++++++O,              ",
"                                         &X++++++++++++++++@++++++++++++++++++++++++++++++++++++++++@+++++++++++O,              ",
"                                         -X+++++@+++++++++++++++++++++++++++++++++++++++++++++++++++++++++++++++O*              ",
"                                          @+++++++++++++++++++++++++++++++++++++++++++++++++++++++++++++++++++++O-              ",
"                                           o++++++++++++++++++++++++++++++@+++++++++++++++++++++++++++++++++++++O,              ",
"                                           ;+X++++XX++++++++++++++++++++++++++++++++++++++++++++++++++++++++++++O*              ",
"                                             *+X+++X++++++++++++++++++++++++++++++++++++++++++++++++++++++++++++O*              ",
"                                               *+XXX++++++++++++++++++++++++++++++++++++++++++++++++++++++++++++O,              ",
"                                                  **+*+*++*++++*++@@++@@++++++++++@@++++*++++++*++++++*+++++++@+O,              ",
"                                                                                                                                ",
"                                                                                                                                ",
"                                                                                                                                ",
"                                                                                                                                ",
"                                                                                                                                ",
"                                                                                                                                ",
"                                                                                                                                ",
"                                                                                                                                ",
"                                                                                                                                ",
"                                                                                                                                ",
"                                                                                                                                ",
"                                                                                                                                "
};
